%TF.GenerationSoftware,KiCad,Pcbnew,(5.1.10)-1*%
%TF.CreationDate,2021-08-20T16:32:08+09:00*%
%TF.ProjectId,hanClock,68616e43-6c6f-4636-9b2e-6b696361645f,rev?*%
%TF.SameCoordinates,Original*%
%TF.FileFunction,Copper,L1,Top*%
%TF.FilePolarity,Positive*%
%FSLAX46Y46*%
G04 Gerber Fmt 4.6, Leading zero omitted, Abs format (unit mm)*
G04 Created by KiCad (PCBNEW (5.1.10)-1) date 2021-08-20 16:32:08*
%MOMM*%
%LPD*%
G01*
G04 APERTURE LIST*
%TA.AperFunction,SMDPad,CuDef*%
%ADD10R,1.500000X1.500000*%
%TD*%
%TA.AperFunction,ComponentPad*%
%ADD11C,1.000000*%
%TD*%
%TA.AperFunction,ComponentPad*%
%ADD12C,1.500000*%
%TD*%
%TA.AperFunction,ComponentPad*%
%ADD13C,1.200000*%
%TD*%
%TA.AperFunction,ComponentPad*%
%ADD14R,1.700000X1.700000*%
%TD*%
%TA.AperFunction,ComponentPad*%
%ADD15O,1.700000X1.700000*%
%TD*%
%TA.AperFunction,ComponentPad*%
%ADD16C,1.700000*%
%TD*%
%TA.AperFunction,ComponentPad*%
%ADD17O,1.600000X1.600000*%
%TD*%
%TA.AperFunction,ComponentPad*%
%ADD18C,1.600000*%
%TD*%
%TA.AperFunction,SMDPad,CuDef*%
%ADD19R,1.500000X1.000000*%
%TD*%
%TA.AperFunction,ComponentPad*%
%ADD20R,1.600000X1.600000*%
%TD*%
%TA.AperFunction,ComponentPad*%
%ADD21O,1.400000X1.400000*%
%TD*%
%TA.AperFunction,ComponentPad*%
%ADD22C,1.400000*%
%TD*%
%TA.AperFunction,SMDPad,CuDef*%
%ADD23R,2.000000X1.500000*%
%TD*%
%TA.AperFunction,ViaPad*%
%ADD24C,0.800000*%
%TD*%
%TA.AperFunction,ViaPad*%
%ADD25C,1.200000*%
%TD*%
%TA.AperFunction,Conductor*%
%ADD26C,0.800000*%
%TD*%
%TA.AperFunction,Conductor*%
%ADD27C,0.500000*%
%TD*%
G04 APERTURE END LIST*
D10*
%TO.P,D36,1*%
%TO.N,GND*%
X78250000Y-32750000D03*
%TO.P,D36,2*%
%TO.N,Net-(D35-Pad2)*%
X78250000Y-35750000D03*
%TD*%
%TO.P,D43,1*%
%TO.N,GND*%
X78250000Y-130750000D03*
%TO.P,D43,2*%
%TO.N,Net-(D35-Pad2)*%
X78250000Y-133750000D03*
%TD*%
%TO.P,D35,1*%
%TO.N,GND*%
X78250000Y-18750000D03*
%TO.P,D35,2*%
%TO.N,Net-(D35-Pad2)*%
X78250000Y-21750000D03*
%TD*%
%TO.P,D37,1*%
%TO.N,GND*%
X78250000Y-46750000D03*
%TO.P,D37,2*%
%TO.N,Net-(D35-Pad2)*%
X78250000Y-49750000D03*
%TD*%
%TO.P,D38,1*%
%TO.N,GND*%
X78250000Y-60750000D03*
%TO.P,D38,2*%
%TO.N,Net-(D35-Pad2)*%
X78250000Y-63750000D03*
%TD*%
%TO.P,D39,1*%
%TO.N,GND*%
X78250000Y-74750000D03*
%TO.P,D39,2*%
%TO.N,Net-(D35-Pad2)*%
X78250000Y-77750000D03*
%TD*%
%TO.P,D40,1*%
%TO.N,GND*%
X78250000Y-88750000D03*
%TO.P,D40,2*%
%TO.N,Net-(D35-Pad2)*%
X78250000Y-91750000D03*
%TD*%
%TO.P,D41,1*%
%TO.N,GND*%
X78250000Y-102750000D03*
%TO.P,D41,2*%
%TO.N,Net-(D35-Pad2)*%
X78250000Y-105750000D03*
%TD*%
%TO.P,D42,1*%
%TO.N,GND*%
X78250000Y-116750000D03*
%TO.P,D42,2*%
%TO.N,Net-(D35-Pad2)*%
X78250000Y-119750000D03*
%TD*%
D11*
%TO.P,Q1,3*%
%TO.N,Net-(D35-Pad2)*%
X76250000Y-144475000D03*
%TO.P,Q1,2*%
%TO.N,Net-(A1-Pad6)*%
X78250000Y-144475000D03*
%TO.P,Q1,1*%
%TO.N,+5V*%
X80250000Y-144475000D03*
%TD*%
D12*
%TO.P,SW2,*%
%TO.N,*%
X151750000Y-122750000D03*
X151750000Y-115750000D03*
D13*
%TO.P,SW2,2*%
%TO.N,GND*%
X154250000Y-121500000D03*
%TO.P,SW2,1*%
%TO.N,Net-(A1-Pad14)*%
X154250000Y-117000000D03*
%TD*%
D14*
%TO.P,J2,1*%
%TO.N,GND*%
X55500000Y-133050000D03*
D15*
%TO.P,J2,2*%
%TO.N,+5V*%
X55500000Y-135590000D03*
%TO.P,J2,3*%
%TO.N,Net-(A1-Pad23)*%
X55500000Y-138130000D03*
%TO.P,J2,4*%
%TO.N,Net-(A1-Pad24)*%
X55500000Y-140670000D03*
%TO.P,J2,5*%
%TO.N,Net-(J2-Pad5)*%
X55500000Y-143210000D03*
D16*
%TO.P,J2,6*%
%TO.N,Net-(J2-Pad6)*%
X55500000Y-145750000D03*
%TD*%
D14*
%TO.P,J1,1*%
%TO.N,+5V*%
X144120000Y-45750000D03*
D15*
%TO.P,J1,2*%
%TO.N,Net-(A1-Pad11)*%
X141580000Y-45750000D03*
%TO.P,J1,3*%
%TO.N,Net-(J1-Pad3)*%
X139040000Y-45750000D03*
D16*
%TO.P,J1,4*%
%TO.N,GND*%
X136500000Y-45750000D03*
%TD*%
D17*
%TO.P,R1,2*%
%TO.N,Net-(D0-Pad2)*%
X150410000Y-128000000D03*
D18*
%TO.P,R1,1*%
%TO.N,Net-(A1-Pad9)*%
X140250000Y-128000000D03*
%TD*%
D17*
%TO.P,R2,2*%
%TO.N,GND*%
X29660000Y-5000000D03*
D18*
%TO.P,R2,1*%
%TO.N,Net-(A1-Pad20)*%
X19500000Y-5000000D03*
%TD*%
D17*
%TO.P,R3,2*%
%TO.N,+5V*%
X138160000Y-52500000D03*
D18*
%TO.P,R3,1*%
%TO.N,Net-(A1-Pad11)*%
X128000000Y-52500000D03*
%TD*%
D19*
%TO.P,D33,4*%
%TO.N,Net-(D33-Pad4)*%
X115925000Y-11108300D03*
%TO.P,D33,1*%
%TO.N,GND*%
X115925000Y-14308300D03*
%TO.P,D33,3*%
%TO.N,+5V*%
X120825000Y-11108300D03*
%TO.P,D33,2*%
%TO.N,Net-(D32-Pad4)*%
X120825000Y-14308300D03*
%TD*%
%TO.P,D32,4*%
%TO.N,Net-(D32-Pad4)*%
X90508300Y-11108300D03*
%TO.P,D32,1*%
%TO.N,GND*%
X90508300Y-14308300D03*
%TO.P,D32,3*%
%TO.N,+5V*%
X95408300Y-11108300D03*
%TO.P,D32,2*%
%TO.N,Net-(D31-Pad4)*%
X95408300Y-14308300D03*
%TD*%
%TO.P,D31,4*%
%TO.N,Net-(D31-Pad4)*%
X61091700Y-11108300D03*
%TO.P,D31,1*%
%TO.N,GND*%
X61091700Y-14308300D03*
%TO.P,D31,3*%
%TO.N,+5V*%
X65991700Y-11108300D03*
%TO.P,D31,2*%
%TO.N,Net-(D30-Pad4)*%
X65991700Y-14308300D03*
%TD*%
%TO.P,D30,4*%
%TO.N,Net-(D30-Pad4)*%
X35675000Y-11108300D03*
%TO.P,D30,1*%
%TO.N,GND*%
X35675000Y-14308300D03*
%TO.P,D30,3*%
%TO.N,+5V*%
X40575000Y-11108300D03*
%TO.P,D30,2*%
%TO.N,Net-(D29-Pad4)*%
X40575000Y-14308300D03*
%TD*%
%TO.P,D29,4*%
%TO.N,Net-(D29-Pad4)*%
X10258300Y-11108300D03*
%TO.P,D29,1*%
%TO.N,GND*%
X10258300Y-14308300D03*
%TO.P,D29,3*%
%TO.N,+5V*%
X15158300Y-11108300D03*
%TO.P,D29,2*%
%TO.N,Net-(D28-Pad4)*%
X15158300Y-14308300D03*
%TD*%
%TO.P,D28,4*%
%TO.N,Net-(D28-Pad4)*%
X10258300Y-36525000D03*
%TO.P,D28,1*%
%TO.N,GND*%
X10258300Y-39725000D03*
%TO.P,D28,3*%
%TO.N,+5V*%
X15158300Y-36525000D03*
%TO.P,D28,2*%
%TO.N,Net-(D27-Pad4)*%
X15158300Y-39725000D03*
%TD*%
%TO.P,D27,4*%
%TO.N,Net-(D27-Pad4)*%
X35675000Y-36525000D03*
%TO.P,D27,1*%
%TO.N,GND*%
X35675000Y-39725000D03*
%TO.P,D27,3*%
%TO.N,+5V*%
X40575000Y-36525000D03*
%TO.P,D27,2*%
%TO.N,Net-(D26-Pad4)*%
X40575000Y-39725000D03*
%TD*%
%TO.P,D26,4*%
%TO.N,Net-(D26-Pad4)*%
X61091700Y-36525000D03*
%TO.P,D26,1*%
%TO.N,GND*%
X61091700Y-39725000D03*
%TO.P,D26,3*%
%TO.N,+5V*%
X65991700Y-36525000D03*
%TO.P,D26,2*%
%TO.N,Net-(D25-Pad4)*%
X65991700Y-39725000D03*
%TD*%
%TO.P,D25,4*%
%TO.N,Net-(D25-Pad4)*%
X90508300Y-36525000D03*
%TO.P,D25,1*%
%TO.N,GND*%
X90508300Y-39725000D03*
%TO.P,D25,3*%
%TO.N,+5V*%
X95408300Y-36525000D03*
%TO.P,D25,2*%
%TO.N,Net-(D24-Pad4)*%
X95408300Y-39725000D03*
%TD*%
%TO.P,D24,4*%
%TO.N,Net-(D24-Pad4)*%
X115925000Y-36525000D03*
%TO.P,D24,1*%
%TO.N,GND*%
X115925000Y-39725000D03*
%TO.P,D24,3*%
%TO.N,+5V*%
X120825000Y-36525000D03*
%TO.P,D24,2*%
%TO.N,Net-(D23-Pad4)*%
X120825000Y-39725000D03*
%TD*%
%TO.P,D23,4*%
%TO.N,Net-(D23-Pad4)*%
X141341700Y-36525000D03*
%TO.P,D23,1*%
%TO.N,GND*%
X141341700Y-39725000D03*
%TO.P,D23,3*%
%TO.N,+5V*%
X146241700Y-36525000D03*
%TO.P,D23,2*%
%TO.N,Net-(D22-Pad4)*%
X146241700Y-39725000D03*
%TD*%
%TO.P,D22,4*%
%TO.N,Net-(D22-Pad4)*%
X141341700Y-61941700D03*
%TO.P,D22,1*%
%TO.N,GND*%
X141341700Y-65141700D03*
%TO.P,D22,3*%
%TO.N,+5V*%
X146241700Y-61941700D03*
%TO.P,D22,2*%
%TO.N,Net-(D21-Pad4)*%
X146241700Y-65141700D03*
%TD*%
%TO.P,D21,4*%
%TO.N,Net-(D21-Pad4)*%
X115925000Y-61941700D03*
%TO.P,D21,1*%
%TO.N,GND*%
X115925000Y-65141700D03*
%TO.P,D21,3*%
%TO.N,+5V*%
X120825000Y-61941700D03*
%TO.P,D21,2*%
%TO.N,Net-(D20-Pad4)*%
X120825000Y-65141700D03*
%TD*%
%TO.P,D20,4*%
%TO.N,Net-(D20-Pad4)*%
X90508300Y-61941700D03*
%TO.P,D20,1*%
%TO.N,GND*%
X90508300Y-65141700D03*
%TO.P,D20,3*%
%TO.N,+5V*%
X95408300Y-61941700D03*
%TO.P,D20,2*%
%TO.N,Net-(D19-Pad4)*%
X95408300Y-65141700D03*
%TD*%
%TO.P,D19,4*%
%TO.N,Net-(D19-Pad4)*%
X61091700Y-61941700D03*
%TO.P,D19,1*%
%TO.N,GND*%
X61091700Y-65141700D03*
%TO.P,D19,3*%
%TO.N,+5V*%
X65991700Y-61941700D03*
%TO.P,D19,2*%
%TO.N,Net-(D18-Pad4)*%
X65991700Y-65141700D03*
%TD*%
%TO.P,D18,4*%
%TO.N,Net-(D18-Pad4)*%
X35675000Y-61941700D03*
%TO.P,D18,1*%
%TO.N,GND*%
X35675000Y-65141700D03*
%TO.P,D18,3*%
%TO.N,+5V*%
X40575000Y-61941700D03*
%TO.P,D18,2*%
%TO.N,Net-(D17-Pad4)*%
X40575000Y-65141700D03*
%TD*%
%TO.P,D17,4*%
%TO.N,Net-(D17-Pad4)*%
X10258300Y-61941700D03*
%TO.P,D17,1*%
%TO.N,GND*%
X10258300Y-65141700D03*
%TO.P,D17,3*%
%TO.N,+5V*%
X15158300Y-61941700D03*
%TO.P,D17,2*%
%TO.N,Net-(D16-Pad4)*%
X15158300Y-65141700D03*
%TD*%
%TO.P,D16,4*%
%TO.N,Net-(D16-Pad4)*%
X10258300Y-87358300D03*
%TO.P,D16,1*%
%TO.N,GND*%
X10258300Y-90558300D03*
%TO.P,D16,3*%
%TO.N,+5V*%
X15158300Y-87358300D03*
%TO.P,D16,2*%
%TO.N,Net-(D15-Pad4)*%
X15158300Y-90558300D03*
%TD*%
%TO.P,D15,4*%
%TO.N,Net-(D15-Pad4)*%
X35675000Y-87358300D03*
%TO.P,D15,1*%
%TO.N,GND*%
X35675000Y-90558300D03*
%TO.P,D15,3*%
%TO.N,+5V*%
X40575000Y-87358300D03*
%TO.P,D15,2*%
%TO.N,Net-(D14-Pad4)*%
X40575000Y-90558300D03*
%TD*%
%TO.P,D14,4*%
%TO.N,Net-(D14-Pad4)*%
X61091700Y-87358300D03*
%TO.P,D14,1*%
%TO.N,GND*%
X61091700Y-90558300D03*
%TO.P,D14,3*%
%TO.N,+5V*%
X65991700Y-87358300D03*
%TO.P,D14,2*%
%TO.N,Net-(D13-Pad4)*%
X65991700Y-90558300D03*
%TD*%
%TO.P,D13,4*%
%TO.N,Net-(D13-Pad4)*%
X90508300Y-87358300D03*
%TO.P,D13,1*%
%TO.N,GND*%
X90508300Y-90558300D03*
%TO.P,D13,3*%
%TO.N,+5V*%
X95408300Y-87358300D03*
%TO.P,D13,2*%
%TO.N,Net-(D12-Pad4)*%
X95408300Y-90558300D03*
%TD*%
%TO.P,D12,4*%
%TO.N,Net-(D12-Pad4)*%
X115925000Y-87358300D03*
%TO.P,D12,1*%
%TO.N,GND*%
X115925000Y-90558300D03*
%TO.P,D12,3*%
%TO.N,+5V*%
X120825000Y-87358300D03*
%TO.P,D12,2*%
%TO.N,Net-(D11-Pad4)*%
X120825000Y-90558300D03*
%TD*%
%TO.P,D11,4*%
%TO.N,Net-(D11-Pad4)*%
X141341700Y-87358300D03*
%TO.P,D11,1*%
%TO.N,GND*%
X141341700Y-90558300D03*
%TO.P,D11,3*%
%TO.N,+5V*%
X146241700Y-87358300D03*
%TO.P,D11,2*%
%TO.N,Net-(D10-Pad4)*%
X146241700Y-90558300D03*
%TD*%
%TO.P,D10,4*%
%TO.N,Net-(D10-Pad4)*%
X141341700Y-112775000D03*
%TO.P,D10,1*%
%TO.N,GND*%
X141341700Y-115975000D03*
%TO.P,D10,3*%
%TO.N,+5V*%
X146241700Y-112775000D03*
%TO.P,D10,2*%
%TO.N,Net-(D10-Pad2)*%
X146241700Y-115975000D03*
%TD*%
%TO.P,D9,4*%
%TO.N,Net-(D10-Pad2)*%
X115925000Y-112775000D03*
%TO.P,D9,1*%
%TO.N,GND*%
X115925000Y-115975000D03*
%TO.P,D9,3*%
%TO.N,+5V*%
X120825000Y-112775000D03*
%TO.P,D9,2*%
%TO.N,Net-(D8-Pad4)*%
X120825000Y-115975000D03*
%TD*%
%TO.P,D8,4*%
%TO.N,Net-(D8-Pad4)*%
X90508300Y-112775000D03*
%TO.P,D8,1*%
%TO.N,GND*%
X90508300Y-115975000D03*
%TO.P,D8,3*%
%TO.N,+5V*%
X95408300Y-112775000D03*
%TO.P,D8,2*%
%TO.N,Net-(D7-Pad4)*%
X95408300Y-115975000D03*
%TD*%
%TO.P,D7,4*%
%TO.N,Net-(D7-Pad4)*%
X61091700Y-112775000D03*
%TO.P,D7,1*%
%TO.N,GND*%
X61091700Y-115975000D03*
%TO.P,D7,3*%
%TO.N,+5V*%
X65991700Y-112775000D03*
%TO.P,D7,2*%
%TO.N,Net-(D6-Pad4)*%
X65991700Y-115975000D03*
%TD*%
%TO.P,D6,4*%
%TO.N,Net-(D6-Pad4)*%
X35675000Y-112775000D03*
%TO.P,D6,1*%
%TO.N,GND*%
X35675000Y-115975000D03*
%TO.P,D6,3*%
%TO.N,+5V*%
X40575000Y-112775000D03*
%TO.P,D6,2*%
%TO.N,Net-(D5-Pad4)*%
X40575000Y-115975000D03*
%TD*%
%TO.P,D5,4*%
%TO.N,Net-(D5-Pad4)*%
X10258300Y-112775000D03*
%TO.P,D5,1*%
%TO.N,GND*%
X10258300Y-115975000D03*
%TO.P,D5,3*%
%TO.N,+5V*%
X15158300Y-112775000D03*
%TO.P,D5,2*%
%TO.N,Net-(D4-Pad4)*%
X15158300Y-115975000D03*
%TD*%
%TO.P,D4,4*%
%TO.N,Net-(D4-Pad4)*%
X35675000Y-138191700D03*
%TO.P,D4,1*%
%TO.N,GND*%
X35675000Y-141391700D03*
%TO.P,D4,3*%
%TO.N,+5V*%
X40575000Y-138191700D03*
%TO.P,D4,2*%
%TO.N,Net-(D3-Pad4)*%
X40575000Y-141391700D03*
%TD*%
%TO.P,D3,4*%
%TO.N,Net-(D3-Pad4)*%
X61091700Y-138191700D03*
%TO.P,D3,1*%
%TO.N,GND*%
X61091700Y-141391700D03*
%TO.P,D3,3*%
%TO.N,+5V*%
X65991700Y-138191700D03*
%TO.P,D3,2*%
%TO.N,Net-(D2-Pad4)*%
X65991700Y-141391700D03*
%TD*%
%TO.P,D2,4*%
%TO.N,Net-(D2-Pad4)*%
X90508300Y-138191700D03*
%TO.P,D2,1*%
%TO.N,GND*%
X90508300Y-141391700D03*
%TO.P,D2,3*%
%TO.N,+5V*%
X95408300Y-138191700D03*
%TO.P,D2,2*%
%TO.N,Net-(D1-Pad4)*%
X95408300Y-141391700D03*
%TD*%
%TO.P,D1,4*%
%TO.N,Net-(D1-Pad4)*%
X115925000Y-138191700D03*
%TO.P,D1,1*%
%TO.N,GND*%
X115925000Y-141391700D03*
%TO.P,D1,3*%
%TO.N,+5V*%
X120825000Y-138191700D03*
%TO.P,D1,2*%
%TO.N,Net-(D0-Pad4)*%
X120825000Y-141391700D03*
%TD*%
%TO.P,D0,4*%
%TO.N,Net-(D0-Pad4)*%
X141341700Y-138191700D03*
%TO.P,D0,1*%
%TO.N,GND*%
X141341700Y-141391700D03*
%TO.P,D0,3*%
%TO.N,+5V*%
X146241700Y-138191700D03*
%TO.P,D0,2*%
%TO.N,Net-(D0-Pad2)*%
X146241700Y-141391700D03*
%TD*%
%TO.P,D34,4*%
%TO.N,Net-(D34-Pad4)*%
X141341700Y-11108300D03*
%TO.P,D34,1*%
%TO.N,GND*%
X141341700Y-14308300D03*
%TO.P,D34,3*%
%TO.N,+5V*%
X146241700Y-11108300D03*
%TO.P,D34,2*%
%TO.N,Net-(D33-Pad4)*%
X146241700Y-14308300D03*
%TD*%
D17*
%TO.P,A1,16*%
%TO.N,Net-(A1-Pad16)*%
X149060000Y-147740000D03*
%TO.P,A1,15*%
%TO.N,Net-(A1-Pad15)*%
X149060000Y-132500000D03*
%TO.P,A1,30*%
%TO.N,Net-(A1-Pad30)*%
X113500000Y-147740000D03*
%TO.P,A1,14*%
%TO.N,Net-(A1-Pad14)*%
X146520000Y-132500000D03*
%TO.P,A1,29*%
%TO.N,GND*%
X116040000Y-147740000D03*
%TO.P,A1,13*%
%TO.N,Net-(A1-Pad13)*%
X143980000Y-132500000D03*
%TO.P,A1,28*%
%TO.N,Net-(A1-Pad28)*%
X118580000Y-147740000D03*
%TO.P,A1,12*%
%TO.N,Net-(A1-Pad12)*%
X141440000Y-132500000D03*
%TO.P,A1,27*%
%TO.N,+5V*%
X121120000Y-147740000D03*
%TO.P,A1,11*%
%TO.N,Net-(A1-Pad11)*%
X138900000Y-132500000D03*
%TO.P,A1,26*%
%TO.N,Net-(A1-Pad26)*%
X123660000Y-147740000D03*
%TO.P,A1,10*%
%TO.N,Net-(A1-Pad10)*%
X136360000Y-132500000D03*
%TO.P,A1,25*%
%TO.N,Net-(A1-Pad25)*%
X126200000Y-147740000D03*
%TO.P,A1,9*%
%TO.N,Net-(A1-Pad9)*%
X133820000Y-132500000D03*
%TO.P,A1,24*%
%TO.N,Net-(A1-Pad24)*%
X128740000Y-147740000D03*
%TO.P,A1,8*%
%TO.N,Net-(A1-Pad8)*%
X131280000Y-132500000D03*
%TO.P,A1,23*%
%TO.N,Net-(A1-Pad23)*%
X131280000Y-147740000D03*
%TO.P,A1,7*%
%TO.N,Net-(A1-Pad7)*%
X128740000Y-132500000D03*
%TO.P,A1,22*%
%TO.N,Net-(A1-Pad22)*%
X133820000Y-147740000D03*
%TO.P,A1,6*%
%TO.N,Net-(A1-Pad6)*%
X126200000Y-132500000D03*
%TO.P,A1,21*%
%TO.N,Net-(A1-Pad21)*%
X136360000Y-147740000D03*
%TO.P,A1,5*%
%TO.N,Net-(A1-Pad5)*%
X123660000Y-132500000D03*
%TO.P,A1,20*%
%TO.N,Net-(A1-Pad20)*%
X138900000Y-147740000D03*
%TO.P,A1,4*%
%TO.N,GND*%
X121120000Y-132500000D03*
%TO.P,A1,19*%
%TO.N,Net-(A1-Pad19)*%
X141440000Y-147740000D03*
%TO.P,A1,3*%
%TO.N,Net-(A1-Pad3)*%
X118580000Y-132500000D03*
%TO.P,A1,18*%
%TO.N,Net-(A1-Pad18)*%
X143980000Y-147740000D03*
%TO.P,A1,2*%
%TO.N,Net-(A1-Pad2)*%
X116040000Y-132500000D03*
%TO.P,A1,17*%
%TO.N,Net-(A1-Pad17)*%
X146520000Y-147740000D03*
D20*
%TO.P,A1,1*%
%TO.N,Net-(A1-Pad1)*%
X113500000Y-132500000D03*
%TD*%
D13*
%TO.P,BZ1,2*%
%TO.N,GND*%
X133050000Y-98750000D03*
%TO.P,BZ1,1*%
%TO.N,Net-(A1-Pad10)*%
X127450000Y-98750000D03*
%TD*%
D21*
%TO.P,R4,2*%
%TO.N,Net-(A1-Pad20)*%
X3302000Y-3556000D03*
D22*
%TO.P,R4,1*%
%TO.N,+5V*%
X5842000Y-3556000D03*
%TD*%
D23*
%TO.P,SW1,2*%
%TO.N,GND*%
X19958300Y-142291700D03*
%TO.P,SW1,1*%
%TO.N,Net-(A1-Pad5)*%
X19958300Y-137291700D03*
%TO.P,SW1,2*%
%TO.N,GND*%
X5458300Y-142291700D03*
%TO.P,SW1,1*%
%TO.N,Net-(A1-Pad5)*%
X5458300Y-137291700D03*
%TD*%
D12*
%TO.P,SW3,*%
%TO.N,*%
X151750000Y-113250000D03*
X151750000Y-106250000D03*
D13*
%TO.P,SW3,2*%
%TO.N,GND*%
X154250000Y-112000000D03*
%TO.P,SW3,1*%
%TO.N,Net-(A1-Pad13)*%
X154250000Y-107500000D03*
%TD*%
D12*
%TO.P,SW4,*%
%TO.N,*%
X151750000Y-97500000D03*
X151750000Y-90500000D03*
D13*
%TO.P,SW4,2*%
%TO.N,GND*%
X154250000Y-96250000D03*
%TO.P,SW4,1*%
%TO.N,Net-(A1-Pad12)*%
X154250000Y-91750000D03*
%TD*%
D14*
%TO.P,J3,1*%
%TO.N,+5V*%
X121250000Y-45750000D03*
D15*
%TO.P,J3,2*%
%TO.N,GND*%
X118710000Y-45750000D03*
%TO.P,J3,3*%
%TO.N,Net-(A1-Pad8)*%
X116170000Y-45750000D03*
%TO.P,J3,4*%
%TO.N,Net-(A1-Pad7)*%
X113630000Y-45750000D03*
%TD*%
D24*
%TO.N,GND*%
X133563300Y-141391700D03*
D25*
X100350000Y-43020000D03*
X100350000Y-70010000D03*
X100380000Y-93500000D03*
X100350000Y-119500000D03*
X100333500Y-16633500D03*
%TO.N,+5V*%
X85750000Y-8000000D03*
D24*
%TO.N,Net-(A1-Pad5)*%
X117750000Y-127750000D03*
%TO.N,Net-(A1-Pad6)*%
X108534000Y-140716000D03*
X112179000Y-137071000D03*
D25*
%TO.N,+5V*%
X85750000Y-109000000D03*
X85710000Y-83500000D03*
X85760000Y-58000000D03*
X85750000Y-26500000D03*
D24*
X63373000Y-135636000D03*
D25*
%TO.N,Net-(D35-Pad2)*%
X80750000Y-133753000D03*
D24*
X80772000Y-119761000D03*
X80750000Y-105813000D03*
X80750000Y-91716000D03*
X80772000Y-77724000D03*
X80750000Y-63776000D03*
X78232000Y-24257000D03*
X80772000Y-38227000D03*
X80772000Y-52197000D03*
%TO.N,Net-(D4-Pad4)*%
X17725000Y-115975000D03*
X35675000Y-134925000D03*
%TD*%
D26*
%TO.N,GND*%
X90508300Y-16491700D02*
X90500000Y-16500000D01*
X90508300Y-42991700D02*
X90500000Y-43000000D01*
X90500000Y-43000000D02*
X100340000Y-43000000D01*
X61091700Y-42908300D02*
X61000000Y-43000000D01*
X61091700Y-39725000D02*
X61091700Y-42908300D01*
X35675000Y-42825000D02*
X35500000Y-43000000D01*
X35500000Y-43000000D02*
X61000000Y-43000000D01*
X35675000Y-39725000D02*
X35675000Y-42825000D01*
X78000000Y-43000000D02*
X83500000Y-43000000D01*
X10258300Y-65141700D02*
X7141700Y-65141700D01*
X7000000Y-65000000D02*
X7000000Y-70000000D01*
X90508300Y-69991700D02*
X90500000Y-70000000D01*
X90508300Y-65141700D02*
X90508300Y-69991700D01*
X7000000Y-43000000D02*
X7000000Y-45500000D01*
X7000000Y-70000000D02*
X7000000Y-72500000D01*
X7000000Y-40000000D02*
X7000000Y-43000000D01*
X7000000Y-19500000D02*
X7000000Y-40000000D01*
D27*
X115925000Y-147625000D02*
X116040000Y-147740000D01*
X115925000Y-141391700D02*
X115925000Y-147625000D01*
X141341700Y-141391700D02*
X133563300Y-141391700D01*
D26*
X7191700Y-90558300D02*
X7000000Y-90750000D01*
X10258300Y-90558300D02*
X7191700Y-90558300D01*
X7000000Y-90750000D02*
X7000000Y-93500000D01*
X7000000Y-72500000D02*
X7000000Y-90750000D01*
X35675000Y-93325000D02*
X35500000Y-93500000D01*
X35675000Y-90558300D02*
X35675000Y-93325000D01*
X7000000Y-93500000D02*
X35500000Y-93500000D01*
X61091700Y-93341700D02*
X61250000Y-93500000D01*
X61091700Y-90558300D02*
X61091700Y-93341700D01*
X35500000Y-93500000D02*
X61250000Y-93500000D01*
X90508300Y-93258300D02*
X90750000Y-93500000D01*
X90508300Y-90558300D02*
X90508300Y-93258300D01*
X78250000Y-93500000D02*
X90750000Y-93500000D01*
X115925000Y-93425000D02*
X116000000Y-93500000D01*
X115925000Y-90558300D02*
X115925000Y-93425000D01*
X90750000Y-93500000D02*
X100380000Y-93500000D01*
X137816700Y-119500000D02*
X141341700Y-115975000D01*
X115925000Y-119425000D02*
X116000000Y-119500000D01*
X115925000Y-115975000D02*
X115925000Y-119425000D01*
X90508300Y-119491700D02*
X90500000Y-119500000D01*
X90508300Y-115975000D02*
X90508300Y-119491700D01*
X90500000Y-119500000D02*
X100350000Y-119500000D01*
X61091700Y-119408300D02*
X61000000Y-119500000D01*
X61091700Y-115975000D02*
X61091700Y-119408300D01*
X61000000Y-119500000D02*
X73500000Y-119500000D01*
X36000000Y-116300000D02*
X35675000Y-115975000D01*
X36000000Y-119500000D02*
X36000000Y-116300000D01*
X7000000Y-119500000D02*
X36000000Y-119500000D01*
X36000000Y-119500000D02*
X61000000Y-119500000D01*
X7025000Y-115975000D02*
X7000000Y-116000000D01*
X10258300Y-115975000D02*
X7025000Y-115975000D01*
X7000000Y-116000000D02*
X7000000Y-119500000D01*
X7000000Y-93500000D02*
X7000000Y-116000000D01*
X70000000Y-93500000D02*
X78250000Y-93500000D01*
X61250000Y-93500000D02*
X70000000Y-93500000D01*
X5458300Y-142291700D02*
X19958300Y-142291700D01*
X121120000Y-119620000D02*
X121000000Y-119500000D01*
X121000000Y-119500000D02*
X137816700Y-119500000D01*
X116000000Y-119500000D02*
X121000000Y-119500000D01*
D27*
X90508300Y-141391700D02*
X90508300Y-140741700D01*
X90508300Y-140741700D02*
X92750000Y-138500000D01*
X92750000Y-138500000D02*
X92750000Y-134750000D01*
X92750000Y-134750000D02*
X97870000Y-129630000D01*
D26*
X121120000Y-129630000D02*
X121120000Y-119620000D01*
X121120000Y-132500000D02*
X121120000Y-129630000D01*
D27*
X34775000Y-142291700D02*
X35675000Y-141391700D01*
X19958300Y-142291700D02*
X34775000Y-142291700D01*
X61091700Y-141391700D02*
X58750000Y-139050000D01*
X58750000Y-139050000D02*
X58750000Y-134250000D01*
X57550000Y-133050000D02*
X55500000Y-133050000D01*
X58750000Y-134250000D02*
X57550000Y-133050000D01*
D26*
X49500000Y-149500000D02*
X49500000Y-149500000D01*
X49500000Y-149500000D02*
X49500000Y-149500000D01*
X115250000Y-149500000D02*
X116040000Y-148710000D01*
X88000000Y-149500000D02*
X115250000Y-149500000D01*
X116040000Y-148710000D02*
X116040000Y-147740000D01*
X138400000Y-93500000D02*
X141341700Y-90558300D01*
X116000000Y-93500000D02*
X138400000Y-93500000D01*
X138300000Y-93500000D02*
X138400000Y-93500000D01*
X133050000Y-98750000D02*
X138300000Y-93500000D01*
D27*
X136500000Y-45750000D02*
X136500000Y-43000000D01*
D26*
X100340000Y-43000000D02*
X100400000Y-43000000D01*
X100380000Y-93500000D02*
X116000000Y-93500000D01*
X100350000Y-119500000D02*
X116000000Y-119500000D01*
D27*
X74997000Y-130750000D02*
X73500000Y-129253000D01*
X78250000Y-130750000D02*
X74997000Y-130750000D01*
X73500000Y-129253000D02*
X73500000Y-119500000D01*
D26*
X73500000Y-119500000D02*
X73921000Y-119500000D01*
X73921000Y-119500000D02*
X76581000Y-116840000D01*
X87856600Y-116840000D02*
X90508300Y-119491700D01*
X76581000Y-116840000D02*
X87856600Y-116840000D01*
D27*
X73921000Y-102750000D02*
X70000000Y-98829000D01*
X78250000Y-102750000D02*
X73921000Y-102750000D01*
X70000000Y-98829000D02*
X70000000Y-93500000D01*
X74750000Y-88750000D02*
X70000000Y-93500000D01*
X78250000Y-88750000D02*
X74750000Y-88750000D01*
X78500000Y-74500000D02*
X78250000Y-74750000D01*
X78250000Y-32750000D02*
X77486000Y-32750000D01*
X77486000Y-32750000D02*
X74930000Y-35306000D01*
X74930000Y-42926000D02*
X75004000Y-43000000D01*
X74930000Y-35306000D02*
X74930000Y-42926000D01*
D26*
X75004000Y-43000000D02*
X78000000Y-43000000D01*
X61000000Y-43000000D02*
X75004000Y-43000000D01*
D27*
X76337000Y-16837000D02*
X78250000Y-18750000D01*
X76337000Y-16500000D02*
X76337000Y-16837000D01*
D26*
X82000000Y-16500000D02*
X76337000Y-16500000D01*
X141341700Y-14360300D02*
X139202000Y-16500000D01*
X141341700Y-14308300D02*
X141341700Y-14360300D01*
X139202000Y-16500000D02*
X116000000Y-16500000D01*
X115925000Y-14377000D02*
X113802000Y-16500000D01*
X115925000Y-14308300D02*
X115925000Y-14377000D01*
X116000000Y-16500000D02*
X113802000Y-16500000D01*
X90508300Y-14308300D02*
X90466700Y-14308300D01*
X88275000Y-16500000D02*
X82000000Y-16500000D01*
X90500000Y-16500000D02*
X88275000Y-16500000D01*
X61091700Y-14308300D02*
X61091700Y-14346300D01*
X61000000Y-16500000D02*
X58938000Y-16500000D01*
X10258300Y-39741700D02*
X7000000Y-43000000D01*
X10258300Y-39725000D02*
X10258300Y-39741700D01*
X14806000Y-43000000D02*
X14806000Y-43106000D01*
X14806000Y-43106000D02*
X7000000Y-50912000D01*
X7000000Y-50912000D02*
X7000000Y-65000000D01*
X7000000Y-45500000D02*
X7000000Y-50912000D01*
X14806000Y-43000000D02*
X35500000Y-43000000D01*
X141341700Y-39781300D02*
X138123000Y-43000000D01*
X141341700Y-39725000D02*
X141341700Y-39781300D01*
X136500000Y-43000000D02*
X138123000Y-43000000D01*
X115925000Y-40052000D02*
X112977000Y-43000000D01*
X115925000Y-39725000D02*
X115925000Y-40052000D01*
X112977000Y-43000000D02*
X115500000Y-43000000D01*
X100400000Y-43000000D02*
X112977000Y-43000000D01*
X90450000Y-39725000D02*
X87175000Y-43000000D01*
X90508300Y-39725000D02*
X90450000Y-39725000D01*
X87175000Y-43000000D02*
X90500000Y-43000000D01*
X83500000Y-43000000D02*
X87175000Y-43000000D01*
X78250000Y-46246000D02*
X75004000Y-43000000D01*
X78250000Y-46750000D02*
X78250000Y-46246000D01*
D27*
X78188000Y-60750000D02*
X68938000Y-70000000D01*
X78250000Y-60750000D02*
X78188000Y-60750000D01*
X78250000Y-74750000D02*
X78250000Y-74694000D01*
D26*
X68938000Y-70000000D02*
X78500000Y-70000000D01*
D27*
X118250000Y-129630000D02*
X117692000Y-129630000D01*
X121120000Y-132500000D02*
X118250000Y-129630000D01*
X97870000Y-129630000D02*
X117692000Y-129630000D01*
D26*
X61091700Y-141391700D02*
X61127700Y-141391700D01*
X61127700Y-141391700D02*
X69215000Y-149479000D01*
X115960000Y-43000000D02*
X115500000Y-43000000D01*
X118710000Y-45750000D02*
X115960000Y-43000000D01*
X119000000Y-43000000D02*
X115960000Y-43000000D01*
X136500000Y-43000000D02*
X119000000Y-43000000D01*
X35675000Y-65141700D02*
X35931700Y-65141700D01*
X40790000Y-70000000D02*
X61000000Y-70000000D01*
X35931700Y-65141700D02*
X40790000Y-70000000D01*
X61091700Y-65141700D02*
X61091700Y-65282700D01*
X61091700Y-65282700D02*
X65809000Y-70000000D01*
X65809000Y-70000000D02*
X68938000Y-70000000D01*
X61000000Y-70000000D02*
X65809000Y-70000000D01*
D27*
X78250000Y-74577000D02*
X82827000Y-70000000D01*
X78250000Y-74750000D02*
X78250000Y-74577000D01*
D26*
X82827000Y-70000000D02*
X90500000Y-70000000D01*
X78500000Y-70000000D02*
X82827000Y-70000000D01*
X141341700Y-65160300D02*
X136502000Y-70000000D01*
X141341700Y-65141700D02*
X141341700Y-65160300D01*
X115833300Y-65141700D02*
X110975000Y-70000000D01*
X115925000Y-65141700D02*
X115833300Y-65141700D01*
X90500000Y-70000000D02*
X110975000Y-70000000D01*
X136502000Y-70000000D02*
X110975000Y-70000000D01*
X10258300Y-14308300D02*
X10202700Y-14308300D01*
X7000000Y-17511000D02*
X7000000Y-19500000D01*
X10202700Y-14308300D02*
X7000000Y-17511000D01*
D27*
X7000000Y-17511000D02*
X7000000Y-17462000D01*
X90508300Y-14415300D02*
X92593000Y-16500000D01*
X90508300Y-14308300D02*
X90508300Y-14415300D01*
D26*
X92593000Y-16500000D02*
X90500000Y-16500000D01*
X113802000Y-16500000D02*
X92593000Y-16500000D01*
D27*
X61091700Y-14482700D02*
X63109000Y-16500000D01*
X61091700Y-14308300D02*
X61091700Y-14482700D01*
D26*
X63109000Y-16500000D02*
X61000000Y-16500000D01*
X76337000Y-16500000D02*
X63109000Y-16500000D01*
D27*
X35675000Y-14319000D02*
X37856000Y-16500000D01*
X35675000Y-14308300D02*
X35675000Y-14319000D01*
D26*
X58938000Y-16500000D02*
X37856000Y-16500000D01*
X49500000Y-149500000D02*
X115250000Y-149500000D01*
X5458300Y-142291700D02*
X5458300Y-142237300D01*
X5458300Y-142237300D02*
X2540000Y-139319000D01*
X2540000Y-123960000D02*
X7000000Y-119500000D01*
X2540000Y-139319000D02*
X2540000Y-123960000D01*
X5512700Y-142291700D02*
X12721000Y-149500000D01*
X5458300Y-142291700D02*
X5512700Y-142291700D01*
X12721000Y-149500000D02*
X49500000Y-149500000D01*
D27*
%TO.N,Net-(A1-Pad20)*%
X3302000Y-3556000D02*
X889000Y-5969000D01*
X889000Y-145796000D02*
X6917990Y-151824990D01*
X889000Y-5969000D02*
X889000Y-145796000D01*
X134815010Y-151824990D02*
X138900000Y-147740000D01*
X6917990Y-151824990D02*
X134815010Y-151824990D01*
D26*
%TO.N,+5V*%
X146241700Y-8258300D02*
X146500000Y-8000000D01*
X146241700Y-11108300D02*
X146241700Y-8258300D01*
X15158300Y-36525000D02*
X15158300Y-34341700D01*
X15158300Y-34341700D02*
X16000000Y-33500000D01*
X65991700Y-33508300D02*
X66000000Y-33500000D01*
X65991700Y-36525000D02*
X65991700Y-33508300D01*
X95408300Y-31591700D02*
X95500000Y-31500000D01*
X95408300Y-36525000D02*
X95408300Y-31591700D01*
X95500000Y-31500000D02*
X121000000Y-31500000D01*
X149475000Y-36525000D02*
X149500000Y-36500000D01*
X149500000Y-31000000D02*
X149500000Y-36500000D01*
X66000000Y-33500000D02*
X73000000Y-26500000D01*
X73000000Y-26500000D02*
X85750000Y-26500000D01*
X90500000Y-26500000D02*
X95500000Y-31500000D01*
X146500000Y-8000000D02*
X149500000Y-11000000D01*
X149500000Y-11000000D02*
X149500000Y-31000000D01*
X15158300Y-61941700D02*
X15158300Y-59841700D01*
X15158300Y-59841700D02*
X17000000Y-58000000D01*
X120825000Y-58175000D02*
X121000000Y-58000000D01*
X120825000Y-61941700D02*
X120825000Y-58175000D01*
X149441700Y-61941700D02*
X149500000Y-62000000D01*
X146241700Y-61941700D02*
X149441700Y-61941700D01*
X149500000Y-60000000D02*
X149500000Y-62000000D01*
X95408300Y-58091700D02*
X95500000Y-58000000D01*
X95408300Y-61941700D02*
X95408300Y-58091700D01*
X95500000Y-58000000D02*
X121000000Y-58000000D01*
X17000000Y-58000000D02*
X41250000Y-58000000D01*
X121120000Y-146880000D02*
X121120000Y-147740000D01*
X122750000Y-145250000D02*
X121120000Y-146880000D01*
D27*
X146241700Y-138191700D02*
X145808300Y-138191700D01*
X145808300Y-138191700D02*
X143750000Y-140250000D01*
D26*
X40575000Y-36525000D02*
X40575000Y-33575000D01*
X40575000Y-33575000D02*
X40500000Y-33500000D01*
X40500000Y-33500000D02*
X66000000Y-33500000D01*
X16000000Y-33500000D02*
X40500000Y-33500000D01*
X15158300Y-87358300D02*
X19016600Y-83500000D01*
X149500000Y-62000000D02*
X149500000Y-83500000D01*
X149391700Y-87358300D02*
X149500000Y-87250000D01*
X146241700Y-87358300D02*
X149391700Y-87358300D01*
X149500000Y-83500000D02*
X149500000Y-87250000D01*
X120825000Y-83575000D02*
X120750000Y-83500000D01*
X120825000Y-87358300D02*
X120825000Y-83575000D01*
X120750000Y-83500000D02*
X149500000Y-83500000D01*
X95408300Y-83841700D02*
X95750000Y-83500000D01*
X95408300Y-87358300D02*
X95408300Y-83841700D01*
X95750000Y-83500000D02*
X120750000Y-83500000D01*
X65991700Y-87358300D02*
X65991700Y-83508300D01*
X66000000Y-83500000D02*
X85710000Y-83500000D01*
X65991700Y-83508300D02*
X66000000Y-83500000D01*
X40575000Y-83675000D02*
X40750000Y-83500000D01*
X40575000Y-87358300D02*
X40575000Y-83675000D01*
X40750000Y-83500000D02*
X66000000Y-83500000D01*
X19016600Y-83500000D02*
X40750000Y-83500000D01*
X15158300Y-112775000D02*
X15158300Y-112341700D01*
X15158300Y-112341700D02*
X18500000Y-109000000D01*
X149500000Y-87250000D02*
X149500000Y-109000000D01*
X149275000Y-112775000D02*
X149500000Y-113000000D01*
X146241700Y-112775000D02*
X149275000Y-112775000D01*
X149500000Y-109000000D02*
X149500000Y-113000000D01*
X120825000Y-109075000D02*
X120750000Y-109000000D01*
X120825000Y-112775000D02*
X120825000Y-109075000D01*
X95408300Y-109158300D02*
X95250000Y-109000000D01*
X95408300Y-112775000D02*
X95408300Y-109158300D01*
X95250000Y-109000000D02*
X120750000Y-109000000D01*
X65991700Y-109008300D02*
X66000000Y-109000000D01*
X66000000Y-109000000D02*
X85750000Y-109000000D01*
X65991700Y-112775000D02*
X65991700Y-109008300D01*
X40575000Y-109175000D02*
X40750000Y-109000000D01*
X40575000Y-112775000D02*
X40575000Y-109175000D01*
X40750000Y-109000000D02*
X66000000Y-109000000D01*
X18500000Y-109000000D02*
X40750000Y-109000000D01*
D27*
X65991700Y-138008300D02*
X65991700Y-138191700D01*
D26*
X149500000Y-123000000D02*
X149500000Y-113000000D01*
X155000000Y-128500000D02*
X149500000Y-123000000D01*
X155000000Y-140750000D02*
X155000000Y-128500000D01*
X150500000Y-145250000D02*
X155000000Y-140750000D01*
X143750000Y-145250000D02*
X150500000Y-145250000D01*
D27*
%TO.N,Net-(A1-Pad5)*%
X5458300Y-137291700D02*
X19958300Y-137291700D01*
X19958300Y-137291700D02*
X24458300Y-137291700D01*
X24458300Y-137291700D02*
X33500000Y-128250000D01*
X33500000Y-128250000D02*
X66750000Y-128250000D01*
X66750000Y-128250000D02*
X75000000Y-136500000D01*
X75000000Y-136500000D02*
X81000000Y-136500000D01*
X81000000Y-136500000D02*
X89750000Y-127750000D01*
X89750000Y-127750000D02*
X117750000Y-127750000D01*
X117750000Y-127750000D02*
X117750000Y-127750000D01*
%TO.N,Net-(A1-Pad6)*%
X126200000Y-132500000D02*
X123572000Y-135128000D01*
X114122000Y-135128000D02*
X112179000Y-137071000D01*
X123572000Y-135128000D02*
X114122000Y-135128000D01*
X78250000Y-144475000D02*
X81349000Y-147574000D01*
X101676000Y-147574000D02*
X108534000Y-140716000D01*
X81349000Y-147574000D02*
X101676000Y-147574000D01*
D26*
%TO.N,Net-(A1-Pad9)*%
X138320000Y-128000000D02*
X133820000Y-132500000D01*
X140250000Y-128000000D02*
X138320000Y-128000000D01*
D27*
%TO.N,+5V*%
X144120000Y-46880000D02*
X144120000Y-45750000D01*
X95408300Y-138191700D02*
X95308300Y-138191700D01*
D26*
X85750000Y-109000000D02*
X95250000Y-109000000D01*
X85710000Y-83500000D02*
X95750000Y-83500000D01*
X85760000Y-58000000D02*
X95500000Y-58000000D01*
X85750000Y-26500000D02*
X90500000Y-26500000D01*
X15158300Y-11108300D02*
X15178700Y-11108300D01*
X15178700Y-11108300D02*
X18287000Y-8000000D01*
X18287000Y-8000000D02*
X40500000Y-8000000D01*
D27*
X120842700Y-11108300D02*
X123951000Y-8000000D01*
X120825000Y-11108300D02*
X120842700Y-11108300D01*
D26*
X123951000Y-8000000D02*
X146500000Y-8000000D01*
X120500000Y-8000000D02*
X123951000Y-8000000D01*
D27*
X95569700Y-11108300D02*
X98678000Y-8000000D01*
D26*
X98678000Y-8000000D02*
X120500000Y-8000000D01*
D27*
X95408300Y-11108300D02*
X95569700Y-11108300D01*
D26*
X95500000Y-8000000D02*
X98678000Y-8000000D01*
X66107700Y-11108300D02*
X69216000Y-8000000D01*
X65991700Y-11108300D02*
X66107700Y-11108300D01*
X69216000Y-8000000D02*
X95500000Y-8000000D01*
X66000000Y-8000000D02*
X69216000Y-8000000D01*
X40578700Y-11108300D02*
X43687000Y-8000000D01*
X40575000Y-11108300D02*
X40578700Y-11108300D01*
X43687000Y-8000000D02*
X66000000Y-8000000D01*
X40500000Y-8000000D02*
X43687000Y-8000000D01*
X132660000Y-58000000D02*
X131865000Y-58000000D01*
X138160000Y-52500000D02*
X132660000Y-58000000D01*
X121000000Y-58000000D02*
X131865000Y-58000000D01*
X144500000Y-31500000D02*
X149500000Y-36500000D01*
X146507000Y-36525000D02*
X149500000Y-39518000D01*
X146241700Y-36525000D02*
X146507000Y-36525000D01*
X149500000Y-39518000D02*
X149500000Y-60000000D01*
X149500000Y-36500000D02*
X149500000Y-39518000D01*
X120836000Y-36525000D02*
X125861000Y-31500000D01*
X120825000Y-36525000D02*
X120836000Y-36525000D01*
X125861000Y-31500000D02*
X144500000Y-31500000D01*
X121000000Y-31500000D02*
X125861000Y-31500000D01*
X40575000Y-61941700D02*
X40596300Y-61941700D01*
X44538000Y-58000000D02*
X66250000Y-58000000D01*
X40596300Y-61941700D02*
X44538000Y-58000000D01*
X41250000Y-58000000D02*
X44538000Y-58000000D01*
X65996300Y-61941700D02*
X69938000Y-58000000D01*
X65991700Y-61941700D02*
X65996300Y-61941700D01*
X69938000Y-58000000D02*
X85760000Y-58000000D01*
X66250000Y-58000000D02*
X69938000Y-58000000D01*
D27*
X118500000Y-145120000D02*
X121120000Y-147740000D01*
X118500000Y-140500000D02*
X118500000Y-145120000D01*
X120808300Y-138191700D02*
X118500000Y-140500000D01*
X120825000Y-138191700D02*
X120808300Y-138191700D01*
X65991700Y-138191700D02*
X65991700Y-136857700D01*
X65991700Y-136857700D02*
X64770000Y-135636000D01*
X64770000Y-135636000D02*
X63373000Y-135636000D01*
X63373000Y-135636000D02*
X63373000Y-135636000D01*
X40575000Y-138191700D02*
X38227000Y-140539700D01*
X38227000Y-140539700D02*
X38227000Y-142621000D01*
X38227000Y-142621000D02*
X39370000Y-143764000D01*
X47326000Y-143764000D02*
X55500000Y-135590000D01*
X39370000Y-143764000D02*
X47326000Y-143764000D01*
D26*
X146241700Y-36525000D02*
X145847000Y-36525000D01*
X144120000Y-38252000D02*
X144120000Y-45750000D01*
X145847000Y-36525000D02*
X144120000Y-38252000D01*
X144120000Y-45750000D02*
X144120000Y-46540000D01*
X138160000Y-52500000D02*
X139145000Y-51515000D01*
X144120000Y-46540000D02*
X139145000Y-51515000D01*
X139145000Y-51515000D02*
X132660000Y-58000000D01*
X131410000Y-45750000D02*
X138160000Y-52500000D01*
X121250000Y-45750000D02*
X131410000Y-45750000D01*
D27*
X10286000Y-8000000D02*
X5842000Y-3556000D01*
X18287000Y-8000000D02*
X10286000Y-8000000D01*
X143750000Y-142051000D02*
X140551000Y-145250000D01*
D26*
X140551000Y-145250000D02*
X122750000Y-145250000D01*
D27*
X143750000Y-141591000D02*
X143750000Y-142051000D01*
X143750000Y-140250000D02*
X143750000Y-141591000D01*
D26*
X143750000Y-145250000D02*
X140551000Y-145250000D01*
D27*
X95408300Y-139191700D02*
X88423000Y-146177000D01*
X95408300Y-138191700D02*
X95408300Y-139191700D01*
X81952000Y-146177000D02*
X80250000Y-144475000D01*
X88423000Y-146177000D02*
X81952000Y-146177000D01*
%TO.N,Net-(D1-Pad4)*%
X98608300Y-138191700D02*
X95408300Y-141391700D01*
X115925000Y-138191700D02*
X98608300Y-138191700D01*
%TO.N,Net-(D10-Pad4)*%
X141341700Y-95458300D02*
X146241700Y-90558300D01*
X141341700Y-112775000D02*
X141341700Y-95458300D01*
%TO.N,Net-(D10-Pad2)*%
X146241700Y-115975000D02*
X144766700Y-114500000D01*
X144766700Y-114500000D02*
X119500000Y-114500000D01*
X117775000Y-112775000D02*
X115925000Y-112775000D01*
X119500000Y-114500000D02*
X117775000Y-112775000D01*
%TO.N,Net-(D35-Pad2)*%
X78250000Y-133750000D02*
X80753000Y-133750000D01*
X78250000Y-119750000D02*
X80772000Y-119761000D01*
X80772000Y-119761000D02*
X80761000Y-119750000D01*
X78250000Y-105750000D02*
X80731000Y-105750000D01*
X78250000Y-91750000D02*
X80716000Y-91750000D01*
X78250000Y-77750000D02*
X80746000Y-77750000D01*
X78250000Y-63750000D02*
X80641000Y-63750000D01*
X78232000Y-21768000D02*
X78250000Y-21750000D01*
X78232000Y-24257000D02*
X78232000Y-21768000D01*
X78250000Y-35750000D02*
X78295000Y-35750000D01*
X78295000Y-35750000D02*
X80772000Y-38227000D01*
X80772000Y-38227000D02*
X80772000Y-38227000D01*
X78250000Y-49750000D02*
X78325000Y-49750000D01*
X78325000Y-49750000D02*
X80772000Y-52197000D01*
X80772000Y-52197000D02*
X80772000Y-52197000D01*
%TO.N,Net-(D0-Pad4)*%
X124025000Y-138191700D02*
X120825000Y-141391700D01*
X141341700Y-138191700D02*
X124025000Y-138191700D01*
D26*
%TO.N,Net-(D0-Pad2)*%
X152750000Y-129750000D02*
X151000000Y-128000000D01*
X146241700Y-141097300D02*
X152750000Y-134589000D01*
X146241700Y-141391700D02*
X146241700Y-141097300D01*
X152750000Y-134589000D02*
X152750000Y-129750000D01*
D27*
%TO.N,Net-(D2-Pad4)*%
X69191700Y-138191700D02*
X65991700Y-141391700D01*
X90508300Y-138191700D02*
X69191700Y-138191700D01*
%TO.N,Net-(D3-Pad4)*%
X40575000Y-141391700D02*
X40599300Y-141391700D01*
X40599300Y-141391700D02*
X51991000Y-130000000D01*
X61091700Y-134020700D02*
X57071000Y-130000000D01*
X61091700Y-138191700D02*
X61091700Y-134020700D01*
X51991000Y-130000000D02*
X57071000Y-130000000D01*
%TO.N,Net-(D4-Pad4)*%
X15158300Y-115975000D02*
X17725000Y-115975000D01*
X17725000Y-115975000D02*
X17725000Y-115975000D01*
X35675000Y-138191700D02*
X35675000Y-134925000D01*
X35675000Y-134925000D02*
X35675000Y-134925000D01*
%TO.N,Net-(D5-Pad4)*%
X12775000Y-112775000D02*
X10258300Y-112775000D01*
X14250000Y-114250000D02*
X12775000Y-112775000D01*
X36750000Y-114250000D02*
X14250000Y-114250000D01*
X38475000Y-115975000D02*
X36750000Y-114250000D01*
X40575000Y-115975000D02*
X38475000Y-115975000D01*
%TO.N,Net-(D6-Pad4)*%
X65991700Y-115975000D02*
X64725000Y-115975000D01*
X64725000Y-115975000D02*
X63000000Y-114250000D01*
X63000000Y-114250000D02*
X39500000Y-114250000D01*
X38025000Y-112775000D02*
X35675000Y-112775000D01*
X39500000Y-114250000D02*
X38025000Y-112775000D01*
%TO.N,Net-(D7-Pad4)*%
X63750000Y-112953302D02*
X61270002Y-112953302D01*
X61270002Y-112953302D02*
X61091700Y-112775000D01*
X65046698Y-114250000D02*
X63750000Y-112953302D01*
X91203302Y-114250000D02*
X65046698Y-114250000D01*
X92928302Y-115975000D02*
X91203302Y-114250000D01*
X95408300Y-115975000D02*
X92928302Y-115975000D01*
%TO.N,Net-(D8-Pad4)*%
X118345002Y-115975000D02*
X116620002Y-114250000D01*
X120825000Y-115975000D02*
X118345002Y-115975000D01*
X116620002Y-114250000D02*
X94000000Y-114250000D01*
X92525000Y-112775000D02*
X90508300Y-112775000D01*
X94000000Y-114250000D02*
X92525000Y-112775000D01*
%TO.N,Net-(D11-Pad4)*%
X122874999Y-88508301D02*
X120825000Y-90558300D01*
X140191699Y-88508301D02*
X122874999Y-88508301D01*
X141341700Y-87358300D02*
X140191699Y-88508301D01*
%TO.N,Net-(D12-Pad4)*%
X98608300Y-87358300D02*
X95408300Y-90558300D01*
X115925000Y-87358300D02*
X98608300Y-87358300D01*
%TO.N,Net-(D13-Pad4)*%
X90508300Y-87358300D02*
X89150000Y-86000000D01*
X70550000Y-86000000D02*
X65991700Y-90558300D01*
X89150000Y-86000000D02*
X70550000Y-86000000D01*
%TO.N,Net-(D14-Pad4)*%
X43775000Y-87358300D02*
X40575000Y-90558300D01*
X61091700Y-87358300D02*
X43775000Y-87358300D01*
%TO.N,Net-(D15-Pad4)*%
X18358300Y-87358300D02*
X15158300Y-90558300D01*
X35675000Y-87358300D02*
X18358300Y-87358300D01*
%TO.N,Net-(D16-Pad4)*%
X15158300Y-82458300D02*
X15158300Y-65141700D01*
X10258300Y-87358300D02*
X15158300Y-82458300D01*
%TO.N,Net-(D17-Pad4)*%
X38095002Y-65141700D02*
X36453302Y-63500000D01*
X40575000Y-65141700D02*
X38095002Y-65141700D01*
X11816600Y-63500000D02*
X10258300Y-61941700D01*
X36453302Y-63500000D02*
X11816600Y-63500000D01*
%TO.N,Net-(D18-Pad4)*%
X65991700Y-65141700D02*
X64391700Y-65141700D01*
X64391700Y-65141700D02*
X62500000Y-63250000D01*
X62500000Y-63250000D02*
X38500000Y-63250000D01*
X37191700Y-61941700D02*
X35675000Y-61941700D01*
X38500000Y-63250000D02*
X37191700Y-61941700D01*
%TO.N,Net-(D19-Pad4)*%
X95408300Y-65141700D02*
X93891700Y-65141700D01*
X85545701Y-63991699D02*
X80804002Y-59250000D01*
X92741699Y-63991699D02*
X85545701Y-63991699D01*
X93891700Y-65141700D02*
X92741699Y-63991699D01*
X80804002Y-59250000D02*
X71500000Y-59250000D01*
X71500000Y-59250000D02*
X67658299Y-63091701D01*
X67658299Y-63091701D02*
X63841701Y-63091701D01*
X62691700Y-61941700D02*
X61091700Y-61941700D01*
X63841701Y-63091701D02*
X62691700Y-61941700D01*
%TO.N,Net-(D20-Pad4)*%
X118345002Y-65141700D02*
X116703302Y-63500000D01*
X120825000Y-65141700D02*
X118345002Y-65141700D01*
X116703302Y-63500000D02*
X94500000Y-63500000D01*
X92941700Y-61941700D02*
X90508300Y-61941700D01*
X94500000Y-63500000D02*
X92941700Y-61941700D01*
%TO.N,Net-(D21-Pad4)*%
X146241700Y-65141700D02*
X144600000Y-63500000D01*
X144600000Y-63500000D02*
X119500000Y-63500000D01*
X117941700Y-61941700D02*
X115925000Y-61941700D01*
X119500000Y-63500000D02*
X117941700Y-61941700D01*
D26*
%TO.N,Net-(D22-Pad4)*%
X146241700Y-57041700D02*
X146241700Y-39725000D01*
X141341700Y-61941700D02*
X146241700Y-57041700D01*
D27*
%TO.N,Net-(D23-Pad4)*%
X138141700Y-39725000D02*
X141341700Y-36525000D01*
X120825000Y-39725000D02*
X138141700Y-39725000D01*
%TO.N,Net-(D24-Pad4)*%
X112725000Y-39725000D02*
X115925000Y-36525000D01*
X95408300Y-39725000D02*
X112725000Y-39725000D01*
%TO.N,Net-(D25-Pad4)*%
X90025000Y-36525000D02*
X90508300Y-36525000D01*
X65991700Y-39725000D02*
X66066000Y-39725000D01*
X66066000Y-39725000D02*
X76962000Y-28829000D01*
X82812300Y-28829000D02*
X90508300Y-36525000D01*
X76962000Y-28829000D02*
X82812300Y-28829000D01*
%TO.N,Net-(D26-Pad4)*%
X57891700Y-39725000D02*
X61091700Y-36525000D01*
X40575000Y-39725000D02*
X57891700Y-39725000D01*
%TO.N,Net-(D27-Pad4)*%
X18358300Y-36525000D02*
X15158300Y-39725000D01*
X35675000Y-36525000D02*
X18358300Y-36525000D01*
%TO.N,Net-(D28-Pad4)*%
X10258300Y-19208300D02*
X15158300Y-14308300D01*
X10258300Y-36525000D02*
X10258300Y-19208300D01*
%TO.N,Net-(D29-Pad4)*%
X11408301Y-12258301D02*
X10258300Y-11108300D01*
X36045003Y-12258301D02*
X11408301Y-12258301D01*
X38095002Y-14308300D02*
X36045003Y-12258301D01*
X40575000Y-14308300D02*
X38095002Y-14308300D01*
%TO.N,Net-(D30-Pad4)*%
X36925000Y-11108300D02*
X35675000Y-11108300D01*
X38075001Y-12258301D02*
X36925000Y-11108300D01*
X61461703Y-12258301D02*
X38075001Y-12258301D01*
X63511702Y-14308300D02*
X61461703Y-12258301D01*
X65991700Y-14308300D02*
X63511702Y-14308300D01*
%TO.N,Net-(D31-Pad4)*%
X62341700Y-11108300D02*
X61091700Y-11108300D01*
X63491701Y-12258301D02*
X62341700Y-11108300D01*
X90878303Y-12258301D02*
X63491701Y-12258301D01*
X92928302Y-14308300D02*
X90878303Y-12258301D01*
X95408300Y-14308300D02*
X92928302Y-14308300D01*
%TO.N,Net-(D32-Pad4)*%
X91758300Y-11108300D02*
X90508300Y-11108300D01*
X92908301Y-12258301D02*
X91758300Y-11108300D01*
X116295003Y-12258301D02*
X92908301Y-12258301D01*
X118345002Y-14308300D02*
X116295003Y-12258301D01*
X120825000Y-14308300D02*
X118345002Y-14308300D01*
X118345002Y-14308300D02*
X116609702Y-12573000D01*
%TO.N,Net-(D33-Pad4)*%
X146241700Y-14241700D02*
X144500000Y-12500000D01*
X146241700Y-14308300D02*
X146241700Y-14241700D01*
X144500000Y-12500000D02*
X119000000Y-12500000D01*
X117608300Y-11108300D02*
X115925000Y-11108300D01*
X119000000Y-12500000D02*
X117608300Y-11108300D01*
%TD*%
M02*
