M48
; DRILL file {KiCad (5.1.10)-1} date 08/20/21 16:32:47
; FORMAT={-:-/ absolute / metric / decimal}
; #@! TF.CreationDate,2021-08-20T16:32:47+09:00
; #@! TF.GenerationSoftware,Kicad,Pcbnew,(5.1.10)-1
; #@! TF.FileFunction,Plated,1,2,PTH
FMAT,2
METRIC
T1C0.400
T2C0.550
T3C0.600
T4C0.650
T5C0.700
T6C0.800
T7C1.000
T8C1.050
T9C1.350
%
G90
G05
T1
X17.725Y-115.975
X35.675Y-134.925
X63.373Y-135.636
X78.232Y-24.257
X80.75Y-63.776
X80.75Y-91.716
X80.75Y-105.813
X80.772Y-38.227
X80.772Y-52.197
X80.772Y-77.724
X80.772Y-119.761
X108.534Y-140.716
X112.179Y-137.071
X117.75Y-127.75
X133.563Y-141.392
T2
X76.25Y-144.475
X78.25Y-144.475
X80.25Y-144.475
T3
X80.75Y-133.753
X85.71Y-83.5
X85.75Y-8.0
X85.75Y-26.5
X85.75Y-109.0
X85.76Y-58.0
X100.334Y-16.633
X100.35Y-43.02
X100.35Y-70.01
X100.35Y-119.5
X100.38Y-93.5
T4
X127.45Y-98.75
X133.05Y-98.75
T5
X3.302Y-3.556
X5.842Y-3.556
T6
X19.5Y-5.0
X29.66Y-5.0
X128.0Y-52.5
X138.16Y-52.5
X140.25Y-128.0
X150.41Y-128.0
T7
X55.5Y-133.05
X55.5Y-135.59
X55.5Y-138.13
X55.5Y-140.67
X55.5Y-143.21
X55.5Y-145.75
X113.5Y-132.5
X113.5Y-147.74
X113.63Y-45.75
X116.04Y-132.5
X116.04Y-147.74
X116.17Y-45.75
X118.58Y-132.5
X118.58Y-147.74
X118.71Y-45.75
X121.12Y-132.5
X121.12Y-147.74
X121.25Y-45.75
X123.66Y-132.5
X123.66Y-147.74
X126.2Y-132.5
X126.2Y-147.74
X128.74Y-132.5
X128.74Y-147.74
X131.28Y-132.5
X131.28Y-147.74
X133.82Y-132.5
X133.82Y-147.74
X136.36Y-132.5
X136.36Y-147.74
X136.5Y-45.75
X138.9Y-132.5
X138.9Y-147.74
X139.04Y-45.75
X141.44Y-132.5
X141.44Y-147.74
X141.58Y-45.75
X143.98Y-132.5
X143.98Y-147.74
X144.12Y-45.75
X146.52Y-132.5
X146.52Y-147.74
X149.06Y-132.5
X149.06Y-147.74
T8
X154.25Y-91.75
X154.25Y-96.25
X154.25Y-107.5
X154.25Y-112.0
X154.25Y-117.0
X154.25Y-121.5
T9
X151.75Y-90.5
X151.75Y-97.5
X151.75Y-106.25
X151.75Y-113.25
X151.75Y-115.75
X151.75Y-122.75
T0
M30
