%TF.GenerationSoftware,KiCad,Pcbnew,(5.1.10)-1*%
%TF.CreationDate,2021-08-20T16:32:08+09:00*%
%TF.ProjectId,hanClock,68616e43-6c6f-4636-9b2e-6b696361645f,rev?*%
%TF.SameCoordinates,Original*%
%TF.FileFunction,Soldermask,Top*%
%TF.FilePolarity,Negative*%
%FSLAX46Y46*%
G04 Gerber Fmt 4.6, Leading zero omitted, Abs format (unit mm)*
G04 Created by KiCad (PCBNEW (5.1.10)-1) date 2021-08-20 16:32:08*
%MOMM*%
%LPD*%
G01*
G04 APERTURE LIST*
%ADD10R,1.500000X1.500000*%
%ADD11C,1.000000*%
%ADD12C,1.500000*%
%ADD13C,1.200000*%
%ADD14R,1.700000X1.700000*%
%ADD15O,1.700000X1.700000*%
%ADD16C,1.700000*%
%ADD17O,1.600000X1.600000*%
%ADD18C,1.600000*%
%ADD19R,1.500000X1.000000*%
%ADD20R,1.600000X1.600000*%
%ADD21O,1.400000X1.400000*%
%ADD22C,1.400000*%
%ADD23R,2.000000X1.500000*%
G04 APERTURE END LIST*
D10*
%TO.C,D36*%
X78250000Y-32750000D03*
X78250000Y-35750000D03*
%TD*%
%TO.C,D43*%
X78250000Y-130750000D03*
X78250000Y-133750000D03*
%TD*%
%TO.C,D35*%
X78250000Y-18750000D03*
X78250000Y-21750000D03*
%TD*%
%TO.C,D37*%
X78250000Y-46750000D03*
X78250000Y-49750000D03*
%TD*%
%TO.C,D38*%
X78250000Y-60750000D03*
X78250000Y-63750000D03*
%TD*%
%TO.C,D39*%
X78250000Y-74750000D03*
X78250000Y-77750000D03*
%TD*%
%TO.C,D40*%
X78250000Y-88750000D03*
X78250000Y-91750000D03*
%TD*%
%TO.C,D41*%
X78250000Y-102750000D03*
X78250000Y-105750000D03*
%TD*%
%TO.C,D42*%
X78250000Y-116750000D03*
X78250000Y-119750000D03*
%TD*%
D11*
%TO.C,Q1*%
X76250000Y-144475000D03*
X78250000Y-144475000D03*
X80250000Y-144475000D03*
%TD*%
D12*
%TO.C,SW2*%
X151750000Y-122750000D03*
X151750000Y-115750000D03*
D13*
X154250000Y-121500000D03*
X154250000Y-117000000D03*
%TD*%
D14*
%TO.C,J2*%
X55500000Y-133050000D03*
D15*
X55500000Y-135590000D03*
X55500000Y-138130000D03*
X55500000Y-140670000D03*
X55500000Y-143210000D03*
D16*
X55500000Y-145750000D03*
%TD*%
D14*
%TO.C,J1*%
X144120000Y-45750000D03*
D15*
X141580000Y-45750000D03*
X139040000Y-45750000D03*
D16*
X136500000Y-45750000D03*
%TD*%
D17*
%TO.C,R1*%
X150410000Y-128000000D03*
D18*
X140250000Y-128000000D03*
%TD*%
D17*
%TO.C,R2*%
X29660000Y-5000000D03*
D18*
X19500000Y-5000000D03*
%TD*%
D17*
%TO.C,R3*%
X138160000Y-52500000D03*
D18*
X128000000Y-52500000D03*
%TD*%
D19*
%TO.C,D33*%
X115925000Y-11108300D03*
X115925000Y-14308300D03*
X120825000Y-11108300D03*
X120825000Y-14308300D03*
%TD*%
%TO.C,D32*%
X90508300Y-11108300D03*
X90508300Y-14308300D03*
X95408300Y-11108300D03*
X95408300Y-14308300D03*
%TD*%
%TO.C,D31*%
X61091700Y-11108300D03*
X61091700Y-14308300D03*
X65991700Y-11108300D03*
X65991700Y-14308300D03*
%TD*%
%TO.C,D30*%
X35675000Y-11108300D03*
X35675000Y-14308300D03*
X40575000Y-11108300D03*
X40575000Y-14308300D03*
%TD*%
%TO.C,D29*%
X10258300Y-11108300D03*
X10258300Y-14308300D03*
X15158300Y-11108300D03*
X15158300Y-14308300D03*
%TD*%
%TO.C,D28*%
X10258300Y-36525000D03*
X10258300Y-39725000D03*
X15158300Y-36525000D03*
X15158300Y-39725000D03*
%TD*%
%TO.C,D27*%
X35675000Y-36525000D03*
X35675000Y-39725000D03*
X40575000Y-36525000D03*
X40575000Y-39725000D03*
%TD*%
%TO.C,D26*%
X61091700Y-36525000D03*
X61091700Y-39725000D03*
X65991700Y-36525000D03*
X65991700Y-39725000D03*
%TD*%
%TO.C,D25*%
X90508300Y-36525000D03*
X90508300Y-39725000D03*
X95408300Y-36525000D03*
X95408300Y-39725000D03*
%TD*%
%TO.C,D24*%
X115925000Y-36525000D03*
X115925000Y-39725000D03*
X120825000Y-36525000D03*
X120825000Y-39725000D03*
%TD*%
%TO.C,D23*%
X141341700Y-36525000D03*
X141341700Y-39725000D03*
X146241700Y-36525000D03*
X146241700Y-39725000D03*
%TD*%
%TO.C,D22*%
X141341700Y-61941700D03*
X141341700Y-65141700D03*
X146241700Y-61941700D03*
X146241700Y-65141700D03*
%TD*%
%TO.C,D21*%
X115925000Y-61941700D03*
X115925000Y-65141700D03*
X120825000Y-61941700D03*
X120825000Y-65141700D03*
%TD*%
%TO.C,D20*%
X90508300Y-61941700D03*
X90508300Y-65141700D03*
X95408300Y-61941700D03*
X95408300Y-65141700D03*
%TD*%
%TO.C,D19*%
X61091700Y-61941700D03*
X61091700Y-65141700D03*
X65991700Y-61941700D03*
X65991700Y-65141700D03*
%TD*%
%TO.C,D18*%
X35675000Y-61941700D03*
X35675000Y-65141700D03*
X40575000Y-61941700D03*
X40575000Y-65141700D03*
%TD*%
%TO.C,D17*%
X10258300Y-61941700D03*
X10258300Y-65141700D03*
X15158300Y-61941700D03*
X15158300Y-65141700D03*
%TD*%
%TO.C,D16*%
X10258300Y-87358300D03*
X10258300Y-90558300D03*
X15158300Y-87358300D03*
X15158300Y-90558300D03*
%TD*%
%TO.C,D15*%
X35675000Y-87358300D03*
X35675000Y-90558300D03*
X40575000Y-87358300D03*
X40575000Y-90558300D03*
%TD*%
%TO.C,D14*%
X61091700Y-87358300D03*
X61091700Y-90558300D03*
X65991700Y-87358300D03*
X65991700Y-90558300D03*
%TD*%
%TO.C,D13*%
X90508300Y-87358300D03*
X90508300Y-90558300D03*
X95408300Y-87358300D03*
X95408300Y-90558300D03*
%TD*%
%TO.C,D12*%
X115925000Y-87358300D03*
X115925000Y-90558300D03*
X120825000Y-87358300D03*
X120825000Y-90558300D03*
%TD*%
%TO.C,D11*%
X141341700Y-87358300D03*
X141341700Y-90558300D03*
X146241700Y-87358300D03*
X146241700Y-90558300D03*
%TD*%
%TO.C,D10*%
X141341700Y-112775000D03*
X141341700Y-115975000D03*
X146241700Y-112775000D03*
X146241700Y-115975000D03*
%TD*%
%TO.C,D9*%
X115925000Y-112775000D03*
X115925000Y-115975000D03*
X120825000Y-112775000D03*
X120825000Y-115975000D03*
%TD*%
%TO.C,D8*%
X90508300Y-112775000D03*
X90508300Y-115975000D03*
X95408300Y-112775000D03*
X95408300Y-115975000D03*
%TD*%
%TO.C,D7*%
X61091700Y-112775000D03*
X61091700Y-115975000D03*
X65991700Y-112775000D03*
X65991700Y-115975000D03*
%TD*%
%TO.C,D6*%
X35675000Y-112775000D03*
X35675000Y-115975000D03*
X40575000Y-112775000D03*
X40575000Y-115975000D03*
%TD*%
%TO.C,D5*%
X10258300Y-112775000D03*
X10258300Y-115975000D03*
X15158300Y-112775000D03*
X15158300Y-115975000D03*
%TD*%
%TO.C,D4*%
X35675000Y-138191700D03*
X35675000Y-141391700D03*
X40575000Y-138191700D03*
X40575000Y-141391700D03*
%TD*%
%TO.C,D3*%
X61091700Y-138191700D03*
X61091700Y-141391700D03*
X65991700Y-138191700D03*
X65991700Y-141391700D03*
%TD*%
%TO.C,D2*%
X90508300Y-138191700D03*
X90508300Y-141391700D03*
X95408300Y-138191700D03*
X95408300Y-141391700D03*
%TD*%
%TO.C,D1*%
X115925000Y-138191700D03*
X115925000Y-141391700D03*
X120825000Y-138191700D03*
X120825000Y-141391700D03*
%TD*%
%TO.C,D0*%
X141341700Y-138191700D03*
X141341700Y-141391700D03*
X146241700Y-138191700D03*
X146241700Y-141391700D03*
%TD*%
%TO.C,D34*%
X141341700Y-11108300D03*
X141341700Y-14308300D03*
X146241700Y-11108300D03*
X146241700Y-14308300D03*
%TD*%
D17*
%TO.C,A1*%
X149060000Y-147740000D03*
X149060000Y-132500000D03*
X113500000Y-147740000D03*
X146520000Y-132500000D03*
X116040000Y-147740000D03*
X143980000Y-132500000D03*
X118580000Y-147740000D03*
X141440000Y-132500000D03*
X121120000Y-147740000D03*
X138900000Y-132500000D03*
X123660000Y-147740000D03*
X136360000Y-132500000D03*
X126200000Y-147740000D03*
X133820000Y-132500000D03*
X128740000Y-147740000D03*
X131280000Y-132500000D03*
X131280000Y-147740000D03*
X128740000Y-132500000D03*
X133820000Y-147740000D03*
X126200000Y-132500000D03*
X136360000Y-147740000D03*
X123660000Y-132500000D03*
X138900000Y-147740000D03*
X121120000Y-132500000D03*
X141440000Y-147740000D03*
X118580000Y-132500000D03*
X143980000Y-147740000D03*
X116040000Y-132500000D03*
X146520000Y-147740000D03*
D20*
X113500000Y-132500000D03*
%TD*%
D13*
%TO.C,BZ1*%
X133050000Y-98750000D03*
X127450000Y-98750000D03*
%TD*%
D21*
%TO.C,R4*%
X3302000Y-3556000D03*
D22*
X5842000Y-3556000D03*
%TD*%
D23*
%TO.C,SW1*%
X19958300Y-142291700D03*
X19958300Y-137291700D03*
X5458300Y-142291700D03*
X5458300Y-137291700D03*
%TD*%
D12*
%TO.C,SW3*%
X151750000Y-113250000D03*
X151750000Y-106250000D03*
D13*
X154250000Y-112000000D03*
X154250000Y-107500000D03*
%TD*%
D12*
%TO.C,SW4*%
X151750000Y-97500000D03*
X151750000Y-90500000D03*
D13*
X154250000Y-96250000D03*
X154250000Y-91750000D03*
%TD*%
D14*
%TO.C,J3*%
X121250000Y-45750000D03*
D15*
X118710000Y-45750000D03*
X116170000Y-45750000D03*
X113630000Y-45750000D03*
%TD*%
M02*
