M48
; DRILL file {KiCad (5.1.10)-1} date 09/15/21 07:53:14
; FORMAT={-:-/ absolute / metric / decimal}
; #@! TF.CreationDate,2021-09-15T07:53:14+09:00
; #@! TF.GenerationSoftware,Kicad,Pcbnew,(5.1.10)-1
; #@! TF.FileFunction,Plated,1,2,PTH
FMAT,2
METRIC
T1C0.400
T2C0.550
T3C0.600
T4C0.650
T5C0.700
T6C0.800
T7C1.000
T8C1.050
T9C1.350
%
G90
G05
T1
X76.25Y-21.95
X76.25Y-35.75
X76.25Y-49.75
X76.25Y-63.75
X76.25Y-77.75
X76.25Y-91.75
X76.25Y-105.75
X76.25Y-119.75
X76.25Y-133.75
X80.6Y-146.2
X95.9Y-31.4
X124.9Y-72.5
T2
X76.25Y-138.325
X78.25Y-138.325
X80.25Y-138.325
T3
X29.5Y-25.1
X94.3Y-144.0
X108.9Y-135.6
T4
X127.45Y-98.75
X133.05Y-98.75
T5
X3.302Y-3.556
X5.842Y-3.556
T6
X10.6Y-3.5
X20.76Y-3.5
X88.3Y-123.7
X88.3Y-133.86
X134.0Y-52.2
X141.4Y-128.5
X144.16Y-52.2
X151.56Y-128.5
T7
X55.5Y-133.05
X55.5Y-135.59
X55.5Y-138.13
X55.5Y-140.67
X55.5Y-143.21
X55.5Y-145.75
X113.63Y-45.75
X116.17Y-45.75
X116.5Y-132.5
X116.5Y-147.74
X118.71Y-45.75
X119.04Y-132.5
X119.04Y-147.74
X121.25Y-45.75
X121.58Y-132.5
X121.58Y-147.74
X124.12Y-132.5
X124.12Y-147.74
X126.66Y-132.5
X126.66Y-147.74
X129.2Y-132.5
X129.2Y-147.74
X131.74Y-132.5
X131.74Y-147.74
X134.28Y-132.5
X134.28Y-147.74
X136.5Y-45.75
X136.82Y-132.5
X136.82Y-147.74
X139.04Y-45.75
X139.36Y-132.5
X139.36Y-147.74
X141.58Y-45.75
X141.9Y-132.5
X141.9Y-147.74
X144.12Y-45.75
X144.44Y-132.5
X144.44Y-147.74
X146.98Y-132.5
X146.98Y-147.74
X149.52Y-132.5
X149.52Y-147.74
X152.06Y-132.5
X152.06Y-147.74
T8
X154.25Y-91.75
X154.25Y-96.25
X154.25Y-107.5
X154.25Y-112.0
X154.25Y-117.0
X154.25Y-121.5
T9
X151.75Y-90.5
X151.75Y-97.5
X151.75Y-106.25
X151.75Y-113.25
X151.75Y-115.75
X151.75Y-122.75
T0
M30
