%TF.GenerationSoftware,KiCad,Pcbnew,(5.1.10)-1*%
%TF.CreationDate,2021-09-15T07:53:09+09:00*%
%TF.ProjectId,hanClock,68616e43-6c6f-4636-9b2e-6b696361645f,rev?*%
%TF.SameCoordinates,Original*%
%TF.FileFunction,Copper,L1,Top*%
%TF.FilePolarity,Positive*%
%FSLAX46Y46*%
G04 Gerber Fmt 4.6, Leading zero omitted, Abs format (unit mm)*
G04 Created by KiCad (PCBNEW (5.1.10)-1) date 2021-09-15 07:53:10*
%MOMM*%
%LPD*%
G01*
G04 APERTURE LIST*
%TA.AperFunction,ComponentPad*%
%ADD10O,1.600000X1.600000*%
%TD*%
%TA.AperFunction,ComponentPad*%
%ADD11C,1.600000*%
%TD*%
%TA.AperFunction,ComponentPad*%
%ADD12C,1.500000*%
%TD*%
%TA.AperFunction,ComponentPad*%
%ADD13C,1.200000*%
%TD*%
%TA.AperFunction,SMDPad,CuDef*%
%ADD14R,1.000000X1.500000*%
%TD*%
%TA.AperFunction,SMDPad,CuDef*%
%ADD15R,1.500000X1.500000*%
%TD*%
%TA.AperFunction,ComponentPad*%
%ADD16R,1.600000X1.600000*%
%TD*%
%TA.AperFunction,ComponentPad*%
%ADD17R,1.700000X1.700000*%
%TD*%
%TA.AperFunction,ComponentPad*%
%ADD18O,1.700000X1.700000*%
%TD*%
%TA.AperFunction,ComponentPad*%
%ADD19C,1.700000*%
%TD*%
%TA.AperFunction,ComponentPad*%
%ADD20C,1.000000*%
%TD*%
%TA.AperFunction,ComponentPad*%
%ADD21O,1.400000X1.400000*%
%TD*%
%TA.AperFunction,ComponentPad*%
%ADD22C,1.400000*%
%TD*%
%TA.AperFunction,SMDPad,CuDef*%
%ADD23R,2.000000X1.500000*%
%TD*%
%TA.AperFunction,ViaPad*%
%ADD24C,0.800000*%
%TD*%
%TA.AperFunction,ViaPad*%
%ADD25C,1.200000*%
%TD*%
%TA.AperFunction,Conductor*%
%ADD26C,0.800000*%
%TD*%
%TA.AperFunction,Conductor*%
%ADD27C,0.500000*%
%TD*%
%TA.AperFunction,Conductor*%
%ADD28C,0.400000*%
%TD*%
G04 APERTURE END LIST*
D10*
%TO.P,R14,2*%
%TO.N,Net-(Q1-Pad2)*%
X88300000Y-133860000D03*
D11*
%TO.P,R14,1*%
%TO.N,Net-(A1-Pad6)*%
X88300000Y-123700000D03*
%TD*%
D12*
%TO.P,SW3,*%
%TO.N,*%
X151750000Y-113250000D03*
X151750000Y-106250000D03*
D13*
%TO.P,SW3,2*%
%TO.N,GND*%
X154250000Y-112000000D03*
%TO.P,SW3,1*%
%TO.N,Net-(A1-Pad13)*%
X154250000Y-107500000D03*
%TD*%
D14*
%TO.P,D24,3*%
%TO.N,+5V*%
X119975000Y-35675000D03*
%TO.P,D24,4*%
%TO.N,Net-(D24-Pad4)*%
X116775000Y-35675000D03*
%TO.P,D24,2*%
%TO.N,Net-(D23-Pad4)*%
X119975000Y-40575000D03*
%TO.P,D24,1*%
%TO.N,GND*%
X116775000Y-40575000D03*
%TD*%
D15*
%TO.P,D42,1*%
%TO.N,Net-(D42-Pad1)*%
X78250000Y-116750000D03*
%TO.P,D42,2*%
%TO.N,Net-(D35-Pad2)*%
X78250000Y-119750000D03*
%TD*%
D10*
%TO.P,A1,16*%
%TO.N,Net-(A1-Pad16)*%
X152060000Y-147740000D03*
%TO.P,A1,15*%
%TO.N,Net-(A1-Pad15)*%
X152060000Y-132500000D03*
%TO.P,A1,30*%
%TO.N,Net-(A1-Pad30)*%
X116500000Y-147740000D03*
%TO.P,A1,14*%
%TO.N,Net-(A1-Pad14)*%
X149520000Y-132500000D03*
%TO.P,A1,29*%
%TO.N,GND*%
X119040000Y-147740000D03*
%TO.P,A1,13*%
%TO.N,Net-(A1-Pad13)*%
X146980000Y-132500000D03*
%TO.P,A1,28*%
%TO.N,Net-(A1-Pad28)*%
X121580000Y-147740000D03*
%TO.P,A1,12*%
%TO.N,Net-(A1-Pad12)*%
X144440000Y-132500000D03*
%TO.P,A1,27*%
%TO.N,+5V*%
X124120000Y-147740000D03*
%TO.P,A1,11*%
%TO.N,Net-(A1-Pad11)*%
X141900000Y-132500000D03*
%TO.P,A1,26*%
%TO.N,Net-(A1-Pad26)*%
X126660000Y-147740000D03*
%TO.P,A1,10*%
%TO.N,Net-(A1-Pad10)*%
X139360000Y-132500000D03*
%TO.P,A1,25*%
%TO.N,Net-(A1-Pad25)*%
X129200000Y-147740000D03*
%TO.P,A1,9*%
%TO.N,Net-(A1-Pad9)*%
X136820000Y-132500000D03*
%TO.P,A1,24*%
%TO.N,Net-(A1-Pad24)*%
X131740000Y-147740000D03*
%TO.P,A1,8*%
%TO.N,Net-(A1-Pad8)*%
X134280000Y-132500000D03*
%TO.P,A1,23*%
%TO.N,Net-(A1-Pad23)*%
X134280000Y-147740000D03*
%TO.P,A1,7*%
%TO.N,Net-(A1-Pad7)*%
X131740000Y-132500000D03*
%TO.P,A1,22*%
%TO.N,Net-(A1-Pad22)*%
X136820000Y-147740000D03*
%TO.P,A1,6*%
%TO.N,Net-(A1-Pad6)*%
X129200000Y-132500000D03*
%TO.P,A1,21*%
%TO.N,Net-(A1-Pad21)*%
X139360000Y-147740000D03*
%TO.P,A1,5*%
%TO.N,Net-(A1-Pad5)*%
X126660000Y-132500000D03*
%TO.P,A1,20*%
%TO.N,Net-(A1-Pad20)*%
X141900000Y-147740000D03*
%TO.P,A1,4*%
%TO.N,GND*%
X124120000Y-132500000D03*
%TO.P,A1,19*%
%TO.N,Net-(A1-Pad19)*%
X144440000Y-147740000D03*
%TO.P,A1,3*%
%TO.N,Net-(A1-Pad3)*%
X121580000Y-132500000D03*
%TO.P,A1,18*%
%TO.N,Net-(A1-Pad18)*%
X146980000Y-147740000D03*
%TO.P,A1,2*%
%TO.N,Net-(A1-Pad2)*%
X119040000Y-132500000D03*
%TO.P,A1,17*%
%TO.N,Net-(A1-Pad17)*%
X149520000Y-147740000D03*
D16*
%TO.P,A1,1*%
%TO.N,Net-(A1-Pad1)*%
X116500000Y-132500000D03*
%TD*%
D14*
%TO.P,D30,3*%
%TO.N,+5V*%
X36525000Y-15158300D03*
%TO.P,D30,4*%
%TO.N,Net-(D30-Pad4)*%
X39725000Y-15158300D03*
%TO.P,D30,2*%
%TO.N,Net-(D29-Pad4)*%
X36525000Y-10258300D03*
%TO.P,D30,1*%
%TO.N,GND*%
X39725000Y-10258300D03*
%TD*%
D17*
%TO.P,J1,1*%
%TO.N,+5V*%
X144120000Y-45750000D03*
D18*
%TO.P,J1,2*%
%TO.N,Net-(A1-Pad11)*%
X141580000Y-45750000D03*
%TO.P,J1,3*%
%TO.N,Net-(J1-Pad3)*%
X139040000Y-45750000D03*
D19*
%TO.P,J1,4*%
%TO.N,GND*%
X136500000Y-45750000D03*
%TD*%
D14*
%TO.P,D33,3*%
%TO.N,+5V*%
X116775000Y-15158300D03*
%TO.P,D33,4*%
%TO.N,Net-(D33-Pad4)*%
X119975000Y-15158300D03*
%TO.P,D33,2*%
%TO.N,Net-(D32-Pad4)*%
X116775000Y-10258300D03*
%TO.P,D33,1*%
%TO.N,GND*%
X119975000Y-10258300D03*
%TD*%
%TO.P,D32,3*%
%TO.N,+5V*%
X91358300Y-15158300D03*
%TO.P,D32,4*%
%TO.N,Net-(D32-Pad4)*%
X94558300Y-15158300D03*
%TO.P,D32,2*%
%TO.N,Net-(D31-Pad4)*%
X91358300Y-10258300D03*
%TO.P,D32,1*%
%TO.N,GND*%
X94558300Y-10258300D03*
%TD*%
%TO.P,D31,3*%
%TO.N,+5V*%
X61941700Y-15158300D03*
%TO.P,D31,4*%
%TO.N,Net-(D31-Pad4)*%
X65141700Y-15158300D03*
%TO.P,D31,2*%
%TO.N,Net-(D30-Pad4)*%
X61941700Y-10258300D03*
%TO.P,D31,1*%
%TO.N,GND*%
X65141700Y-10258300D03*
%TD*%
%TO.P,D29,3*%
%TO.N,+5V*%
X11108300Y-15158300D03*
%TO.P,D29,4*%
%TO.N,Net-(D29-Pad4)*%
X14308300Y-15158300D03*
%TO.P,D29,2*%
%TO.N,Net-(D28-Pad4)*%
X11108300Y-10258300D03*
%TO.P,D29,1*%
%TO.N,GND*%
X14308300Y-10258300D03*
%TD*%
%TO.P,D28,3*%
%TO.N,+5V*%
X14308300Y-35675000D03*
%TO.P,D28,4*%
%TO.N,Net-(D28-Pad4)*%
X11108300Y-35675000D03*
%TO.P,D28,2*%
%TO.N,Net-(D27-Pad4)*%
X14308300Y-40575000D03*
%TO.P,D28,1*%
%TO.N,GND*%
X11108300Y-40575000D03*
%TD*%
%TO.P,D27,3*%
%TO.N,+5V*%
X39725000Y-35675000D03*
%TO.P,D27,4*%
%TO.N,Net-(D27-Pad4)*%
X36525000Y-35675000D03*
%TO.P,D27,2*%
%TO.N,Net-(D26-Pad4)*%
X39725000Y-40575000D03*
%TO.P,D27,1*%
%TO.N,GND*%
X36525000Y-40575000D03*
%TD*%
%TO.P,D26,3*%
%TO.N,+5V*%
X65141700Y-35675000D03*
%TO.P,D26,4*%
%TO.N,Net-(D26-Pad4)*%
X61941700Y-35675000D03*
%TO.P,D26,2*%
%TO.N,Net-(D25-Pad4)*%
X65141700Y-40575000D03*
%TO.P,D26,1*%
%TO.N,GND*%
X61941700Y-40575000D03*
%TD*%
%TO.P,D25,3*%
%TO.N,+5V*%
X94558300Y-35675000D03*
%TO.P,D25,4*%
%TO.N,Net-(D25-Pad4)*%
X91358300Y-35675000D03*
%TO.P,D25,2*%
%TO.N,Net-(D24-Pad4)*%
X94558300Y-40575000D03*
%TO.P,D25,1*%
%TO.N,GND*%
X91358300Y-40575000D03*
%TD*%
%TO.P,D23,3*%
%TO.N,+5V*%
X145391700Y-35675000D03*
%TO.P,D23,4*%
%TO.N,Net-(D23-Pad4)*%
X142191700Y-35675000D03*
%TO.P,D23,2*%
%TO.N,Net-(D22-Pad4)*%
X145391700Y-40575000D03*
%TO.P,D23,1*%
%TO.N,GND*%
X142191700Y-40575000D03*
%TD*%
%TO.P,D22,3*%
%TO.N,+5V*%
X142191700Y-65991700D03*
%TO.P,D22,4*%
%TO.N,Net-(D22-Pad4)*%
X145391700Y-65991700D03*
%TO.P,D22,2*%
%TO.N,Net-(D21-Pad4)*%
X142191700Y-61091700D03*
%TO.P,D22,1*%
%TO.N,GND*%
X145391700Y-61091700D03*
%TD*%
%TO.P,D21,3*%
%TO.N,+5V*%
X116775000Y-65991700D03*
%TO.P,D21,4*%
%TO.N,Net-(D21-Pad4)*%
X119975000Y-65991700D03*
%TO.P,D21,2*%
%TO.N,Net-(D20-Pad4)*%
X116775000Y-61091700D03*
%TO.P,D21,1*%
%TO.N,GND*%
X119975000Y-61091700D03*
%TD*%
%TO.P,D20,3*%
%TO.N,+5V*%
X91358300Y-65991700D03*
%TO.P,D20,4*%
%TO.N,Net-(D20-Pad4)*%
X94558300Y-65991700D03*
%TO.P,D20,2*%
%TO.N,Net-(D19-Pad4)*%
X91358300Y-61091700D03*
%TO.P,D20,1*%
%TO.N,GND*%
X94558300Y-61091700D03*
%TD*%
%TO.P,D19,3*%
%TO.N,+5V*%
X61941700Y-65991700D03*
%TO.P,D19,4*%
%TO.N,Net-(D19-Pad4)*%
X65141700Y-65991700D03*
%TO.P,D19,2*%
%TO.N,Net-(D18-Pad4)*%
X61941700Y-61091700D03*
%TO.P,D19,1*%
%TO.N,GND*%
X65141700Y-61091700D03*
%TD*%
%TO.P,D18,3*%
%TO.N,+5V*%
X36525000Y-65991700D03*
%TO.P,D18,4*%
%TO.N,Net-(D18-Pad4)*%
X39725000Y-65991700D03*
%TO.P,D18,2*%
%TO.N,Net-(D17-Pad4)*%
X36525000Y-61091700D03*
%TO.P,D18,1*%
%TO.N,GND*%
X39725000Y-61091700D03*
%TD*%
%TO.P,D17,3*%
%TO.N,+5V*%
X11108300Y-65991700D03*
%TO.P,D17,4*%
%TO.N,Net-(D17-Pad4)*%
X14308300Y-65991700D03*
%TO.P,D17,2*%
%TO.N,Net-(D16-Pad4)*%
X11108300Y-61091700D03*
%TO.P,D17,1*%
%TO.N,GND*%
X14308300Y-61091700D03*
%TD*%
%TO.P,D16,3*%
%TO.N,+5V*%
X14308300Y-86508300D03*
%TO.P,D16,4*%
%TO.N,Net-(D16-Pad4)*%
X11108300Y-86508300D03*
%TO.P,D16,2*%
%TO.N,Net-(D15-Pad4)*%
X14308300Y-91408300D03*
%TO.P,D16,1*%
%TO.N,GND*%
X11108300Y-91408300D03*
%TD*%
%TO.P,D15,3*%
%TO.N,+5V*%
X39725000Y-86508300D03*
%TO.P,D15,4*%
%TO.N,Net-(D15-Pad4)*%
X36525000Y-86508300D03*
%TO.P,D15,2*%
%TO.N,Net-(D14-Pad4)*%
X39725000Y-91408300D03*
%TO.P,D15,1*%
%TO.N,GND*%
X36525000Y-91408300D03*
%TD*%
%TO.P,D14,3*%
%TO.N,+5V*%
X65141700Y-86508300D03*
%TO.P,D14,4*%
%TO.N,Net-(D14-Pad4)*%
X61941700Y-86508300D03*
%TO.P,D14,2*%
%TO.N,Net-(D13-Pad4)*%
X65141700Y-91408300D03*
%TO.P,D14,1*%
%TO.N,GND*%
X61941700Y-91408300D03*
%TD*%
%TO.P,D13,3*%
%TO.N,+5V*%
X94558300Y-86508300D03*
%TO.P,D13,4*%
%TO.N,Net-(D13-Pad4)*%
X91358300Y-86508300D03*
%TO.P,D13,2*%
%TO.N,Net-(D12-Pad4)*%
X94558300Y-91408300D03*
%TO.P,D13,1*%
%TO.N,GND*%
X91358300Y-91408300D03*
%TD*%
%TO.P,D12,3*%
%TO.N,+5V*%
X119975000Y-86508300D03*
%TO.P,D12,4*%
%TO.N,Net-(D12-Pad4)*%
X116775000Y-86508300D03*
%TO.P,D12,2*%
%TO.N,Net-(D11-Pad4)*%
X119975000Y-91408300D03*
%TO.P,D12,1*%
%TO.N,GND*%
X116775000Y-91408300D03*
%TD*%
%TO.P,D11,3*%
%TO.N,+5V*%
X145391700Y-86508300D03*
%TO.P,D11,4*%
%TO.N,Net-(D11-Pad4)*%
X142191700Y-86508300D03*
%TO.P,D11,2*%
%TO.N,Net-(D10-Pad4)*%
X145391700Y-91408300D03*
%TO.P,D11,1*%
%TO.N,GND*%
X142191700Y-91408300D03*
%TD*%
%TO.P,D10,3*%
%TO.N,+5V*%
X142191700Y-116825000D03*
%TO.P,D10,4*%
%TO.N,Net-(D10-Pad4)*%
X145391700Y-116825000D03*
%TO.P,D10,2*%
%TO.N,Net-(D10-Pad2)*%
X142191700Y-111925000D03*
%TO.P,D10,1*%
%TO.N,GND*%
X145391700Y-111925000D03*
%TD*%
%TO.P,D9,3*%
%TO.N,+5V*%
X116775000Y-116825000D03*
%TO.P,D9,4*%
%TO.N,Net-(D10-Pad2)*%
X119975000Y-116825000D03*
%TO.P,D9,2*%
%TO.N,Net-(D8-Pad4)*%
X116775000Y-111925000D03*
%TO.P,D9,1*%
%TO.N,GND*%
X119975000Y-111925000D03*
%TD*%
%TO.P,D8,3*%
%TO.N,+5V*%
X91358300Y-116825000D03*
%TO.P,D8,4*%
%TO.N,Net-(D8-Pad4)*%
X94558300Y-116825000D03*
%TO.P,D8,2*%
%TO.N,Net-(D7-Pad4)*%
X91358300Y-111925000D03*
%TO.P,D8,1*%
%TO.N,GND*%
X94558300Y-111925000D03*
%TD*%
%TO.P,D7,3*%
%TO.N,+5V*%
X61941700Y-116825000D03*
%TO.P,D7,4*%
%TO.N,Net-(D7-Pad4)*%
X65141700Y-116825000D03*
%TO.P,D7,2*%
%TO.N,Net-(D6-Pad4)*%
X61941700Y-111925000D03*
%TO.P,D7,1*%
%TO.N,GND*%
X65141700Y-111925000D03*
%TD*%
%TO.P,D6,3*%
%TO.N,+5V*%
X36525000Y-116825000D03*
%TO.P,D6,4*%
%TO.N,Net-(D6-Pad4)*%
X39725000Y-116825000D03*
%TO.P,D6,2*%
%TO.N,Net-(D5-Pad4)*%
X36525000Y-111925000D03*
%TO.P,D6,1*%
%TO.N,GND*%
X39725000Y-111925000D03*
%TD*%
%TO.P,D5,3*%
%TO.N,+5V*%
X11108300Y-116825000D03*
%TO.P,D5,4*%
%TO.N,Net-(D5-Pad4)*%
X14308300Y-116825000D03*
%TO.P,D5,2*%
%TO.N,Net-(D4-Pad4)*%
X11108300Y-111925000D03*
%TO.P,D5,1*%
%TO.N,GND*%
X14308300Y-111925000D03*
%TD*%
%TO.P,D4,3*%
%TO.N,+5V*%
X39725000Y-137341700D03*
%TO.P,D4,4*%
%TO.N,Net-(D4-Pad4)*%
X36525000Y-137341700D03*
%TO.P,D4,2*%
%TO.N,Net-(D3-Pad4)*%
X39725000Y-142241700D03*
%TO.P,D4,1*%
%TO.N,GND*%
X36525000Y-142241700D03*
%TD*%
%TO.P,D3,3*%
%TO.N,+5V*%
X65141700Y-137341700D03*
%TO.P,D3,4*%
%TO.N,Net-(D3-Pad4)*%
X61941700Y-137341700D03*
%TO.P,D3,2*%
%TO.N,Net-(D2-Pad4)*%
X65141700Y-142241700D03*
%TO.P,D3,1*%
%TO.N,GND*%
X61941700Y-142241700D03*
%TD*%
%TO.P,D2,3*%
%TO.N,+5V*%
X94558300Y-137341700D03*
%TO.P,D2,4*%
%TO.N,Net-(D2-Pad4)*%
X91358300Y-137341700D03*
%TO.P,D2,2*%
%TO.N,Net-(D1-Pad4)*%
X94558300Y-142241700D03*
%TO.P,D2,1*%
%TO.N,GND*%
X91358300Y-142241700D03*
%TD*%
%TO.P,D1,3*%
%TO.N,+5V*%
X119975000Y-137341700D03*
%TO.P,D1,4*%
%TO.N,Net-(D1-Pad4)*%
X116775000Y-137341700D03*
%TO.P,D1,2*%
%TO.N,Net-(D0-Pad4)*%
X119975000Y-142241700D03*
%TO.P,D1,1*%
%TO.N,GND*%
X116775000Y-142241700D03*
%TD*%
%TO.P,D0,3*%
%TO.N,+5V*%
X145391700Y-137341700D03*
%TO.P,D0,4*%
%TO.N,Net-(D0-Pad4)*%
X142191700Y-137341700D03*
%TO.P,D0,2*%
%TO.N,Net-(D0-Pad2)*%
X145391700Y-142241700D03*
%TO.P,D0,1*%
%TO.N,GND*%
X142191700Y-142241700D03*
%TD*%
%TO.P,D34,3*%
%TO.N,+5V*%
X142191700Y-15158300D03*
%TO.P,D34,4*%
%TO.N,Net-(D34-Pad4)*%
X145391700Y-15158300D03*
%TO.P,D34,2*%
%TO.N,Net-(D33-Pad4)*%
X142191700Y-10258300D03*
%TO.P,D34,1*%
%TO.N,GND*%
X145391700Y-10258300D03*
%TD*%
D15*
%TO.P,D36,1*%
%TO.N,Net-(D36-Pad1)*%
X78250000Y-32750000D03*
%TO.P,D36,2*%
%TO.N,Net-(D35-Pad2)*%
X78250000Y-35750000D03*
%TD*%
%TO.P,D43,1*%
%TO.N,Net-(D43-Pad1)*%
X78250000Y-130750000D03*
%TO.P,D43,2*%
%TO.N,Net-(D35-Pad2)*%
X78250000Y-133750000D03*
%TD*%
%TO.P,D35,1*%
%TO.N,Net-(D35-Pad1)*%
X78250000Y-18750000D03*
%TO.P,D35,2*%
%TO.N,Net-(D35-Pad2)*%
X78250000Y-21750000D03*
%TD*%
%TO.P,D37,1*%
%TO.N,Net-(D37-Pad1)*%
X78250000Y-46750000D03*
%TO.P,D37,2*%
%TO.N,Net-(D35-Pad2)*%
X78250000Y-49750000D03*
%TD*%
%TO.P,D38,1*%
%TO.N,Net-(D38-Pad1)*%
X78250000Y-60750000D03*
%TO.P,D38,2*%
%TO.N,Net-(D35-Pad2)*%
X78250000Y-63750000D03*
%TD*%
%TO.P,D39,1*%
%TO.N,Net-(D39-Pad1)*%
X78250000Y-74750000D03*
%TO.P,D39,2*%
%TO.N,Net-(D35-Pad2)*%
X78250000Y-77750000D03*
%TD*%
%TO.P,D40,1*%
%TO.N,Net-(D40-Pad1)*%
X78250000Y-88750000D03*
%TO.P,D40,2*%
%TO.N,Net-(D35-Pad2)*%
X78250000Y-91750000D03*
%TD*%
%TO.P,D41,1*%
%TO.N,Net-(D41-Pad1)*%
X78250000Y-102750000D03*
%TO.P,D41,2*%
%TO.N,Net-(D35-Pad2)*%
X78250000Y-105750000D03*
%TD*%
D20*
%TO.P,Q1,3*%
%TO.N,Net-(D35-Pad2)*%
X76250000Y-138325000D03*
%TO.P,Q1,2*%
%TO.N,Net-(Q1-Pad2)*%
X78250000Y-138325000D03*
%TO.P,Q1,1*%
%TO.N,+5V*%
X80250000Y-138325000D03*
%TD*%
D12*
%TO.P,SW2,*%
%TO.N,*%
X151750000Y-122750000D03*
X151750000Y-115750000D03*
D13*
%TO.P,SW2,2*%
%TO.N,GND*%
X154250000Y-121500000D03*
%TO.P,SW2,1*%
%TO.N,Net-(A1-Pad14)*%
X154250000Y-117000000D03*
%TD*%
D17*
%TO.P,J2,1*%
%TO.N,GND*%
X55500000Y-133050000D03*
D18*
%TO.P,J2,2*%
%TO.N,+5V*%
X55500000Y-135590000D03*
%TO.P,J2,3*%
%TO.N,Net-(A1-Pad23)*%
X55500000Y-138130000D03*
%TO.P,J2,4*%
%TO.N,Net-(A1-Pad24)*%
X55500000Y-140670000D03*
%TO.P,J2,5*%
%TO.N,Net-(J2-Pad5)*%
X55500000Y-143210000D03*
D19*
%TO.P,J2,6*%
%TO.N,Net-(J2-Pad6)*%
X55500000Y-145750000D03*
%TD*%
D10*
%TO.P,R1,2*%
%TO.N,Net-(D0-Pad2)*%
X151560000Y-128500000D03*
D11*
%TO.P,R1,1*%
%TO.N,Net-(A1-Pad9)*%
X141400000Y-128500000D03*
%TD*%
D10*
%TO.P,R2,2*%
%TO.N,+5V*%
X20760000Y-3500000D03*
D11*
%TO.P,R2,1*%
%TO.N,Net-(A1-Pad20)*%
X10600000Y-3500000D03*
%TD*%
D10*
%TO.P,R3,2*%
%TO.N,+5V*%
X144160000Y-52200000D03*
D11*
%TO.P,R3,1*%
%TO.N,Net-(A1-Pad11)*%
X134000000Y-52200000D03*
%TD*%
D13*
%TO.P,BZ1,2*%
%TO.N,GND*%
X133050000Y-98750000D03*
%TO.P,BZ1,1*%
%TO.N,Net-(A1-Pad10)*%
X127450000Y-98750000D03*
%TD*%
D21*
%TO.P,R4,2*%
%TO.N,Net-(A1-Pad20)*%
X3302000Y-3556000D03*
D22*
%TO.P,R4,1*%
%TO.N,GND*%
X5842000Y-3556000D03*
%TD*%
D23*
%TO.P,SW1,2*%
%TO.N,GND*%
X19958300Y-142291700D03*
%TO.P,SW1,1*%
%TO.N,Net-(A1-Pad5)*%
X19958300Y-137291700D03*
%TO.P,SW1,2*%
%TO.N,GND*%
X5458300Y-142291700D03*
%TO.P,SW1,1*%
%TO.N,Net-(A1-Pad5)*%
X5458300Y-137291700D03*
%TD*%
D12*
%TO.P,SW4,*%
%TO.N,*%
X151750000Y-97500000D03*
X151750000Y-90500000D03*
D13*
%TO.P,SW4,2*%
%TO.N,GND*%
X154250000Y-96250000D03*
%TO.P,SW4,1*%
%TO.N,Net-(A1-Pad12)*%
X154250000Y-91750000D03*
%TD*%
D18*
%TO.P,J3,4*%
%TO.N,Net-(A1-Pad7)*%
X113630000Y-45750000D03*
%TO.P,J3,3*%
%TO.N,Net-(A1-Pad8)*%
X116170000Y-45750000D03*
%TO.P,J3,2*%
%TO.N,GND*%
X118710000Y-45750000D03*
D17*
%TO.P,J3,1*%
%TO.N,+5V*%
X121250000Y-45750000D03*
%TD*%
%TO.P,C0,1*%
%TO.N,GND*%
%TA.AperFunction,SMDPad,CuDef*%
G36*
G01*
X150441701Y-141125000D02*
X149141699Y-141125000D01*
G75*
G02*
X148891700Y-140875001I0J249999D01*
G01*
X148891700Y-140049999D01*
G75*
G02*
X149141699Y-139800000I249999J0D01*
G01*
X150441701Y-139800000D01*
G75*
G02*
X150691700Y-140049999I0J-249999D01*
G01*
X150691700Y-140875001D01*
G75*
G02*
X150441701Y-141125000I-249999J0D01*
G01*
G37*
%TD.AperFunction*%
%TO.P,C0,2*%
%TO.N,+5V*%
%TA.AperFunction,SMDPad,CuDef*%
G36*
G01*
X150441701Y-138000000D02*
X149141699Y-138000000D01*
G75*
G02*
X148891700Y-137750001I0J249999D01*
G01*
X148891700Y-136924999D01*
G75*
G02*
X149141699Y-136675000I249999J0D01*
G01*
X150441701Y-136675000D01*
G75*
G02*
X150691700Y-136924999I0J-249999D01*
G01*
X150691700Y-137750001D01*
G75*
G02*
X150441701Y-138000000I-249999J0D01*
G01*
G37*
%TD.AperFunction*%
%TD*%
%TO.P,C1,2*%
%TO.N,+5V*%
%TA.AperFunction,SMDPad,CuDef*%
G36*
G01*
X125025001Y-138000000D02*
X123724999Y-138000000D01*
G75*
G02*
X123475000Y-137750001I0J249999D01*
G01*
X123475000Y-136924999D01*
G75*
G02*
X123724999Y-136675000I249999J0D01*
G01*
X125025001Y-136675000D01*
G75*
G02*
X125275000Y-136924999I0J-249999D01*
G01*
X125275000Y-137750001D01*
G75*
G02*
X125025001Y-138000000I-249999J0D01*
G01*
G37*
%TD.AperFunction*%
%TO.P,C1,1*%
%TO.N,GND*%
%TA.AperFunction,SMDPad,CuDef*%
G36*
G01*
X125025001Y-141125000D02*
X123724999Y-141125000D01*
G75*
G02*
X123475000Y-140875001I0J249999D01*
G01*
X123475000Y-140049999D01*
G75*
G02*
X123724999Y-139800000I249999J0D01*
G01*
X125025001Y-139800000D01*
G75*
G02*
X125275000Y-140049999I0J-249999D01*
G01*
X125275000Y-140875001D01*
G75*
G02*
X125025001Y-141125000I-249999J0D01*
G01*
G37*
%TD.AperFunction*%
%TD*%
%TO.P,C2,2*%
%TO.N,+5V*%
%TA.AperFunction,SMDPad,CuDef*%
G36*
G01*
X99608301Y-138000000D02*
X98308299Y-138000000D01*
G75*
G02*
X98058300Y-137750001I0J249999D01*
G01*
X98058300Y-136924999D01*
G75*
G02*
X98308299Y-136675000I249999J0D01*
G01*
X99608301Y-136675000D01*
G75*
G02*
X99858300Y-136924999I0J-249999D01*
G01*
X99858300Y-137750001D01*
G75*
G02*
X99608301Y-138000000I-249999J0D01*
G01*
G37*
%TD.AperFunction*%
%TO.P,C2,1*%
%TO.N,GND*%
%TA.AperFunction,SMDPad,CuDef*%
G36*
G01*
X99608301Y-141125000D02*
X98308299Y-141125000D01*
G75*
G02*
X98058300Y-140875001I0J249999D01*
G01*
X98058300Y-140049999D01*
G75*
G02*
X98308299Y-139800000I249999J0D01*
G01*
X99608301Y-139800000D01*
G75*
G02*
X99858300Y-140049999I0J-249999D01*
G01*
X99858300Y-140875001D01*
G75*
G02*
X99608301Y-141125000I-249999J0D01*
G01*
G37*
%TD.AperFunction*%
%TD*%
%TO.P,C3,2*%
%TO.N,+5V*%
%TA.AperFunction,SMDPad,CuDef*%
G36*
G01*
X70191701Y-138000000D02*
X68891699Y-138000000D01*
G75*
G02*
X68641700Y-137750001I0J249999D01*
G01*
X68641700Y-136924999D01*
G75*
G02*
X68891699Y-136675000I249999J0D01*
G01*
X70191701Y-136675000D01*
G75*
G02*
X70441700Y-136924999I0J-249999D01*
G01*
X70441700Y-137750001D01*
G75*
G02*
X70191701Y-138000000I-249999J0D01*
G01*
G37*
%TD.AperFunction*%
%TO.P,C3,1*%
%TO.N,GND*%
%TA.AperFunction,SMDPad,CuDef*%
G36*
G01*
X70191701Y-141125000D02*
X68891699Y-141125000D01*
G75*
G02*
X68641700Y-140875001I0J249999D01*
G01*
X68641700Y-140049999D01*
G75*
G02*
X68891699Y-139800000I249999J0D01*
G01*
X70191701Y-139800000D01*
G75*
G02*
X70441700Y-140049999I0J-249999D01*
G01*
X70441700Y-140875001D01*
G75*
G02*
X70191701Y-141125000I-249999J0D01*
G01*
G37*
%TD.AperFunction*%
%TD*%
%TO.P,C4,2*%
%TO.N,+5V*%
%TA.AperFunction,SMDPad,CuDef*%
G36*
G01*
X39000000Y-134250001D02*
X39000000Y-132949999D01*
G75*
G02*
X39249999Y-132700000I249999J0D01*
G01*
X40075001Y-132700000D01*
G75*
G02*
X40325000Y-132949999I0J-249999D01*
G01*
X40325000Y-134250001D01*
G75*
G02*
X40075001Y-134500000I-249999J0D01*
G01*
X39249999Y-134500000D01*
G75*
G02*
X39000000Y-134250001I0J249999D01*
G01*
G37*
%TD.AperFunction*%
%TO.P,C4,1*%
%TO.N,GND*%
%TA.AperFunction,SMDPad,CuDef*%
G36*
G01*
X35875000Y-134250001D02*
X35875000Y-132949999D01*
G75*
G02*
X36124999Y-132700000I249999J0D01*
G01*
X36950001Y-132700000D01*
G75*
G02*
X37200000Y-132949999I0J-249999D01*
G01*
X37200000Y-134250001D01*
G75*
G02*
X36950001Y-134500000I-249999J0D01*
G01*
X36124999Y-134500000D01*
G75*
G02*
X35875000Y-134250001I0J249999D01*
G01*
G37*
%TD.AperFunction*%
%TD*%
%TO.P,C5,2*%
%TO.N,+5V*%
%TA.AperFunction,SMDPad,CuDef*%
G36*
G01*
X18058299Y-114400000D02*
X19358301Y-114400000D01*
G75*
G02*
X19608300Y-114649999I0J-249999D01*
G01*
X19608300Y-115475001D01*
G75*
G02*
X19358301Y-115725000I-249999J0D01*
G01*
X18058299Y-115725000D01*
G75*
G02*
X17808300Y-115475001I0J249999D01*
G01*
X17808300Y-114649999D01*
G75*
G02*
X18058299Y-114400000I249999J0D01*
G01*
G37*
%TD.AperFunction*%
%TO.P,C5,1*%
%TO.N,GND*%
%TA.AperFunction,SMDPad,CuDef*%
G36*
G01*
X18058299Y-111275000D02*
X19358301Y-111275000D01*
G75*
G02*
X19608300Y-111524999I0J-249999D01*
G01*
X19608300Y-112350001D01*
G75*
G02*
X19358301Y-112600000I-249999J0D01*
G01*
X18058299Y-112600000D01*
G75*
G02*
X17808300Y-112350001I0J249999D01*
G01*
X17808300Y-111524999D01*
G75*
G02*
X18058299Y-111275000I249999J0D01*
G01*
G37*
%TD.AperFunction*%
%TD*%
%TO.P,C6,2*%
%TO.N,+5V*%
%TA.AperFunction,SMDPad,CuDef*%
G36*
G01*
X43474999Y-114400000D02*
X44775001Y-114400000D01*
G75*
G02*
X45025000Y-114649999I0J-249999D01*
G01*
X45025000Y-115475001D01*
G75*
G02*
X44775001Y-115725000I-249999J0D01*
G01*
X43474999Y-115725000D01*
G75*
G02*
X43225000Y-115475001I0J249999D01*
G01*
X43225000Y-114649999D01*
G75*
G02*
X43474999Y-114400000I249999J0D01*
G01*
G37*
%TD.AperFunction*%
%TO.P,C6,1*%
%TO.N,GND*%
%TA.AperFunction,SMDPad,CuDef*%
G36*
G01*
X43474999Y-111275000D02*
X44775001Y-111275000D01*
G75*
G02*
X45025000Y-111524999I0J-249999D01*
G01*
X45025000Y-112350001D01*
G75*
G02*
X44775001Y-112600000I-249999J0D01*
G01*
X43474999Y-112600000D01*
G75*
G02*
X43225000Y-112350001I0J249999D01*
G01*
X43225000Y-111524999D01*
G75*
G02*
X43474999Y-111275000I249999J0D01*
G01*
G37*
%TD.AperFunction*%
%TD*%
%TO.P,C7,2*%
%TO.N,+5V*%
%TA.AperFunction,SMDPad,CuDef*%
G36*
G01*
X68891699Y-114400000D02*
X70191701Y-114400000D01*
G75*
G02*
X70441700Y-114649999I0J-249999D01*
G01*
X70441700Y-115475001D01*
G75*
G02*
X70191701Y-115725000I-249999J0D01*
G01*
X68891699Y-115725000D01*
G75*
G02*
X68641700Y-115475001I0J249999D01*
G01*
X68641700Y-114649999D01*
G75*
G02*
X68891699Y-114400000I249999J0D01*
G01*
G37*
%TD.AperFunction*%
%TO.P,C7,1*%
%TO.N,GND*%
%TA.AperFunction,SMDPad,CuDef*%
G36*
G01*
X68891699Y-111275000D02*
X70191701Y-111275000D01*
G75*
G02*
X70441700Y-111524999I0J-249999D01*
G01*
X70441700Y-112350001D01*
G75*
G02*
X70191701Y-112600000I-249999J0D01*
G01*
X68891699Y-112600000D01*
G75*
G02*
X68641700Y-112350001I0J249999D01*
G01*
X68641700Y-111524999D01*
G75*
G02*
X68891699Y-111275000I249999J0D01*
G01*
G37*
%TD.AperFunction*%
%TD*%
%TO.P,C8,2*%
%TO.N,+5V*%
%TA.AperFunction,SMDPad,CuDef*%
G36*
G01*
X98308299Y-114400000D02*
X99608301Y-114400000D01*
G75*
G02*
X99858300Y-114649999I0J-249999D01*
G01*
X99858300Y-115475001D01*
G75*
G02*
X99608301Y-115725000I-249999J0D01*
G01*
X98308299Y-115725000D01*
G75*
G02*
X98058300Y-115475001I0J249999D01*
G01*
X98058300Y-114649999D01*
G75*
G02*
X98308299Y-114400000I249999J0D01*
G01*
G37*
%TD.AperFunction*%
%TO.P,C8,1*%
%TO.N,GND*%
%TA.AperFunction,SMDPad,CuDef*%
G36*
G01*
X98308299Y-111275000D02*
X99608301Y-111275000D01*
G75*
G02*
X99858300Y-111524999I0J-249999D01*
G01*
X99858300Y-112350001D01*
G75*
G02*
X99608301Y-112600000I-249999J0D01*
G01*
X98308299Y-112600000D01*
G75*
G02*
X98058300Y-112350001I0J249999D01*
G01*
X98058300Y-111524999D01*
G75*
G02*
X98308299Y-111275000I249999J0D01*
G01*
G37*
%TD.AperFunction*%
%TD*%
%TO.P,C9,2*%
%TO.N,+5V*%
%TA.AperFunction,SMDPad,CuDef*%
G36*
G01*
X123724999Y-114400000D02*
X125025001Y-114400000D01*
G75*
G02*
X125275000Y-114649999I0J-249999D01*
G01*
X125275000Y-115475001D01*
G75*
G02*
X125025001Y-115725000I-249999J0D01*
G01*
X123724999Y-115725000D01*
G75*
G02*
X123475000Y-115475001I0J249999D01*
G01*
X123475000Y-114649999D01*
G75*
G02*
X123724999Y-114400000I249999J0D01*
G01*
G37*
%TD.AperFunction*%
%TO.P,C9,1*%
%TO.N,GND*%
%TA.AperFunction,SMDPad,CuDef*%
G36*
G01*
X123724999Y-111275000D02*
X125025001Y-111275000D01*
G75*
G02*
X125275000Y-111524999I0J-249999D01*
G01*
X125275000Y-112350001D01*
G75*
G02*
X125025001Y-112600000I-249999J0D01*
G01*
X123724999Y-112600000D01*
G75*
G02*
X123475000Y-112350001I0J249999D01*
G01*
X123475000Y-111524999D01*
G75*
G02*
X123724999Y-111275000I249999J0D01*
G01*
G37*
%TD.AperFunction*%
%TD*%
%TO.P,C10,2*%
%TO.N,+5V*%
%TA.AperFunction,SMDPad,CuDef*%
G36*
G01*
X142900000Y-119724999D02*
X142900000Y-121025001D01*
G75*
G02*
X142650001Y-121275000I-249999J0D01*
G01*
X141824999Y-121275000D01*
G75*
G02*
X141575000Y-121025001I0J249999D01*
G01*
X141575000Y-119724999D01*
G75*
G02*
X141824999Y-119475000I249999J0D01*
G01*
X142650001Y-119475000D01*
G75*
G02*
X142900000Y-119724999I0J-249999D01*
G01*
G37*
%TD.AperFunction*%
%TO.P,C10,1*%
%TO.N,GND*%
%TA.AperFunction,SMDPad,CuDef*%
G36*
G01*
X146025000Y-119724999D02*
X146025000Y-121025001D01*
G75*
G02*
X145775001Y-121275000I-249999J0D01*
G01*
X144949999Y-121275000D01*
G75*
G02*
X144700000Y-121025001I0J249999D01*
G01*
X144700000Y-119724999D01*
G75*
G02*
X144949999Y-119475000I249999J0D01*
G01*
X145775001Y-119475000D01*
G75*
G02*
X146025000Y-119724999I0J-249999D01*
G01*
G37*
%TD.AperFunction*%
%TD*%
%TO.P,C11,2*%
%TO.N,+5V*%
%TA.AperFunction,SMDPad,CuDef*%
G36*
G01*
X144700000Y-95650001D02*
X144700000Y-94349999D01*
G75*
G02*
X144949999Y-94100000I249999J0D01*
G01*
X145775001Y-94100000D01*
G75*
G02*
X146025000Y-94349999I0J-249999D01*
G01*
X146025000Y-95650001D01*
G75*
G02*
X145775001Y-95900000I-249999J0D01*
G01*
X144949999Y-95900000D01*
G75*
G02*
X144700000Y-95650001I0J249999D01*
G01*
G37*
%TD.AperFunction*%
%TO.P,C11,1*%
%TO.N,GND*%
%TA.AperFunction,SMDPad,CuDef*%
G36*
G01*
X141575000Y-95650001D02*
X141575000Y-94349999D01*
G75*
G02*
X141824999Y-94100000I249999J0D01*
G01*
X142650001Y-94100000D01*
G75*
G02*
X142900000Y-94349999I0J-249999D01*
G01*
X142900000Y-95650001D01*
G75*
G02*
X142650001Y-95900000I-249999J0D01*
G01*
X141824999Y-95900000D01*
G75*
G02*
X141575000Y-95650001I0J249999D01*
G01*
G37*
%TD.AperFunction*%
%TD*%
%TO.P,C12,2*%
%TO.N,+5V*%
%TA.AperFunction,SMDPad,CuDef*%
G36*
G01*
X125025001Y-87200000D02*
X123724999Y-87200000D01*
G75*
G02*
X123475000Y-86950001I0J249999D01*
G01*
X123475000Y-86124999D01*
G75*
G02*
X123724999Y-85875000I249999J0D01*
G01*
X125025001Y-85875000D01*
G75*
G02*
X125275000Y-86124999I0J-249999D01*
G01*
X125275000Y-86950001D01*
G75*
G02*
X125025001Y-87200000I-249999J0D01*
G01*
G37*
%TD.AperFunction*%
%TO.P,C12,1*%
%TO.N,GND*%
%TA.AperFunction,SMDPad,CuDef*%
G36*
G01*
X125025001Y-90325000D02*
X123724999Y-90325000D01*
G75*
G02*
X123475000Y-90075001I0J249999D01*
G01*
X123475000Y-89249999D01*
G75*
G02*
X123724999Y-89000000I249999J0D01*
G01*
X125025001Y-89000000D01*
G75*
G02*
X125275000Y-89249999I0J-249999D01*
G01*
X125275000Y-90075001D01*
G75*
G02*
X125025001Y-90325000I-249999J0D01*
G01*
G37*
%TD.AperFunction*%
%TD*%
%TO.P,C13,2*%
%TO.N,+5V*%
%TA.AperFunction,SMDPad,CuDef*%
G36*
G01*
X98950001Y-87200000D02*
X97649999Y-87200000D01*
G75*
G02*
X97400000Y-86950001I0J249999D01*
G01*
X97400000Y-86124999D01*
G75*
G02*
X97649999Y-85875000I249999J0D01*
G01*
X98950001Y-85875000D01*
G75*
G02*
X99200000Y-86124999I0J-249999D01*
G01*
X99200000Y-86950001D01*
G75*
G02*
X98950001Y-87200000I-249999J0D01*
G01*
G37*
%TD.AperFunction*%
%TO.P,C13,1*%
%TO.N,GND*%
%TA.AperFunction,SMDPad,CuDef*%
G36*
G01*
X98950001Y-90325000D02*
X97649999Y-90325000D01*
G75*
G02*
X97400000Y-90075001I0J249999D01*
G01*
X97400000Y-89249999D01*
G75*
G02*
X97649999Y-89000000I249999J0D01*
G01*
X98950001Y-89000000D01*
G75*
G02*
X99200000Y-89249999I0J-249999D01*
G01*
X99200000Y-90075001D01*
G75*
G02*
X98950001Y-90325000I-249999J0D01*
G01*
G37*
%TD.AperFunction*%
%TD*%
%TO.P,C14,2*%
%TO.N,+5V*%
%TA.AperFunction,SMDPad,CuDef*%
G36*
G01*
X58191701Y-89000000D02*
X56891699Y-89000000D01*
G75*
G02*
X56641700Y-88750001I0J249999D01*
G01*
X56641700Y-87924999D01*
G75*
G02*
X56891699Y-87675000I249999J0D01*
G01*
X58191701Y-87675000D01*
G75*
G02*
X58441700Y-87924999I0J-249999D01*
G01*
X58441700Y-88750001D01*
G75*
G02*
X58191701Y-89000000I-249999J0D01*
G01*
G37*
%TD.AperFunction*%
%TO.P,C14,1*%
%TO.N,GND*%
%TA.AperFunction,SMDPad,CuDef*%
G36*
G01*
X58191701Y-92125000D02*
X56891699Y-92125000D01*
G75*
G02*
X56641700Y-91875001I0J249999D01*
G01*
X56641700Y-91049999D01*
G75*
G02*
X56891699Y-90800000I249999J0D01*
G01*
X58191701Y-90800000D01*
G75*
G02*
X58441700Y-91049999I0J-249999D01*
G01*
X58441700Y-91875001D01*
G75*
G02*
X58191701Y-92125000I-249999J0D01*
G01*
G37*
%TD.AperFunction*%
%TD*%
%TO.P,C15,2*%
%TO.N,+5V*%
%TA.AperFunction,SMDPad,CuDef*%
G36*
G01*
X32750001Y-89200000D02*
X31449999Y-89200000D01*
G75*
G02*
X31200000Y-88950001I0J249999D01*
G01*
X31200000Y-88124999D01*
G75*
G02*
X31449999Y-87875000I249999J0D01*
G01*
X32750001Y-87875000D01*
G75*
G02*
X33000000Y-88124999I0J-249999D01*
G01*
X33000000Y-88950001D01*
G75*
G02*
X32750001Y-89200000I-249999J0D01*
G01*
G37*
%TD.AperFunction*%
%TO.P,C15,1*%
%TO.N,GND*%
%TA.AperFunction,SMDPad,CuDef*%
G36*
G01*
X32750001Y-92325000D02*
X31449999Y-92325000D01*
G75*
G02*
X31200000Y-92075001I0J249999D01*
G01*
X31200000Y-91249999D01*
G75*
G02*
X31449999Y-91000000I249999J0D01*
G01*
X32750001Y-91000000D01*
G75*
G02*
X33000000Y-91249999I0J-249999D01*
G01*
X33000000Y-92075001D01*
G75*
G02*
X32750001Y-92325000I-249999J0D01*
G01*
G37*
%TD.AperFunction*%
%TD*%
%TO.P,C16,2*%
%TO.N,+5V*%
%TA.AperFunction,SMDPad,CuDef*%
G36*
G01*
X7358301Y-89000000D02*
X6058299Y-89000000D01*
G75*
G02*
X5808300Y-88750001I0J249999D01*
G01*
X5808300Y-87924999D01*
G75*
G02*
X6058299Y-87675000I249999J0D01*
G01*
X7358301Y-87675000D01*
G75*
G02*
X7608300Y-87924999I0J-249999D01*
G01*
X7608300Y-88750001D01*
G75*
G02*
X7358301Y-89000000I-249999J0D01*
G01*
G37*
%TD.AperFunction*%
%TO.P,C16,1*%
%TO.N,GND*%
%TA.AperFunction,SMDPad,CuDef*%
G36*
G01*
X7358301Y-92125000D02*
X6058299Y-92125000D01*
G75*
G02*
X5808300Y-91875001I0J249999D01*
G01*
X5808300Y-91049999D01*
G75*
G02*
X6058299Y-90800000I249999J0D01*
G01*
X7358301Y-90800000D01*
G75*
G02*
X7608300Y-91049999I0J-249999D01*
G01*
X7608300Y-91875001D01*
G75*
G02*
X7358301Y-92125000I-249999J0D01*
G01*
G37*
%TD.AperFunction*%
%TD*%
%TO.P,C17,2*%
%TO.N,+5V*%
%TA.AperFunction,SMDPad,CuDef*%
G36*
G01*
X18058299Y-63600000D02*
X19358301Y-63600000D01*
G75*
G02*
X19608300Y-63849999I0J-249999D01*
G01*
X19608300Y-64675001D01*
G75*
G02*
X19358301Y-64925000I-249999J0D01*
G01*
X18058299Y-64925000D01*
G75*
G02*
X17808300Y-64675001I0J249999D01*
G01*
X17808300Y-63849999D01*
G75*
G02*
X18058299Y-63600000I249999J0D01*
G01*
G37*
%TD.AperFunction*%
%TO.P,C17,1*%
%TO.N,GND*%
%TA.AperFunction,SMDPad,CuDef*%
G36*
G01*
X18058299Y-60475000D02*
X19358301Y-60475000D01*
G75*
G02*
X19608300Y-60724999I0J-249999D01*
G01*
X19608300Y-61550001D01*
G75*
G02*
X19358301Y-61800000I-249999J0D01*
G01*
X18058299Y-61800000D01*
G75*
G02*
X17808300Y-61550001I0J249999D01*
G01*
X17808300Y-60724999D01*
G75*
G02*
X18058299Y-60475000I249999J0D01*
G01*
G37*
%TD.AperFunction*%
%TD*%
%TO.P,C18,2*%
%TO.N,+5V*%
%TA.AperFunction,SMDPad,CuDef*%
G36*
G01*
X43474999Y-63500000D02*
X44775001Y-63500000D01*
G75*
G02*
X45025000Y-63749999I0J-249999D01*
G01*
X45025000Y-64575001D01*
G75*
G02*
X44775001Y-64825000I-249999J0D01*
G01*
X43474999Y-64825000D01*
G75*
G02*
X43225000Y-64575001I0J249999D01*
G01*
X43225000Y-63749999D01*
G75*
G02*
X43474999Y-63500000I249999J0D01*
G01*
G37*
%TD.AperFunction*%
%TO.P,C18,1*%
%TO.N,GND*%
%TA.AperFunction,SMDPad,CuDef*%
G36*
G01*
X43474999Y-60375000D02*
X44775001Y-60375000D01*
G75*
G02*
X45025000Y-60624999I0J-249999D01*
G01*
X45025000Y-61450001D01*
G75*
G02*
X44775001Y-61700000I-249999J0D01*
G01*
X43474999Y-61700000D01*
G75*
G02*
X43225000Y-61450001I0J249999D01*
G01*
X43225000Y-60624999D01*
G75*
G02*
X43474999Y-60375000I249999J0D01*
G01*
G37*
%TD.AperFunction*%
%TD*%
%TO.P,C19,2*%
%TO.N,+5V*%
%TA.AperFunction,SMDPad,CuDef*%
G36*
G01*
X68549999Y-63500000D02*
X69850001Y-63500000D01*
G75*
G02*
X70100000Y-63749999I0J-249999D01*
G01*
X70100000Y-64575001D01*
G75*
G02*
X69850001Y-64825000I-249999J0D01*
G01*
X68549999Y-64825000D01*
G75*
G02*
X68300000Y-64575001I0J249999D01*
G01*
X68300000Y-63749999D01*
G75*
G02*
X68549999Y-63500000I249999J0D01*
G01*
G37*
%TD.AperFunction*%
%TO.P,C19,1*%
%TO.N,GND*%
%TA.AperFunction,SMDPad,CuDef*%
G36*
G01*
X68549999Y-60375000D02*
X69850001Y-60375000D01*
G75*
G02*
X70100000Y-60624999I0J-249999D01*
G01*
X70100000Y-61450001D01*
G75*
G02*
X69850001Y-61700000I-249999J0D01*
G01*
X68549999Y-61700000D01*
G75*
G02*
X68300000Y-61450001I0J249999D01*
G01*
X68300000Y-60624999D01*
G75*
G02*
X68549999Y-60375000I249999J0D01*
G01*
G37*
%TD.AperFunction*%
%TD*%
%TO.P,C20,2*%
%TO.N,+5V*%
%TA.AperFunction,SMDPad,CuDef*%
G36*
G01*
X98308299Y-63500000D02*
X99608301Y-63500000D01*
G75*
G02*
X99858300Y-63749999I0J-249999D01*
G01*
X99858300Y-64575001D01*
G75*
G02*
X99608301Y-64825000I-249999J0D01*
G01*
X98308299Y-64825000D01*
G75*
G02*
X98058300Y-64575001I0J249999D01*
G01*
X98058300Y-63749999D01*
G75*
G02*
X98308299Y-63500000I249999J0D01*
G01*
G37*
%TD.AperFunction*%
%TO.P,C20,1*%
%TO.N,GND*%
%TA.AperFunction,SMDPad,CuDef*%
G36*
G01*
X98308299Y-60375000D02*
X99608301Y-60375000D01*
G75*
G02*
X99858300Y-60624999I0J-249999D01*
G01*
X99858300Y-61450001D01*
G75*
G02*
X99608301Y-61700000I-249999J0D01*
G01*
X98308299Y-61700000D01*
G75*
G02*
X98058300Y-61450001I0J249999D01*
G01*
X98058300Y-60624999D01*
G75*
G02*
X98308299Y-60375000I249999J0D01*
G01*
G37*
%TD.AperFunction*%
%TD*%
%TO.P,C21,2*%
%TO.N,+5V*%
%TA.AperFunction,SMDPad,CuDef*%
G36*
G01*
X123724999Y-63500000D02*
X125025001Y-63500000D01*
G75*
G02*
X125275000Y-63749999I0J-249999D01*
G01*
X125275000Y-64575001D01*
G75*
G02*
X125025001Y-64825000I-249999J0D01*
G01*
X123724999Y-64825000D01*
G75*
G02*
X123475000Y-64575001I0J249999D01*
G01*
X123475000Y-63749999D01*
G75*
G02*
X123724999Y-63500000I249999J0D01*
G01*
G37*
%TD.AperFunction*%
%TO.P,C21,1*%
%TO.N,GND*%
%TA.AperFunction,SMDPad,CuDef*%
G36*
G01*
X123724999Y-60375000D02*
X125025001Y-60375000D01*
G75*
G02*
X125275000Y-60624999I0J-249999D01*
G01*
X125275000Y-61450001D01*
G75*
G02*
X125025001Y-61700000I-249999J0D01*
G01*
X123724999Y-61700000D01*
G75*
G02*
X123475000Y-61450001I0J249999D01*
G01*
X123475000Y-60624999D01*
G75*
G02*
X123724999Y-60375000I249999J0D01*
G01*
G37*
%TD.AperFunction*%
%TD*%
%TO.P,C22,2*%
%TO.N,+5V*%
%TA.AperFunction,SMDPad,CuDef*%
G36*
G01*
X137549999Y-65400000D02*
X138850001Y-65400000D01*
G75*
G02*
X139100000Y-65649999I0J-249999D01*
G01*
X139100000Y-66475001D01*
G75*
G02*
X138850001Y-66725000I-249999J0D01*
G01*
X137549999Y-66725000D01*
G75*
G02*
X137300000Y-66475001I0J249999D01*
G01*
X137300000Y-65649999D01*
G75*
G02*
X137549999Y-65400000I249999J0D01*
G01*
G37*
%TD.AperFunction*%
%TO.P,C22,1*%
%TO.N,GND*%
%TA.AperFunction,SMDPad,CuDef*%
G36*
G01*
X137549999Y-62275000D02*
X138850001Y-62275000D01*
G75*
G02*
X139100000Y-62524999I0J-249999D01*
G01*
X139100000Y-63350001D01*
G75*
G02*
X138850001Y-63600000I-249999J0D01*
G01*
X137549999Y-63600000D01*
G75*
G02*
X137300000Y-63350001I0J249999D01*
G01*
X137300000Y-62524999D01*
G75*
G02*
X137549999Y-62275000I249999J0D01*
G01*
G37*
%TD.AperFunction*%
%TD*%
%TO.P,C23,2*%
%TO.N,+5V*%
%TA.AperFunction,SMDPad,CuDef*%
G36*
G01*
X138441701Y-38100000D02*
X137141699Y-38100000D01*
G75*
G02*
X136891700Y-37850001I0J249999D01*
G01*
X136891700Y-37024999D01*
G75*
G02*
X137141699Y-36775000I249999J0D01*
G01*
X138441701Y-36775000D01*
G75*
G02*
X138691700Y-37024999I0J-249999D01*
G01*
X138691700Y-37850001D01*
G75*
G02*
X138441701Y-38100000I-249999J0D01*
G01*
G37*
%TD.AperFunction*%
%TO.P,C23,1*%
%TO.N,GND*%
%TA.AperFunction,SMDPad,CuDef*%
G36*
G01*
X138441701Y-41225000D02*
X137141699Y-41225000D01*
G75*
G02*
X136891700Y-40975001I0J249999D01*
G01*
X136891700Y-40149999D01*
G75*
G02*
X137141699Y-39900000I249999J0D01*
G01*
X138441701Y-39900000D01*
G75*
G02*
X138691700Y-40149999I0J-249999D01*
G01*
X138691700Y-40975001D01*
G75*
G02*
X138441701Y-41225000I-249999J0D01*
G01*
G37*
%TD.AperFunction*%
%TD*%
%TO.P,C24,2*%
%TO.N,+5V*%
%TA.AperFunction,SMDPad,CuDef*%
G36*
G01*
X113025001Y-38300000D02*
X111724999Y-38300000D01*
G75*
G02*
X111475000Y-38050001I0J249999D01*
G01*
X111475000Y-37224999D01*
G75*
G02*
X111724999Y-36975000I249999J0D01*
G01*
X113025001Y-36975000D01*
G75*
G02*
X113275000Y-37224999I0J-249999D01*
G01*
X113275000Y-38050001D01*
G75*
G02*
X113025001Y-38300000I-249999J0D01*
G01*
G37*
%TD.AperFunction*%
%TO.P,C24,1*%
%TO.N,GND*%
%TA.AperFunction,SMDPad,CuDef*%
G36*
G01*
X113025001Y-41425000D02*
X111724999Y-41425000D01*
G75*
G02*
X111475000Y-41175001I0J249999D01*
G01*
X111475000Y-40349999D01*
G75*
G02*
X111724999Y-40100000I249999J0D01*
G01*
X113025001Y-40100000D01*
G75*
G02*
X113275000Y-40349999I0J-249999D01*
G01*
X113275000Y-41175001D01*
G75*
G02*
X113025001Y-41425000I-249999J0D01*
G01*
G37*
%TD.AperFunction*%
%TD*%
%TO.P,C25,2*%
%TO.N,+5V*%
%TA.AperFunction,SMDPad,CuDef*%
G36*
G01*
X87608301Y-38200000D02*
X86308299Y-38200000D01*
G75*
G02*
X86058300Y-37950001I0J249999D01*
G01*
X86058300Y-37124999D01*
G75*
G02*
X86308299Y-36875000I249999J0D01*
G01*
X87608301Y-36875000D01*
G75*
G02*
X87858300Y-37124999I0J-249999D01*
G01*
X87858300Y-37950001D01*
G75*
G02*
X87608301Y-38200000I-249999J0D01*
G01*
G37*
%TD.AperFunction*%
%TO.P,C25,1*%
%TO.N,GND*%
%TA.AperFunction,SMDPad,CuDef*%
G36*
G01*
X87608301Y-41325000D02*
X86308299Y-41325000D01*
G75*
G02*
X86058300Y-41075001I0J249999D01*
G01*
X86058300Y-40249999D01*
G75*
G02*
X86308299Y-40000000I249999J0D01*
G01*
X87608301Y-40000000D01*
G75*
G02*
X87858300Y-40249999I0J-249999D01*
G01*
X87858300Y-41075001D01*
G75*
G02*
X87608301Y-41325000I-249999J0D01*
G01*
G37*
%TD.AperFunction*%
%TD*%
%TO.P,C26,2*%
%TO.N,+5V*%
%TA.AperFunction,SMDPad,CuDef*%
G36*
G01*
X58191701Y-38100000D02*
X56891699Y-38100000D01*
G75*
G02*
X56641700Y-37850001I0J249999D01*
G01*
X56641700Y-37024999D01*
G75*
G02*
X56891699Y-36775000I249999J0D01*
G01*
X58191701Y-36775000D01*
G75*
G02*
X58441700Y-37024999I0J-249999D01*
G01*
X58441700Y-37850001D01*
G75*
G02*
X58191701Y-38100000I-249999J0D01*
G01*
G37*
%TD.AperFunction*%
%TO.P,C26,1*%
%TO.N,GND*%
%TA.AperFunction,SMDPad,CuDef*%
G36*
G01*
X58191701Y-41225000D02*
X56891699Y-41225000D01*
G75*
G02*
X56641700Y-40975001I0J249999D01*
G01*
X56641700Y-40149999D01*
G75*
G02*
X56891699Y-39900000I249999J0D01*
G01*
X58191701Y-39900000D01*
G75*
G02*
X58441700Y-40149999I0J-249999D01*
G01*
X58441700Y-40975001D01*
G75*
G02*
X58191701Y-41225000I-249999J0D01*
G01*
G37*
%TD.AperFunction*%
%TD*%
%TO.P,C27,2*%
%TO.N,+5V*%
%TA.AperFunction,SMDPad,CuDef*%
G36*
G01*
X32775001Y-38100000D02*
X31474999Y-38100000D01*
G75*
G02*
X31225000Y-37850001I0J249999D01*
G01*
X31225000Y-37024999D01*
G75*
G02*
X31474999Y-36775000I249999J0D01*
G01*
X32775001Y-36775000D01*
G75*
G02*
X33025000Y-37024999I0J-249999D01*
G01*
X33025000Y-37850001D01*
G75*
G02*
X32775001Y-38100000I-249999J0D01*
G01*
G37*
%TD.AperFunction*%
%TO.P,C27,1*%
%TO.N,GND*%
%TA.AperFunction,SMDPad,CuDef*%
G36*
G01*
X32775001Y-41225000D02*
X31474999Y-41225000D01*
G75*
G02*
X31225000Y-40975001I0J249999D01*
G01*
X31225000Y-40149999D01*
G75*
G02*
X31474999Y-39900000I249999J0D01*
G01*
X32775001Y-39900000D01*
G75*
G02*
X33025000Y-40149999I0J-249999D01*
G01*
X33025000Y-40975001D01*
G75*
G02*
X32775001Y-41225000I-249999J0D01*
G01*
G37*
%TD.AperFunction*%
%TD*%
%TO.P,C28,2*%
%TO.N,+5V*%
%TA.AperFunction,SMDPad,CuDef*%
G36*
G01*
X7358301Y-38200000D02*
X6058299Y-38200000D01*
G75*
G02*
X5808300Y-37950001I0J249999D01*
G01*
X5808300Y-37124999D01*
G75*
G02*
X6058299Y-36875000I249999J0D01*
G01*
X7358301Y-36875000D01*
G75*
G02*
X7608300Y-37124999I0J-249999D01*
G01*
X7608300Y-37950001D01*
G75*
G02*
X7358301Y-38200000I-249999J0D01*
G01*
G37*
%TD.AperFunction*%
%TO.P,C28,1*%
%TO.N,GND*%
%TA.AperFunction,SMDPad,CuDef*%
G36*
G01*
X7358301Y-41325000D02*
X6058299Y-41325000D01*
G75*
G02*
X5808300Y-41075001I0J249999D01*
G01*
X5808300Y-40249999D01*
G75*
G02*
X6058299Y-40000000I249999J0D01*
G01*
X7358301Y-40000000D01*
G75*
G02*
X7608300Y-40249999I0J-249999D01*
G01*
X7608300Y-41075001D01*
G75*
G02*
X7358301Y-41325000I-249999J0D01*
G01*
G37*
%TD.AperFunction*%
%TD*%
%TO.P,C29,2*%
%TO.N,+5V*%
%TA.AperFunction,SMDPad,CuDef*%
G36*
G01*
X17949999Y-12700000D02*
X19250001Y-12700000D01*
G75*
G02*
X19500000Y-12949999I0J-249999D01*
G01*
X19500000Y-13775001D01*
G75*
G02*
X19250001Y-14025000I-249999J0D01*
G01*
X17949999Y-14025000D01*
G75*
G02*
X17700000Y-13775001I0J249999D01*
G01*
X17700000Y-12949999D01*
G75*
G02*
X17949999Y-12700000I249999J0D01*
G01*
G37*
%TD.AperFunction*%
%TO.P,C29,1*%
%TO.N,GND*%
%TA.AperFunction,SMDPad,CuDef*%
G36*
G01*
X17949999Y-9575000D02*
X19250001Y-9575000D01*
G75*
G02*
X19500000Y-9824999I0J-249999D01*
G01*
X19500000Y-10650001D01*
G75*
G02*
X19250001Y-10900000I-249999J0D01*
G01*
X17949999Y-10900000D01*
G75*
G02*
X17700000Y-10650001I0J249999D01*
G01*
X17700000Y-9824999D01*
G75*
G02*
X17949999Y-9575000I249999J0D01*
G01*
G37*
%TD.AperFunction*%
%TD*%
%TO.P,C30,2*%
%TO.N,+5V*%
%TA.AperFunction,SMDPad,CuDef*%
G36*
G01*
X43474999Y-12700000D02*
X44775001Y-12700000D01*
G75*
G02*
X45025000Y-12949999I0J-249999D01*
G01*
X45025000Y-13775001D01*
G75*
G02*
X44775001Y-14025000I-249999J0D01*
G01*
X43474999Y-14025000D01*
G75*
G02*
X43225000Y-13775001I0J249999D01*
G01*
X43225000Y-12949999D01*
G75*
G02*
X43474999Y-12700000I249999J0D01*
G01*
G37*
%TD.AperFunction*%
%TO.P,C30,1*%
%TO.N,GND*%
%TA.AperFunction,SMDPad,CuDef*%
G36*
G01*
X43474999Y-9575000D02*
X44775001Y-9575000D01*
G75*
G02*
X45025000Y-9824999I0J-249999D01*
G01*
X45025000Y-10650001D01*
G75*
G02*
X44775001Y-10900000I-249999J0D01*
G01*
X43474999Y-10900000D01*
G75*
G02*
X43225000Y-10650001I0J249999D01*
G01*
X43225000Y-9824999D01*
G75*
G02*
X43474999Y-9575000I249999J0D01*
G01*
G37*
%TD.AperFunction*%
%TD*%
%TO.P,C31,2*%
%TO.N,+5V*%
%TA.AperFunction,SMDPad,CuDef*%
G36*
G01*
X68891699Y-12700000D02*
X70191701Y-12700000D01*
G75*
G02*
X70441700Y-12949999I0J-249999D01*
G01*
X70441700Y-13775001D01*
G75*
G02*
X70191701Y-14025000I-249999J0D01*
G01*
X68891699Y-14025000D01*
G75*
G02*
X68641700Y-13775001I0J249999D01*
G01*
X68641700Y-12949999D01*
G75*
G02*
X68891699Y-12700000I249999J0D01*
G01*
G37*
%TD.AperFunction*%
%TO.P,C31,1*%
%TO.N,GND*%
%TA.AperFunction,SMDPad,CuDef*%
G36*
G01*
X68891699Y-9575000D02*
X70191701Y-9575000D01*
G75*
G02*
X70441700Y-9824999I0J-249999D01*
G01*
X70441700Y-10650001D01*
G75*
G02*
X70191701Y-10900000I-249999J0D01*
G01*
X68891699Y-10900000D01*
G75*
G02*
X68641700Y-10650001I0J249999D01*
G01*
X68641700Y-9824999D01*
G75*
G02*
X68891699Y-9575000I249999J0D01*
G01*
G37*
%TD.AperFunction*%
%TD*%
%TO.P,C32,2*%
%TO.N,+5V*%
%TA.AperFunction,SMDPad,CuDef*%
G36*
G01*
X98249999Y-12700000D02*
X99550001Y-12700000D01*
G75*
G02*
X99800000Y-12949999I0J-249999D01*
G01*
X99800000Y-13775001D01*
G75*
G02*
X99550001Y-14025000I-249999J0D01*
G01*
X98249999Y-14025000D01*
G75*
G02*
X98000000Y-13775001I0J249999D01*
G01*
X98000000Y-12949999D01*
G75*
G02*
X98249999Y-12700000I249999J0D01*
G01*
G37*
%TD.AperFunction*%
%TO.P,C32,1*%
%TO.N,GND*%
%TA.AperFunction,SMDPad,CuDef*%
G36*
G01*
X98249999Y-9575000D02*
X99550001Y-9575000D01*
G75*
G02*
X99800000Y-9824999I0J-249999D01*
G01*
X99800000Y-10650001D01*
G75*
G02*
X99550001Y-10900000I-249999J0D01*
G01*
X98249999Y-10900000D01*
G75*
G02*
X98000000Y-10650001I0J249999D01*
G01*
X98000000Y-9824999D01*
G75*
G02*
X98249999Y-9575000I249999J0D01*
G01*
G37*
%TD.AperFunction*%
%TD*%
%TO.P,C33,2*%
%TO.N,+5V*%
%TA.AperFunction,SMDPad,CuDef*%
G36*
G01*
X124349999Y-12700000D02*
X125650001Y-12700000D01*
G75*
G02*
X125900000Y-12949999I0J-249999D01*
G01*
X125900000Y-13775001D01*
G75*
G02*
X125650001Y-14025000I-249999J0D01*
G01*
X124349999Y-14025000D01*
G75*
G02*
X124100000Y-13775001I0J249999D01*
G01*
X124100000Y-12949999D01*
G75*
G02*
X124349999Y-12700000I249999J0D01*
G01*
G37*
%TD.AperFunction*%
%TO.P,C33,1*%
%TO.N,GND*%
%TA.AperFunction,SMDPad,CuDef*%
G36*
G01*
X124349999Y-9575000D02*
X125650001Y-9575000D01*
G75*
G02*
X125900000Y-9824999I0J-249999D01*
G01*
X125900000Y-10650001D01*
G75*
G02*
X125650001Y-10900000I-249999J0D01*
G01*
X124349999Y-10900000D01*
G75*
G02*
X124100000Y-10650001I0J249999D01*
G01*
X124100000Y-9824999D01*
G75*
G02*
X124349999Y-9575000I249999J0D01*
G01*
G37*
%TD.AperFunction*%
%TD*%
%TO.P,C34,2*%
%TO.N,+5V*%
%TA.AperFunction,SMDPad,CuDef*%
G36*
G01*
X142900000Y-18849999D02*
X142900000Y-20150001D01*
G75*
G02*
X142650001Y-20400000I-249999J0D01*
G01*
X141824999Y-20400000D01*
G75*
G02*
X141575000Y-20150001I0J249999D01*
G01*
X141575000Y-18849999D01*
G75*
G02*
X141824999Y-18600000I249999J0D01*
G01*
X142650001Y-18600000D01*
G75*
G02*
X142900000Y-18849999I0J-249999D01*
G01*
G37*
%TD.AperFunction*%
%TO.P,C34,1*%
%TO.N,GND*%
%TA.AperFunction,SMDPad,CuDef*%
G36*
G01*
X146025000Y-18849999D02*
X146025000Y-20150001D01*
G75*
G02*
X145775001Y-20400000I-249999J0D01*
G01*
X144949999Y-20400000D01*
G75*
G02*
X144700000Y-20150001I0J249999D01*
G01*
X144700000Y-18849999D01*
G75*
G02*
X144949999Y-18600000I249999J0D01*
G01*
X145775001Y-18600000D01*
G75*
G02*
X146025000Y-18849999I0J-249999D01*
G01*
G37*
%TD.AperFunction*%
%TD*%
%TO.P,R5,2*%
%TO.N,GND*%
%TA.AperFunction,SMDPad,CuDef*%
G36*
G01*
X88125000Y-12900000D02*
X86875000Y-12900000D01*
G75*
G02*
X86625000Y-12650000I0J250000D01*
G01*
X86625000Y-11850000D01*
G75*
G02*
X86875000Y-11600000I250000J0D01*
G01*
X88125000Y-11600000D01*
G75*
G02*
X88375000Y-11850000I0J-250000D01*
G01*
X88375000Y-12650000D01*
G75*
G02*
X88125000Y-12900000I-250000J0D01*
G01*
G37*
%TD.AperFunction*%
%TO.P,R5,1*%
%TO.N,Net-(D35-Pad1)*%
%TA.AperFunction,SMDPad,CuDef*%
G36*
G01*
X88125000Y-16000000D02*
X86875000Y-16000000D01*
G75*
G02*
X86625000Y-15750000I0J250000D01*
G01*
X86625000Y-14950000D01*
G75*
G02*
X86875000Y-14700000I250000J0D01*
G01*
X88125000Y-14700000D01*
G75*
G02*
X88375000Y-14950000I0J-250000D01*
G01*
X88375000Y-15750000D01*
G75*
G02*
X88125000Y-16000000I-250000J0D01*
G01*
G37*
%TD.AperFunction*%
%TD*%
%TO.P,R6,2*%
%TO.N,GND*%
%TA.AperFunction,SMDPad,CuDef*%
G36*
G01*
X93800000Y-33425000D02*
X93800000Y-32175000D01*
G75*
G02*
X94050000Y-31925000I250000J0D01*
G01*
X94850000Y-31925000D01*
G75*
G02*
X95100000Y-32175000I0J-250000D01*
G01*
X95100000Y-33425000D01*
G75*
G02*
X94850000Y-33675000I-250000J0D01*
G01*
X94050000Y-33675000D01*
G75*
G02*
X93800000Y-33425000I0J250000D01*
G01*
G37*
%TD.AperFunction*%
%TO.P,R6,1*%
%TO.N,Net-(D36-Pad1)*%
%TA.AperFunction,SMDPad,CuDef*%
G36*
G01*
X90700000Y-33425000D02*
X90700000Y-32175000D01*
G75*
G02*
X90950000Y-31925000I250000J0D01*
G01*
X91750000Y-31925000D01*
G75*
G02*
X92000000Y-32175000I0J-250000D01*
G01*
X92000000Y-33425000D01*
G75*
G02*
X91750000Y-33675000I-250000J0D01*
G01*
X90950000Y-33675000D01*
G75*
G02*
X90700000Y-33425000I0J250000D01*
G01*
G37*
%TD.AperFunction*%
%TD*%
%TO.P,R7,2*%
%TO.N,GND*%
%TA.AperFunction,SMDPad,CuDef*%
G36*
G01*
X62800000Y-43975000D02*
X62800000Y-45225000D01*
G75*
G02*
X62550000Y-45475000I-250000J0D01*
G01*
X61750000Y-45475000D01*
G75*
G02*
X61500000Y-45225000I0J250000D01*
G01*
X61500000Y-43975000D01*
G75*
G02*
X61750000Y-43725000I250000J0D01*
G01*
X62550000Y-43725000D01*
G75*
G02*
X62800000Y-43975000I0J-250000D01*
G01*
G37*
%TD.AperFunction*%
%TO.P,R7,1*%
%TO.N,Net-(D37-Pad1)*%
%TA.AperFunction,SMDPad,CuDef*%
G36*
G01*
X65900000Y-43975000D02*
X65900000Y-45225000D01*
G75*
G02*
X65650000Y-45475000I-250000J0D01*
G01*
X64850000Y-45475000D01*
G75*
G02*
X64600000Y-45225000I0J250000D01*
G01*
X64600000Y-43975000D01*
G75*
G02*
X64850000Y-43725000I250000J0D01*
G01*
X65650000Y-43725000D01*
G75*
G02*
X65900000Y-43975000I0J-250000D01*
G01*
G37*
%TD.AperFunction*%
%TD*%
%TO.P,R8,2*%
%TO.N,GND*%
%TA.AperFunction,SMDPad,CuDef*%
G36*
G01*
X85375000Y-62300000D02*
X86625000Y-62300000D01*
G75*
G02*
X86875000Y-62550000I0J-250000D01*
G01*
X86875000Y-63350000D01*
G75*
G02*
X86625000Y-63600000I-250000J0D01*
G01*
X85375000Y-63600000D01*
G75*
G02*
X85125000Y-63350000I0J250000D01*
G01*
X85125000Y-62550000D01*
G75*
G02*
X85375000Y-62300000I250000J0D01*
G01*
G37*
%TD.AperFunction*%
%TO.P,R8,1*%
%TO.N,Net-(D38-Pad1)*%
%TA.AperFunction,SMDPad,CuDef*%
G36*
G01*
X85375000Y-59200000D02*
X86625000Y-59200000D01*
G75*
G02*
X86875000Y-59450000I0J-250000D01*
G01*
X86875000Y-60250000D01*
G75*
G02*
X86625000Y-60500000I-250000J0D01*
G01*
X85375000Y-60500000D01*
G75*
G02*
X85125000Y-60250000I0J250000D01*
G01*
X85125000Y-59450000D01*
G75*
G02*
X85375000Y-59200000I250000J0D01*
G01*
G37*
%TD.AperFunction*%
%TD*%
%TO.P,R9,2*%
%TO.N,GND*%
%TA.AperFunction,SMDPad,CuDef*%
G36*
G01*
X120500000Y-71625000D02*
X120500000Y-70375000D01*
G75*
G02*
X120750000Y-70125000I250000J0D01*
G01*
X121550000Y-70125000D01*
G75*
G02*
X121800000Y-70375000I0J-250000D01*
G01*
X121800000Y-71625000D01*
G75*
G02*
X121550000Y-71875000I-250000J0D01*
G01*
X120750000Y-71875000D01*
G75*
G02*
X120500000Y-71625000I0J250000D01*
G01*
G37*
%TD.AperFunction*%
%TO.P,R9,1*%
%TO.N,Net-(D39-Pad1)*%
%TA.AperFunction,SMDPad,CuDef*%
G36*
G01*
X117400000Y-71625000D02*
X117400000Y-70375000D01*
G75*
G02*
X117650000Y-70125000I250000J0D01*
G01*
X118450000Y-70125000D01*
G75*
G02*
X118700000Y-70375000I0J-250000D01*
G01*
X118700000Y-71625000D01*
G75*
G02*
X118450000Y-71875000I-250000J0D01*
G01*
X117650000Y-71875000D01*
G75*
G02*
X117400000Y-71625000I0J250000D01*
G01*
G37*
%TD.AperFunction*%
%TD*%
%TO.P,R10,2*%
%TO.N,GND*%
%TA.AperFunction,SMDPad,CuDef*%
G36*
G01*
X86275000Y-91200000D02*
X87525000Y-91200000D01*
G75*
G02*
X87775000Y-91450000I0J-250000D01*
G01*
X87775000Y-92250000D01*
G75*
G02*
X87525000Y-92500000I-250000J0D01*
G01*
X86275000Y-92500000D01*
G75*
G02*
X86025000Y-92250000I0J250000D01*
G01*
X86025000Y-91450000D01*
G75*
G02*
X86275000Y-91200000I250000J0D01*
G01*
G37*
%TD.AperFunction*%
%TO.P,R10,1*%
%TO.N,Net-(D40-Pad1)*%
%TA.AperFunction,SMDPad,CuDef*%
G36*
G01*
X86275000Y-88100000D02*
X87525000Y-88100000D01*
G75*
G02*
X87775000Y-88350000I0J-250000D01*
G01*
X87775000Y-89150000D01*
G75*
G02*
X87525000Y-89400000I-250000J0D01*
G01*
X86275000Y-89400000D01*
G75*
G02*
X86025000Y-89150000I0J250000D01*
G01*
X86025000Y-88350000D01*
G75*
G02*
X86275000Y-88100000I250000J0D01*
G01*
G37*
%TD.AperFunction*%
%TD*%
%TO.P,R11,2*%
%TO.N,GND*%
%TA.AperFunction,SMDPad,CuDef*%
G36*
G01*
X78875000Y-96800000D02*
X77625000Y-96800000D01*
G75*
G02*
X77375000Y-96550000I0J250000D01*
G01*
X77375000Y-95750000D01*
G75*
G02*
X77625000Y-95500000I250000J0D01*
G01*
X78875000Y-95500000D01*
G75*
G02*
X79125000Y-95750000I0J-250000D01*
G01*
X79125000Y-96550000D01*
G75*
G02*
X78875000Y-96800000I-250000J0D01*
G01*
G37*
%TD.AperFunction*%
%TO.P,R11,1*%
%TO.N,Net-(D41-Pad1)*%
%TA.AperFunction,SMDPad,CuDef*%
G36*
G01*
X78875000Y-99900000D02*
X77625000Y-99900000D01*
G75*
G02*
X77375000Y-99650000I0J250000D01*
G01*
X77375000Y-98850000D01*
G75*
G02*
X77625000Y-98600000I250000J0D01*
G01*
X78875000Y-98600000D01*
G75*
G02*
X79125000Y-98850000I0J-250000D01*
G01*
X79125000Y-99650000D01*
G75*
G02*
X78875000Y-99900000I-250000J0D01*
G01*
G37*
%TD.AperFunction*%
%TD*%
%TO.P,R12,2*%
%TO.N,GND*%
%TA.AperFunction,SMDPad,CuDef*%
G36*
G01*
X88725000Y-114300000D02*
X87475000Y-114300000D01*
G75*
G02*
X87225000Y-114050000I0J250000D01*
G01*
X87225000Y-113250000D01*
G75*
G02*
X87475000Y-113000000I250000J0D01*
G01*
X88725000Y-113000000D01*
G75*
G02*
X88975000Y-113250000I0J-250000D01*
G01*
X88975000Y-114050000D01*
G75*
G02*
X88725000Y-114300000I-250000J0D01*
G01*
G37*
%TD.AperFunction*%
%TO.P,R12,1*%
%TO.N,Net-(D42-Pad1)*%
%TA.AperFunction,SMDPad,CuDef*%
G36*
G01*
X88725000Y-117400000D02*
X87475000Y-117400000D01*
G75*
G02*
X87225000Y-117150000I0J250000D01*
G01*
X87225000Y-116350000D01*
G75*
G02*
X87475000Y-116100000I250000J0D01*
G01*
X88725000Y-116100000D01*
G75*
G02*
X88975000Y-116350000I0J-250000D01*
G01*
X88975000Y-117150000D01*
G75*
G02*
X88725000Y-117400000I-250000J0D01*
G01*
G37*
%TD.AperFunction*%
%TD*%
%TO.P,R13,2*%
%TO.N,GND*%
%TA.AperFunction,SMDPad,CuDef*%
G36*
G01*
X78875000Y-124800000D02*
X77625000Y-124800000D01*
G75*
G02*
X77375000Y-124550000I0J250000D01*
G01*
X77375000Y-123750000D01*
G75*
G02*
X77625000Y-123500000I250000J0D01*
G01*
X78875000Y-123500000D01*
G75*
G02*
X79125000Y-123750000I0J-250000D01*
G01*
X79125000Y-124550000D01*
G75*
G02*
X78875000Y-124800000I-250000J0D01*
G01*
G37*
%TD.AperFunction*%
%TO.P,R13,1*%
%TO.N,Net-(D43-Pad1)*%
%TA.AperFunction,SMDPad,CuDef*%
G36*
G01*
X78875000Y-127900000D02*
X77625000Y-127900000D01*
G75*
G02*
X77375000Y-127650000I0J250000D01*
G01*
X77375000Y-126850000D01*
G75*
G02*
X77625000Y-126600000I250000J0D01*
G01*
X78875000Y-126600000D01*
G75*
G02*
X79125000Y-126850000I0J-250000D01*
G01*
X79125000Y-127650000D01*
G75*
G02*
X78875000Y-127900000I-250000J0D01*
G01*
G37*
%TD.AperFunction*%
%TD*%
D24*
%TO.N,GND*%
X95900000Y-31400000D03*
X124900000Y-72500000D03*
D25*
X94300000Y-144000000D03*
D24*
%TO.N,Net-(A1-Pad5)*%
X80600000Y-146200000D03*
D25*
%TO.N,+5V*%
X108900000Y-135600000D03*
X29500000Y-25100000D03*
D24*
%TO.N,Net-(D35-Pad2)*%
X76250000Y-133750000D03*
X76250000Y-119750000D03*
X76250000Y-105750000D03*
X76250000Y-91750000D03*
X76250000Y-77750000D03*
X76250000Y-63750000D03*
X76250000Y-49750000D03*
X76250000Y-35750000D03*
X76250000Y-21950000D03*
%TD*%
D26*
%TO.N,GND*%
X5458300Y-142291700D02*
X19958300Y-142291700D01*
X5458300Y-142291700D02*
X5458300Y-142237300D01*
X5458300Y-142291700D02*
X5512700Y-142291700D01*
D27*
X118554200Y-140462500D02*
X116775000Y-142241700D01*
X124375000Y-140462500D02*
X118554200Y-140462500D01*
X93137500Y-140462500D02*
X91358300Y-142241700D01*
X98958300Y-140462500D02*
X93137500Y-140462500D01*
X63720900Y-140462500D02*
X61941700Y-142241700D01*
X69541700Y-140462500D02*
X63720900Y-140462500D01*
D26*
X142191700Y-142241700D02*
X142158300Y-142241700D01*
X116775000Y-142241700D02*
X116758300Y-142241700D01*
X55500000Y-133050000D02*
X56350000Y-133050000D01*
X56350000Y-133050000D02*
X58200000Y-134900000D01*
X63700000Y-144000000D02*
X61941700Y-142241700D01*
X142158300Y-142241700D02*
X140400000Y-144000000D01*
X60800000Y-144000000D02*
X58200000Y-141400000D01*
X63700000Y-144000000D02*
X60800000Y-144000000D01*
X58200000Y-134900000D02*
X58200000Y-141400000D01*
X116775000Y-142325000D02*
X115100000Y-144000000D01*
X116775000Y-142241700D02*
X116775000Y-142325000D01*
X91358300Y-142241700D02*
X91358300Y-142258300D01*
X91358300Y-142258300D02*
X93100000Y-144000000D01*
D27*
X36525000Y-142241700D02*
X38200000Y-140566700D01*
D26*
X55500000Y-133050000D02*
X55450000Y-133050000D01*
D27*
X38200000Y-135262500D02*
X36537500Y-133600000D01*
X38200000Y-140566700D02*
X38200000Y-135262500D01*
D26*
X143683350Y-110216650D02*
X145391700Y-111925000D01*
X142266700Y-108800000D02*
X143683350Y-110216650D01*
D27*
X143800000Y-110333300D02*
X143683350Y-110216650D01*
X143800000Y-118812500D02*
X143800000Y-110333300D01*
X145362500Y-120375000D02*
X143800000Y-118812500D01*
D26*
X119925000Y-111925000D02*
X116800000Y-108800000D01*
X119975000Y-111925000D02*
X119925000Y-111925000D01*
X116800000Y-108800000D02*
X142266700Y-108800000D01*
X94558300Y-111858300D02*
X91500000Y-108800000D01*
X94558300Y-111925000D02*
X94558300Y-111858300D01*
X91500000Y-108800000D02*
X116800000Y-108800000D01*
X61900000Y-108800000D02*
X91500000Y-108800000D01*
X65025000Y-111925000D02*
X61900000Y-108800000D01*
X65141700Y-111925000D02*
X65025000Y-111925000D01*
X119987500Y-111937500D02*
X119975000Y-111925000D01*
X124375000Y-111937500D02*
X119987500Y-111937500D01*
X94570800Y-111937500D02*
X94558300Y-111925000D01*
X98958300Y-111937500D02*
X94570800Y-111937500D01*
X65154200Y-111937500D02*
X65141700Y-111925000D01*
X69541700Y-111937500D02*
X65154200Y-111937500D01*
X39737500Y-111937500D02*
X39725000Y-111925000D01*
X44125000Y-111937500D02*
X39737500Y-111937500D01*
X21845800Y-108800000D02*
X22600000Y-108800000D01*
X39625000Y-111925000D02*
X36500000Y-108800000D01*
X39725000Y-111925000D02*
X39625000Y-111925000D01*
X36500000Y-108800000D02*
X61900000Y-108800000D01*
X22600000Y-108800000D02*
X36500000Y-108800000D01*
X14308300Y-111908300D02*
X11200000Y-108800000D01*
X14308300Y-111925000D02*
X14308300Y-111908300D01*
X11200000Y-108800000D02*
X22600000Y-108800000D01*
X14320800Y-111937500D02*
X14308300Y-111925000D01*
X18708300Y-111937500D02*
X14320800Y-111937500D01*
X142191700Y-94954200D02*
X142237500Y-95000000D01*
X142191700Y-91408300D02*
X142191700Y-94954200D01*
D27*
X118520800Y-89662500D02*
X116775000Y-91408300D01*
X124375000Y-89662500D02*
X118520800Y-89662500D01*
X93104100Y-89662500D02*
X91358300Y-91408300D01*
X98300000Y-89662500D02*
X93104100Y-89662500D01*
D26*
X140400000Y-144000000D02*
X115100000Y-144000000D01*
D27*
X143970900Y-140462500D02*
X142191700Y-142241700D01*
X149791700Y-140462500D02*
X143970900Y-140462500D01*
X88100000Y-113650000D02*
X89750000Y-113650000D01*
X89750000Y-113650000D02*
X90100000Y-114000000D01*
X92483300Y-114000000D02*
X94558300Y-111925000D01*
X90100000Y-114000000D02*
X92483300Y-114000000D01*
X57595900Y-91408300D02*
X57541700Y-91462500D01*
X61941700Y-91408300D02*
X57595900Y-91408300D01*
X32354200Y-91408300D02*
X32100000Y-91662500D01*
X36525000Y-91408300D02*
X32354200Y-91408300D01*
X6762500Y-91408300D02*
X6708300Y-91462500D01*
X11108300Y-91408300D02*
X6762500Y-91408300D01*
D26*
X6900000Y-108800000D02*
X2800000Y-112900000D01*
X11200000Y-108800000D02*
X6900000Y-108800000D01*
X2800000Y-97400000D02*
X2800000Y-96200000D01*
X2800000Y-96200000D02*
X4000000Y-95000000D01*
X116775000Y-91425000D02*
X113200000Y-95000000D01*
X116775000Y-91408300D02*
X116775000Y-91425000D01*
X142191700Y-91408300D02*
X138600000Y-95000000D01*
X138600000Y-95000000D02*
X142237500Y-95000000D01*
X129300000Y-95000000D02*
X129200000Y-95000000D01*
X129200000Y-95000000D02*
X138600000Y-95000000D01*
X133050000Y-98750000D02*
X129300000Y-95000000D01*
X113200000Y-95000000D02*
X129200000Y-95000000D01*
X91358300Y-91541700D02*
X87900000Y-95000000D01*
X91358300Y-91408300D02*
X91358300Y-91541700D01*
X87900000Y-95000000D02*
X113200000Y-95000000D01*
X57437500Y-91462500D02*
X53900000Y-95000000D01*
X57541700Y-91462500D02*
X57437500Y-91462500D01*
X32037500Y-91662500D02*
X28700000Y-95000000D01*
X32100000Y-91662500D02*
X32037500Y-91662500D01*
X28700000Y-95000000D02*
X53900000Y-95000000D01*
X6708300Y-91462500D02*
X6708300Y-93691700D01*
X6708300Y-93691700D02*
X5400000Y-95000000D01*
X5400000Y-95000000D02*
X28700000Y-95000000D01*
X4000000Y-95000000D02*
X5400000Y-95000000D01*
X86850000Y-91850000D02*
X83700000Y-95000000D01*
X83700000Y-95000000D02*
X87900000Y-95000000D01*
X86900000Y-91850000D02*
X86850000Y-91850000D01*
X78250000Y-95950000D02*
X77300000Y-95000000D01*
X78250000Y-96150000D02*
X78250000Y-95950000D01*
X77300000Y-95000000D02*
X83700000Y-95000000D01*
X53900000Y-95000000D02*
X77300000Y-95000000D01*
D27*
X14354100Y-61137500D02*
X14308300Y-61091700D01*
X18708300Y-61137500D02*
X14354100Y-61137500D01*
X39779200Y-61037500D02*
X39725000Y-61091700D01*
X44125000Y-61037500D02*
X39779200Y-61037500D01*
X65195900Y-61037500D02*
X65141700Y-61091700D01*
X69200000Y-61037500D02*
X65195900Y-61037500D01*
X94612500Y-61037500D02*
X94558300Y-61091700D01*
X98958300Y-61037500D02*
X94612500Y-61037500D01*
X120029200Y-61037500D02*
X119975000Y-61091700D01*
X124375000Y-61037500D02*
X120029200Y-61037500D01*
D26*
X2800000Y-65500000D02*
X2800000Y-64800000D01*
X2800000Y-84400000D02*
X2800000Y-65500000D01*
X142320011Y-58020011D02*
X145391700Y-61091700D01*
X119891700Y-61091700D02*
X116820011Y-58020011D01*
X119975000Y-61091700D02*
X119891700Y-61091700D01*
X116820011Y-58020011D02*
X142320011Y-58020011D01*
X94558300Y-60698322D02*
X91879989Y-58020011D01*
X94558300Y-61091700D02*
X94558300Y-60698322D01*
X83779989Y-58020011D02*
X87079989Y-58020011D01*
X64951678Y-61091700D02*
X61879989Y-58020011D01*
X65141700Y-61091700D02*
X64951678Y-61091700D01*
X61879989Y-58020011D02*
X83779989Y-58020011D01*
X39725000Y-61065022D02*
X36679989Y-58020011D01*
X39725000Y-61091700D02*
X39725000Y-61065022D01*
X36679989Y-58020011D02*
X61879989Y-58020011D01*
X14308300Y-61008300D02*
X11320011Y-58020011D01*
X11320011Y-58020011D02*
X36679989Y-58020011D01*
X14308300Y-61091700D02*
X14308300Y-61008300D01*
X88120011Y-58020011D02*
X91879989Y-58020011D01*
X87079989Y-58020011D02*
X88120011Y-58020011D01*
D27*
X143545900Y-62937500D02*
X145391700Y-61091700D01*
X138200000Y-62937500D02*
X143545900Y-62937500D01*
D26*
X91879989Y-58020011D02*
X116820011Y-58020011D01*
D27*
X142179200Y-40562500D02*
X142191700Y-40575000D01*
X137791700Y-40562500D02*
X142179200Y-40562500D01*
X112987500Y-40575000D02*
X112800000Y-40762500D01*
X112562500Y-40575000D02*
X112375000Y-40762500D01*
X116775000Y-40575000D02*
X112562500Y-40575000D01*
X87045800Y-40575000D02*
X86958300Y-40662500D01*
X91358300Y-40575000D02*
X87045800Y-40575000D01*
X57554200Y-40575000D02*
X57541700Y-40562500D01*
X61941700Y-40575000D02*
X57554200Y-40575000D01*
X32137500Y-40575000D02*
X32125000Y-40562500D01*
X36525000Y-40575000D02*
X32137500Y-40575000D01*
X6795800Y-40575000D02*
X6708300Y-40662500D01*
X11108300Y-40575000D02*
X6795800Y-40575000D01*
X154250000Y-96250000D02*
X155824990Y-97824990D01*
X153100000Y-144000000D02*
X140400000Y-144000000D01*
X155824990Y-141275010D02*
X153100000Y-144000000D01*
X155824990Y-123074990D02*
X155824990Y-123724990D01*
X155824990Y-123724990D02*
X155824990Y-141275010D01*
X154250000Y-121500000D02*
X155824990Y-123074990D01*
X155824990Y-113574990D02*
X155824990Y-114275010D01*
X154250000Y-112000000D02*
X155824990Y-113574990D01*
X155824990Y-114275010D02*
X155824990Y-123724990D01*
X155824990Y-97824990D02*
X155824990Y-114275010D01*
D26*
X2800000Y-48100000D02*
X2800000Y-46000000D01*
X2800000Y-46000000D02*
X6000000Y-42800000D01*
X135554200Y-42800000D02*
X137791700Y-40562500D01*
X133550000Y-42800000D02*
X133000000Y-42800000D01*
X136500000Y-45750000D02*
X133550000Y-42800000D01*
X133000000Y-42800000D02*
X135554200Y-42800000D01*
X115760000Y-42800000D02*
X115300000Y-42800000D01*
X118710000Y-45750000D02*
X115760000Y-42800000D01*
X115300000Y-42800000D02*
X133000000Y-42800000D01*
X112375000Y-40762500D02*
X112375000Y-40925000D01*
X110500000Y-42800000D02*
X115300000Y-42800000D01*
X112375000Y-40925000D02*
X110500000Y-42800000D01*
X86937500Y-40662500D02*
X84800000Y-42800000D01*
X86958300Y-40662500D02*
X86937500Y-40662500D01*
X57537500Y-40562500D02*
X55300000Y-42800000D01*
X57541700Y-40562500D02*
X57537500Y-40562500D01*
X32125000Y-40575000D02*
X29900000Y-42800000D01*
X32125000Y-40562500D02*
X32125000Y-40575000D01*
X29900000Y-42800000D02*
X55300000Y-42800000D01*
X6000000Y-42800000D02*
X29900000Y-42800000D01*
X6708300Y-42091700D02*
X6000000Y-42800000D01*
X6708300Y-40662500D02*
X6708300Y-42091700D01*
X92900000Y-42800000D02*
X110500000Y-42800000D01*
X84800000Y-42800000D02*
X92900000Y-42800000D01*
X62150000Y-44550000D02*
X60400000Y-42800000D01*
X62150000Y-44600000D02*
X62150000Y-44550000D01*
X60400000Y-42800000D02*
X84800000Y-42800000D01*
X55300000Y-42800000D02*
X60400000Y-42800000D01*
D27*
X94450000Y-32800000D02*
X94500000Y-32800000D01*
X94500000Y-32800000D02*
X95900000Y-31400000D01*
X95900000Y-31400000D02*
X95900000Y-31400000D01*
X18579200Y-10258300D02*
X18600000Y-10237500D01*
X14308300Y-10258300D02*
X18579200Y-10258300D01*
X39745800Y-10237500D02*
X39725000Y-10258300D01*
X44125000Y-10237500D02*
X39745800Y-10237500D01*
X65162500Y-10237500D02*
X65141700Y-10258300D01*
X69541700Y-10237500D02*
X65162500Y-10237500D01*
X94579100Y-10237500D02*
X94558300Y-10258300D01*
X98900000Y-10237500D02*
X94579100Y-10237500D01*
X119995800Y-10237500D02*
X119975000Y-10258300D01*
X125000000Y-10237500D02*
X119995800Y-10237500D01*
X145362500Y-19500000D02*
X143800000Y-17937500D01*
X143800000Y-17937500D02*
X143800000Y-11850000D01*
X143800000Y-8666600D02*
X143466700Y-8333300D01*
D26*
X143466700Y-8333300D02*
X145391700Y-10258300D01*
D27*
X143800000Y-11850000D02*
X143800000Y-8666600D01*
D26*
X141933400Y-6800000D02*
X143466700Y-8333300D01*
X14308300Y-10208300D02*
X10900000Y-6800000D01*
X14308300Y-10258300D02*
X14308300Y-10208300D01*
X8600000Y-6800000D02*
X10900000Y-6800000D01*
X10900000Y-6800000D02*
X16900000Y-6800000D01*
X39725000Y-10025000D02*
X36500000Y-6800000D01*
X39725000Y-10258300D02*
X39725000Y-10025000D01*
X16900000Y-6800000D02*
X36500000Y-6800000D01*
X65141700Y-10241700D02*
X61700000Y-6800000D01*
X65141700Y-10258300D02*
X65141700Y-10241700D01*
X36500000Y-6800000D02*
X61700000Y-6800000D01*
X94558300Y-10258300D02*
X94558300Y-10058300D01*
X61700000Y-6800000D02*
X91300000Y-6800000D01*
X119975000Y-10075000D02*
X116700000Y-6800000D01*
X119975000Y-10258300D02*
X119975000Y-10075000D01*
X116700000Y-6800000D02*
X141933400Y-6800000D01*
X91300000Y-6800000D02*
X116700000Y-6800000D01*
D27*
X87500000Y-12250000D02*
X92450000Y-12250000D01*
X93250000Y-11450000D02*
X93250000Y-8750000D01*
X92450000Y-12250000D02*
X93250000Y-11450000D01*
D26*
X93250000Y-8750000D02*
X91300000Y-6800000D01*
X94558300Y-10058300D02*
X93250000Y-8750000D01*
D27*
X85500000Y-62950000D02*
X85950000Y-62950000D01*
X89000000Y-58900000D02*
X88120011Y-58020011D01*
X89000000Y-60000000D02*
X89000000Y-58900000D01*
X86050000Y-62950000D02*
X89000000Y-60000000D01*
X86000000Y-62950000D02*
X86050000Y-62950000D01*
X121150000Y-71000000D02*
X123400000Y-71000000D01*
X123400000Y-71000000D02*
X124900000Y-72500000D01*
X124900000Y-72500000D02*
X124900000Y-72500000D01*
D26*
X45987500Y-124150000D02*
X36537500Y-133600000D01*
X78250000Y-124150000D02*
X45987500Y-124150000D01*
X27266600Y-147800000D02*
X33500000Y-147800000D01*
X21758300Y-142291700D02*
X27266600Y-147800000D01*
X19958300Y-142291700D02*
X21758300Y-142291700D01*
X34300000Y-147800000D02*
X33500000Y-147800000D01*
X2800000Y-61500000D02*
X6279989Y-58020011D01*
X2800000Y-62600000D02*
X2800000Y-61500000D01*
X6279989Y-58020011D02*
X9579989Y-58020011D01*
X9579989Y-58020011D02*
X11320011Y-58020011D01*
X96700000Y-144000000D02*
X93100000Y-144000000D01*
X115100000Y-144000000D02*
X96700000Y-144000000D01*
X66400000Y-144000000D02*
X63700000Y-144000000D01*
X66400000Y-144000000D02*
X61600000Y-144000000D01*
X93100000Y-144000000D02*
X66400000Y-144000000D01*
X39800000Y-147800000D02*
X34300000Y-147800000D01*
X36525000Y-144525000D02*
X39800000Y-147800000D01*
X36525000Y-142241700D02*
X36525000Y-144525000D01*
X57800000Y-147800000D02*
X42083300Y-147800000D01*
X42083300Y-147800000D02*
X39800000Y-147800000D01*
X61600000Y-144000000D02*
X57800000Y-147800000D01*
X2800000Y-116000000D02*
X2800000Y-116300000D01*
X2800000Y-116000000D02*
X2800000Y-112900000D01*
X2800000Y-116300000D02*
X34300000Y-147800000D01*
X2800000Y-112900000D02*
X2800000Y-97400000D01*
X2800000Y-97400000D02*
X2800000Y-84400000D01*
X2800000Y-65500000D02*
X2800000Y-62600000D01*
X2800000Y-52300000D02*
X2800000Y-48100000D01*
X2800000Y-62600000D02*
X2800000Y-52300000D01*
X2800000Y-48100000D02*
X2800000Y-12600000D01*
D27*
X5842000Y-9558000D02*
X5100000Y-10300000D01*
X5842000Y-3556000D02*
X5842000Y-9558000D01*
D26*
X5100000Y-10300000D02*
X8600000Y-6800000D01*
X2800000Y-12600000D02*
X5100000Y-10300000D01*
D27*
%TO.N,Net-(A1-Pad20)*%
X6917990Y-151824990D02*
X137815010Y-151824990D01*
X889000Y-145796000D02*
X6917990Y-151824990D01*
X137815010Y-151824990D02*
X141900000Y-147740000D01*
X889000Y-9589000D02*
X889000Y-145796000D01*
X10600000Y-3500000D02*
X8900000Y-1800000D01*
X5058000Y-1800000D02*
X3302000Y-3556000D01*
X8900000Y-1800000D02*
X5058000Y-1800000D01*
X889000Y-5969000D02*
X3302000Y-3556000D01*
X889000Y-9589000D02*
X889000Y-5969000D01*
%TO.N,Net-(A1-Pad5)*%
X5458300Y-137291700D02*
X19958300Y-137291700D01*
X5458300Y-137291700D02*
X5408300Y-137291700D01*
X5408300Y-137291700D02*
X2800000Y-139900000D01*
X2800000Y-139900000D02*
X2800000Y-145100000D01*
X2800000Y-145100000D02*
X8000000Y-150300000D01*
X8000000Y-150300000D02*
X76500000Y-150300000D01*
X76500000Y-150300000D02*
X80600000Y-146200000D01*
X80600000Y-146200000D02*
X80600000Y-146200000D01*
%TO.N,Net-(A1-Pad9)*%
X140820000Y-128500000D02*
X141400000Y-128500000D01*
X136820000Y-132500000D02*
X140820000Y-128500000D01*
%TO.N,+5V*%
X145395900Y-137337500D02*
X145391700Y-137341700D01*
X119979200Y-137337500D02*
X119975000Y-137341700D01*
X124375000Y-137337500D02*
X119979200Y-137337500D01*
X94562500Y-137337500D02*
X94558300Y-137341700D01*
X98954100Y-137341700D02*
X98958300Y-137337500D01*
X94558300Y-137341700D02*
X98954100Y-137341700D01*
X65145900Y-137337500D02*
X65141700Y-137341700D01*
X69541700Y-137337500D02*
X65145900Y-137337500D01*
X39729200Y-137337500D02*
X39725000Y-137341700D01*
D26*
X65141700Y-137341700D02*
X65158300Y-137341700D01*
X145391700Y-137341700D02*
X145391700Y-137291700D01*
X119975000Y-137341700D02*
X119975000Y-137275000D01*
X98958300Y-137337500D02*
X98937500Y-137337500D01*
X94558300Y-137341700D02*
X94558300Y-137241700D01*
X98958300Y-137337500D02*
X98962500Y-137337500D01*
X143640000Y-135590000D02*
X145391700Y-137341700D01*
X119941700Y-137341700D02*
X118190000Y-135590000D01*
X119975000Y-137341700D02*
X119941700Y-137341700D01*
X118190000Y-135590000D02*
X143640000Y-135590000D01*
X102210000Y-135590000D02*
X118190000Y-135590000D01*
X39725000Y-137341700D02*
X39725000Y-135675000D01*
D27*
X12870800Y-115062500D02*
X11108300Y-116825000D01*
X18708300Y-115062500D02*
X12870800Y-115062500D01*
X38287500Y-115062500D02*
X36525000Y-116825000D01*
X44125000Y-115062500D02*
X38287500Y-115062500D01*
X63704200Y-115062500D02*
X61941700Y-116825000D01*
X69541700Y-115062500D02*
X63704200Y-115062500D01*
X93120800Y-115062500D02*
X91358300Y-116825000D01*
X98958300Y-115062500D02*
X93120800Y-115062500D01*
X118537500Y-115062500D02*
X116775000Y-116825000D01*
X124375000Y-115062500D02*
X118537500Y-115062500D01*
D26*
X39725000Y-133662500D02*
X39662500Y-133600000D01*
X39725000Y-135675000D02*
X39725000Y-133662500D01*
X142237500Y-120375000D02*
X142237500Y-120462500D01*
X91358300Y-116825000D02*
X91425000Y-116825000D01*
X142191700Y-120329200D02*
X142237500Y-120375000D01*
X142191700Y-116825000D02*
X142191700Y-120329200D01*
D27*
X145391700Y-86508300D02*
X143800000Y-88100000D01*
X143800000Y-93437500D02*
X145362500Y-95000000D01*
X143800000Y-88100000D02*
X143800000Y-93437500D01*
X124345800Y-86508300D02*
X124375000Y-86537500D01*
X119975000Y-86508300D02*
X124345800Y-86508300D01*
X94587500Y-86537500D02*
X94558300Y-86508300D01*
X98300000Y-86537500D02*
X94587500Y-86537500D01*
D26*
X140841650Y-121858350D02*
X140900000Y-121800000D01*
X142237500Y-120462500D02*
X140900000Y-121800000D01*
X16141650Y-121858350D02*
X11108300Y-116825000D01*
X91408300Y-116825000D02*
X96441650Y-121858350D01*
X91358300Y-116825000D02*
X91408300Y-116825000D01*
X61941700Y-116841700D02*
X66958350Y-121858350D01*
X61941700Y-116825000D02*
X61941700Y-116841700D01*
X36525000Y-117041700D02*
X41341650Y-121858350D01*
X36525000Y-116825000D02*
X36525000Y-117041700D01*
X41341650Y-121858350D02*
X66958350Y-121858350D01*
X16141650Y-121858350D02*
X41341650Y-121858350D01*
X99042500Y-137337500D02*
X100790000Y-135590000D01*
X98958300Y-137337500D02*
X99042500Y-137337500D01*
X80250000Y-138325000D02*
X82985000Y-135590000D01*
X82985000Y-135590000D02*
X83490000Y-135590000D01*
X83490000Y-135590000D02*
X100790000Y-135590000D01*
X66958350Y-121858350D02*
X96441650Y-121858350D01*
X100790000Y-135590000D02*
X102210000Y-135590000D01*
X122541650Y-121858350D02*
X140841650Y-121858350D01*
X114041650Y-121858350D02*
X122541650Y-121858350D01*
X111741650Y-121858350D02*
X114041650Y-121858350D01*
D27*
X149787500Y-137341700D02*
X149791700Y-137337500D01*
X145391700Y-137341700D02*
X149787500Y-137341700D01*
D26*
X116775000Y-116825000D02*
X111741650Y-121858350D01*
X113700000Y-127900000D02*
X107658350Y-121858350D01*
X113700000Y-130800000D02*
X113700000Y-127900000D01*
X96441650Y-121858350D02*
X107658350Y-121858350D01*
X108900000Y-135600000D02*
X113700000Y-130800000D01*
X107658350Y-121858350D02*
X111741650Y-121858350D01*
D27*
X65141700Y-86508300D02*
X63312500Y-88337500D01*
X63312500Y-88337500D02*
X57541700Y-88337500D01*
X37695800Y-88537500D02*
X32100000Y-88537500D01*
X39725000Y-86508300D02*
X37695800Y-88537500D01*
X12479100Y-88337500D02*
X14308300Y-86508300D01*
X6708300Y-88337500D02*
X12479100Y-88337500D01*
D26*
X17016600Y-83800000D02*
X14308300Y-86508300D01*
X149300000Y-120400000D02*
X149300000Y-87200000D01*
X143600000Y-126100000D02*
X149300000Y-120400000D01*
X118400000Y-126100000D02*
X143600000Y-126100000D01*
X113700000Y-130800000D02*
X118400000Y-126100000D01*
X149300000Y-87200000D02*
X149300000Y-77500000D01*
X148591700Y-86508300D02*
X148600000Y-86500000D01*
X145391700Y-86508300D02*
X148591700Y-86508300D01*
X148600000Y-86500000D02*
X145900000Y-83800000D01*
X149300000Y-87200000D02*
X148600000Y-86500000D01*
X124375000Y-86537500D02*
X124462500Y-86537500D01*
X124462500Y-86537500D02*
X127200000Y-83800000D01*
X145900000Y-83800000D02*
X127200000Y-83800000D01*
X98300000Y-86500000D02*
X101000000Y-83800000D01*
X98300000Y-86537500D02*
X98300000Y-86500000D01*
X127200000Y-83800000D02*
X101000000Y-83800000D01*
X65141700Y-86458300D02*
X67800000Y-83800000D01*
X65141700Y-86508300D02*
X65141700Y-86458300D01*
X101000000Y-83800000D02*
X67800000Y-83800000D01*
X39725000Y-86508300D02*
X39725000Y-86475000D01*
X42400000Y-83800000D02*
X17016600Y-83800000D01*
X39725000Y-86475000D02*
X42400000Y-83800000D01*
X67800000Y-83800000D02*
X42400000Y-83800000D01*
X149300000Y-77500000D02*
X149300000Y-73500000D01*
X39233300Y-68700000D02*
X40100000Y-68700000D01*
X13816600Y-68700000D02*
X40100000Y-68700000D01*
X61941700Y-65991700D02*
X61991700Y-65991700D01*
X40100000Y-68700000D02*
X64700000Y-68700000D01*
X91358300Y-65991700D02*
X91358300Y-66258300D01*
X64700000Y-68700000D02*
X93800000Y-68700000D01*
X116775000Y-65991700D02*
X116791700Y-65991700D01*
X93800000Y-68700000D02*
X119500000Y-68700000D01*
X142191700Y-66391700D02*
X144500000Y-68700000D01*
X142191700Y-65991700D02*
X142191700Y-66391700D01*
X149300000Y-71100000D02*
X149300000Y-70700000D01*
X149300000Y-73500000D02*
X149300000Y-71100000D01*
X147300000Y-68700000D02*
X141200000Y-68700000D01*
X149300000Y-70700000D02*
X147300000Y-68700000D01*
X141200000Y-68700000D02*
X144500000Y-68700000D01*
X119500000Y-68700000D02*
X141200000Y-68700000D01*
D27*
X142120900Y-66062500D02*
X142191700Y-65991700D01*
X138200000Y-66062500D02*
X142120900Y-66062500D01*
X144120000Y-52160000D02*
X144160000Y-52200000D01*
X144120000Y-45750000D02*
X144120000Y-52160000D01*
X144100000Y-45730000D02*
X144120000Y-45750000D01*
X143629200Y-37437500D02*
X137791700Y-37437500D01*
X119975000Y-35675000D02*
X118012500Y-37637500D01*
X118012500Y-37637500D02*
X112375000Y-37637500D01*
X92695800Y-37537500D02*
X94558300Y-35675000D01*
X86958300Y-37537500D02*
X92695800Y-37537500D01*
X63379200Y-37437500D02*
X65141700Y-35675000D01*
X57541700Y-37437500D02*
X63379200Y-37437500D01*
X37962500Y-37437500D02*
X39725000Y-35675000D01*
X32125000Y-37437500D02*
X37962500Y-37437500D01*
X12445800Y-37537500D02*
X14308300Y-35675000D01*
X6708300Y-37537500D02*
X12445800Y-37537500D01*
D26*
X149300000Y-37500000D02*
X149300000Y-35800000D01*
X149300000Y-71100000D02*
X149300000Y-37500000D01*
X149300000Y-35800000D02*
X143000000Y-29500000D01*
X20483300Y-29500000D02*
X14308300Y-35675000D01*
X39825000Y-35675000D02*
X46000000Y-29500000D01*
X39725000Y-35675000D02*
X39825000Y-35675000D01*
X65141700Y-35658300D02*
X71300000Y-29500000D01*
X65141700Y-35675000D02*
X65141700Y-35658300D01*
X94558300Y-35441700D02*
X100500000Y-29500000D01*
X94558300Y-35675000D02*
X94558300Y-35441700D01*
X119975000Y-35625000D02*
X126100000Y-29500000D01*
X119975000Y-35675000D02*
X119975000Y-35625000D01*
X147475000Y-35675000D02*
X149300000Y-37500000D01*
X145391700Y-35675000D02*
X147475000Y-35675000D01*
X144120000Y-45750000D02*
X141970000Y-47900000D01*
X123400000Y-47900000D02*
X121250000Y-45750000D01*
X141970000Y-47900000D02*
X123400000Y-47900000D01*
X145391700Y-35675000D02*
X143629200Y-37437500D01*
X143629200Y-45259200D02*
X144120000Y-45750000D01*
X143629200Y-37437500D02*
X143629200Y-45259200D01*
D27*
X12904100Y-13362500D02*
X11108300Y-15158300D01*
X18600000Y-13362500D02*
X12904100Y-13362500D01*
X38320800Y-13362500D02*
X36525000Y-15158300D01*
X44125000Y-13362500D02*
X38320800Y-13362500D01*
X63737500Y-13362500D02*
X61941700Y-15158300D01*
X69541700Y-13362500D02*
X63737500Y-13362500D01*
X93154100Y-13362500D02*
X91358300Y-15158300D01*
X98900000Y-13362500D02*
X93154100Y-13362500D01*
X118570800Y-13362500D02*
X116775000Y-15158300D01*
X125000000Y-13362500D02*
X118570800Y-13362500D01*
X142191700Y-19454200D02*
X142237500Y-19500000D01*
X142191700Y-15158300D02*
X142191700Y-19454200D01*
D26*
X11108300Y-20125000D02*
X20483300Y-29500000D01*
X11108300Y-15158300D02*
X11108300Y-20125000D01*
X36525000Y-17625000D02*
X48400000Y-29500000D01*
X36525000Y-15158300D02*
X36525000Y-17625000D01*
X48400000Y-29500000D02*
X46000000Y-29500000D01*
X71300000Y-29500000D02*
X48400000Y-29500000D01*
X61941700Y-17641700D02*
X73800000Y-29500000D01*
X61941700Y-15158300D02*
X61941700Y-17641700D01*
X73800000Y-29500000D02*
X71300000Y-29500000D01*
X100500000Y-29500000D02*
X73800000Y-29500000D01*
X103800000Y-29500000D02*
X100500000Y-29500000D01*
X126100000Y-29500000D02*
X103800000Y-29500000D01*
X91358300Y-17058300D02*
X103800000Y-29500000D01*
X91358300Y-15158300D02*
X91358300Y-17058300D01*
X116775000Y-16975000D02*
X129300000Y-29500000D01*
X116775000Y-15158300D02*
X116775000Y-16975000D01*
X129300000Y-29500000D02*
X126100000Y-29500000D01*
X143000000Y-29500000D02*
X129300000Y-29500000D01*
X142237500Y-19537500D02*
X149300000Y-26600000D01*
X142237500Y-19500000D02*
X142237500Y-19537500D01*
X149300000Y-37500000D02*
X149300000Y-26600000D01*
X39662500Y-133600000D02*
X39700000Y-133600000D01*
X39700000Y-133600000D02*
X44300000Y-129000000D01*
X67020000Y-129000000D02*
X73610000Y-135590000D01*
X44300000Y-129000000D02*
X67020000Y-129000000D01*
X73610000Y-135590000D02*
X83490000Y-135590000D01*
X69562500Y-137337500D02*
X69541700Y-137337500D01*
X71310000Y-135590000D02*
X69562500Y-137337500D01*
X73610000Y-135590000D02*
X71310000Y-135590000D01*
X33900000Y-29500000D02*
X34300000Y-29500000D01*
X29500000Y-25100000D02*
X33900000Y-29500000D01*
X34300000Y-29500000D02*
X20483300Y-29500000D01*
X46000000Y-29500000D02*
X34300000Y-29500000D01*
X12358300Y-67241700D02*
X13816600Y-68700000D01*
X11108300Y-65991700D02*
X12358300Y-67241700D01*
D27*
X12200000Y-65425000D02*
X13362500Y-64262500D01*
X12200000Y-67083400D02*
X12200000Y-65425000D01*
X13362500Y-64262500D02*
X18708300Y-64262500D01*
X12358300Y-67241700D02*
X12200000Y-67083400D01*
X39062500Y-64162500D02*
X37766650Y-65458350D01*
D26*
X37766650Y-67233350D02*
X39233300Y-68700000D01*
X36525000Y-65991700D02*
X37766650Y-67233350D01*
D27*
X37766650Y-65458350D02*
X37766650Y-67233350D01*
X44125000Y-64162500D02*
X39062500Y-64162500D01*
X63450000Y-65275000D02*
X63450000Y-67450000D01*
X64562500Y-64162500D02*
X63450000Y-65275000D01*
D26*
X63450000Y-67450000D02*
X64700000Y-68700000D01*
X61991700Y-65991700D02*
X63450000Y-67450000D01*
D27*
X69200000Y-64162500D02*
X64562500Y-64162500D01*
X92850000Y-65075000D02*
X92850000Y-67750000D01*
X93762500Y-64162500D02*
X92850000Y-65075000D01*
D26*
X91358300Y-66258300D02*
X92850000Y-67750000D01*
X92850000Y-67750000D02*
X93800000Y-68700000D01*
D27*
X98958300Y-64162500D02*
X93762500Y-64162500D01*
X118250000Y-65075000D02*
X118250000Y-67450000D01*
X119162500Y-64162500D02*
X118250000Y-65075000D01*
D26*
X116791700Y-65991700D02*
X118250000Y-67450000D01*
X118250000Y-67450000D02*
X119500000Y-68700000D01*
D27*
X124375000Y-64162500D02*
X119162500Y-64162500D01*
%TO.N,Net-(D1-Pad4)*%
X111875000Y-142241700D02*
X116775000Y-137341700D01*
X94558300Y-142241700D02*
X111875000Y-142241700D01*
%TO.N,Net-(D10-Pad4)*%
X145391700Y-116825000D02*
X145391700Y-116808300D01*
X146850000Y-92866600D02*
X146691700Y-92708300D01*
X146850000Y-115350000D02*
X146850000Y-92866600D01*
X146691700Y-92708300D02*
X145391700Y-91408300D01*
X145391700Y-116808300D02*
X146850000Y-115350000D01*
%TO.N,Net-(D10-Pad2)*%
X137291700Y-116825000D02*
X142191700Y-111925000D01*
X119975000Y-116825000D02*
X137291700Y-116825000D01*
%TO.N,Net-(D35-Pad2)*%
X78250000Y-49750000D02*
X78325000Y-49750000D01*
D28*
X78250000Y-133750000D02*
X76250000Y-133750000D01*
X78250000Y-119750000D02*
X76250000Y-119750000D01*
X76250000Y-119750000D02*
X76250000Y-119750000D01*
X78250000Y-105750000D02*
X76250000Y-105750000D01*
X76250000Y-105750000D02*
X76250000Y-105750000D01*
X78250000Y-91750000D02*
X76250000Y-91750000D01*
X76250000Y-91750000D02*
X76250000Y-91750000D01*
X78250000Y-77750000D02*
X76250000Y-77750000D01*
X76250000Y-77750000D02*
X76250000Y-77750000D01*
X78250000Y-63750000D02*
X76250000Y-63750000D01*
X76250000Y-63750000D02*
X76250000Y-63750000D01*
X78250000Y-49750000D02*
X76250000Y-49750000D01*
X76250000Y-49750000D02*
X76250000Y-49750000D01*
X78250000Y-35750000D02*
X76250000Y-35750000D01*
X76250000Y-35750000D02*
X76250000Y-35750000D01*
D27*
X78050000Y-21950000D02*
X78250000Y-21750000D01*
X76250000Y-21950000D02*
X78050000Y-21950000D01*
D28*
X76250000Y-133750000D02*
X76250000Y-133750000D01*
D27*
%TO.N,Net-(D0-Pad4)*%
X119975000Y-142241700D02*
X137291700Y-142241700D01*
X137291700Y-142241700D02*
X142191700Y-137341700D01*
%TO.N,Net-(D0-Pad2)*%
X151560000Y-128500000D02*
X154250000Y-131190000D01*
X152258300Y-142241700D02*
X145391700Y-142241700D01*
X154250000Y-140250000D02*
X152258300Y-142241700D01*
X154250000Y-131190000D02*
X154250000Y-140250000D01*
%TO.N,Net-(D2-Pad4)*%
X86458300Y-142241700D02*
X91358300Y-137341700D01*
X65141700Y-142241700D02*
X86458300Y-142241700D01*
%TO.N,Net-(D3-Pad4)*%
X39725000Y-142241700D02*
X39741700Y-142241700D01*
X61941700Y-137341700D02*
X61941700Y-136091700D01*
X39725000Y-142241700D02*
X39758300Y-142241700D01*
X50725000Y-131275000D02*
X57125000Y-131275000D01*
X39758300Y-142241700D02*
X50725000Y-131275000D01*
X61941700Y-136091700D02*
X57125000Y-131275000D01*
%TO.N,Net-(D4-Pad4)*%
X36525000Y-137341700D02*
X26941700Y-137341700D01*
X26941700Y-137341700D02*
X8500000Y-118900000D01*
X8500000Y-114533300D02*
X11108300Y-111925000D01*
X8500000Y-118900000D02*
X8500000Y-114533300D01*
%TO.N,Net-(D5-Pad4)*%
X31625000Y-116825000D02*
X36525000Y-111925000D01*
X14308300Y-116825000D02*
X31625000Y-116825000D01*
%TO.N,Net-(D6-Pad4)*%
X57041700Y-116825000D02*
X61941700Y-111925000D01*
X39725000Y-116825000D02*
X57041700Y-116825000D01*
%TO.N,Net-(D7-Pad4)*%
X65141700Y-116825000D02*
X72875000Y-116825000D01*
X77775000Y-111925000D02*
X91358300Y-111925000D01*
X72875000Y-116825000D02*
X77775000Y-111925000D01*
%TO.N,Net-(D8-Pad4)*%
X111875000Y-116825000D02*
X116775000Y-111925000D01*
X94558300Y-116825000D02*
X111875000Y-116825000D01*
%TO.N,Net-(D11-Pad4)*%
X137291700Y-91408300D02*
X142191700Y-86508300D01*
X119975000Y-91408300D02*
X137291700Y-91408300D01*
%TO.N,Net-(D12-Pad4)*%
X111875000Y-91408300D02*
X116775000Y-86508300D01*
X94558300Y-91408300D02*
X111875000Y-91408300D01*
%TO.N,Net-(D13-Pad4)*%
X91358300Y-86508300D02*
X70041700Y-86508300D01*
X65141700Y-91408300D02*
X70041700Y-86508300D01*
%TO.N,Net-(D14-Pad4)*%
X44625000Y-86508300D02*
X39725000Y-91408300D01*
X61941700Y-86508300D02*
X44625000Y-86508300D01*
%TO.N,Net-(D15-Pad4)*%
X19208300Y-86508300D02*
X14308300Y-91408300D01*
X36525000Y-86508300D02*
X19208300Y-86508300D01*
%TO.N,Net-(D16-Pad4)*%
X11108300Y-86508300D02*
X9300000Y-84700000D01*
X9300000Y-62900000D02*
X11108300Y-61091700D01*
X9300000Y-84700000D02*
X9300000Y-62900000D01*
%TO.N,Net-(D17-Pad4)*%
X31625000Y-65991700D02*
X36525000Y-61091700D01*
X14308300Y-65991700D02*
X31625000Y-65991700D01*
%TO.N,Net-(D18-Pad4)*%
X57041700Y-65991700D02*
X61941700Y-61091700D01*
X39725000Y-65991700D02*
X57041700Y-65991700D01*
%TO.N,Net-(D19-Pad4)*%
X86458300Y-65991700D02*
X91358300Y-61091700D01*
X65141700Y-65991700D02*
X86458300Y-65991700D01*
%TO.N,Net-(D20-Pad4)*%
X111875000Y-65991700D02*
X116775000Y-61091700D01*
X94558300Y-65991700D02*
X111875000Y-65991700D01*
%TO.N,Net-(D21-Pad4)*%
X119975000Y-65991700D02*
X128808300Y-65991700D01*
X133708300Y-61091700D02*
X142191700Y-61091700D01*
X128808300Y-65991700D02*
X133708300Y-61091700D01*
%TO.N,Net-(D22-Pad4)*%
X145391700Y-65991700D02*
X145408300Y-65991700D01*
X145408300Y-65991700D02*
X147200000Y-64200000D01*
X147200000Y-42383300D02*
X145391700Y-40575000D01*
X147200000Y-64200000D02*
X147200000Y-42383300D01*
%TO.N,Net-(D23-Pad4)*%
X124875000Y-35675000D02*
X119975000Y-40575000D01*
X142191700Y-35675000D02*
X124875000Y-35675000D01*
%TO.N,Net-(D24-Pad4)*%
X99458300Y-35675000D02*
X94558300Y-40575000D01*
X116775000Y-35675000D02*
X99458300Y-35675000D01*
%TO.N,Net-(D25-Pad4)*%
X65141700Y-40575000D02*
X78425000Y-40575000D01*
X83325000Y-35675000D02*
X91358300Y-35675000D01*
X78425000Y-40575000D02*
X83325000Y-35675000D01*
%TO.N,Net-(D26-Pad4)*%
X44625000Y-35675000D02*
X39725000Y-40575000D01*
X61941700Y-35675000D02*
X44625000Y-35675000D01*
%TO.N,Net-(D27-Pad4)*%
X19208300Y-35675000D02*
X14308300Y-40575000D01*
X36525000Y-35675000D02*
X19208300Y-35675000D01*
%TO.N,Net-(D28-Pad4)*%
X11108300Y-35675000D02*
X8900000Y-33466700D01*
X8900000Y-12466600D02*
X11108300Y-10258300D01*
X8900000Y-33466700D02*
X8900000Y-12466600D01*
%TO.N,Net-(D29-Pad4)*%
X31625000Y-15158300D02*
X36525000Y-10258300D01*
X14308300Y-15158300D02*
X31625000Y-15158300D01*
%TO.N,Net-(D30-Pad4)*%
X57041700Y-15158300D02*
X61941700Y-10258300D01*
X39725000Y-15158300D02*
X57041700Y-15158300D01*
%TO.N,Net-(D31-Pad4)*%
X80558300Y-10258300D02*
X75658300Y-15158300D01*
X91358300Y-10258300D02*
X80558300Y-10258300D01*
X65141700Y-15158300D02*
X75658300Y-15158300D01*
%TO.N,Net-(D32-Pad4)*%
X111875000Y-15158300D02*
X116775000Y-10258300D01*
X94558300Y-15158300D02*
X111875000Y-15158300D01*
%TO.N,Net-(D33-Pad4)*%
X137291700Y-15158300D02*
X142191700Y-10258300D01*
X119975000Y-15158300D02*
X137291700Y-15158300D01*
%TO.N,Net-(D35-Pad1)*%
X84100000Y-18750000D02*
X87500000Y-15350000D01*
X78250000Y-18750000D02*
X84100000Y-18750000D01*
%TO.N,Net-(D36-Pad1)*%
X91300000Y-32750000D02*
X91350000Y-32800000D01*
X78250000Y-32750000D02*
X91300000Y-32750000D01*
%TO.N,Net-(D37-Pad1)*%
X67400000Y-46750000D02*
X65250000Y-44600000D01*
X78250000Y-46750000D02*
X67400000Y-46750000D01*
%TO.N,Net-(D38-Pad1)*%
X84600000Y-60750000D02*
X85500000Y-59850000D01*
X78250000Y-60750000D02*
X84600000Y-60750000D01*
%TO.N,Net-(D39-Pad1)*%
X78500000Y-74500000D02*
X78250000Y-74750000D01*
X78250000Y-74750000D02*
X78250000Y-74694000D01*
X114300000Y-74750000D02*
X118050000Y-71000000D01*
X78250000Y-74750000D02*
X114300000Y-74750000D01*
D26*
%TO.N,Net-(D40-Pad1)*%
X78250000Y-88750000D02*
X86900000Y-88750000D01*
%TO.N,Net-(D41-Pad1)*%
X78250000Y-99250000D02*
X78250000Y-102750000D01*
D27*
%TO.N,Net-(D42-Pad1)*%
X78250000Y-116750000D02*
X88100000Y-116750000D01*
%TO.N,Net-(D43-Pad1)*%
X78250000Y-130750000D02*
X78250000Y-127250000D01*
%TD*%
M02*
