%TF.GenerationSoftware,KiCad,Pcbnew,(5.1.10)-1*%
%TF.CreationDate,2021-09-15T07:53:10+09:00*%
%TF.ProjectId,hanClock,68616e43-6c6f-4636-9b2e-6b696361645f,rev?*%
%TF.SameCoordinates,Original*%
%TF.FileFunction,Copper,L2,Bot*%
%TF.FilePolarity,Positive*%
%FSLAX46Y46*%
G04 Gerber Fmt 4.6, Leading zero omitted, Abs format (unit mm)*
G04 Created by KiCad (PCBNEW (5.1.10)-1) date 2021-09-15 07:53:10*
%MOMM*%
%LPD*%
G01*
G04 APERTURE LIST*
%TA.AperFunction,ComponentPad*%
%ADD10O,1.600000X1.600000*%
%TD*%
%TA.AperFunction,ComponentPad*%
%ADD11C,1.600000*%
%TD*%
%TA.AperFunction,ComponentPad*%
%ADD12C,1.500000*%
%TD*%
%TA.AperFunction,ComponentPad*%
%ADD13C,1.200000*%
%TD*%
%TA.AperFunction,ComponentPad*%
%ADD14R,1.600000X1.600000*%
%TD*%
%TA.AperFunction,SMDPad,CuDef*%
%ADD15R,5.700000X2.500000*%
%TD*%
%TA.AperFunction,ComponentPad*%
%ADD16R,1.700000X1.700000*%
%TD*%
%TA.AperFunction,ComponentPad*%
%ADD17O,1.700000X1.700000*%
%TD*%
%TA.AperFunction,ComponentPad*%
%ADD18C,1.700000*%
%TD*%
%TA.AperFunction,ComponentPad*%
%ADD19C,1.000000*%
%TD*%
%TA.AperFunction,ComponentPad*%
%ADD20O,1.400000X1.400000*%
%TD*%
%TA.AperFunction,ComponentPad*%
%ADD21C,1.400000*%
%TD*%
%TA.AperFunction,ViaPad*%
%ADD22C,0.800000*%
%TD*%
%TA.AperFunction,ViaPad*%
%ADD23C,1.200000*%
%TD*%
%TA.AperFunction,Conductor*%
%ADD24C,0.500000*%
%TD*%
%TA.AperFunction,Conductor*%
%ADD25C,0.800000*%
%TD*%
%TA.AperFunction,Conductor*%
%ADD26C,0.400000*%
%TD*%
G04 APERTURE END LIST*
D10*
%TO.P,R14,2*%
%TO.N,Net-(Q1-Pad2)*%
X88300000Y-133860000D03*
D11*
%TO.P,R14,1*%
%TO.N,Net-(A1-Pad6)*%
X88300000Y-123700000D03*
%TD*%
D12*
%TO.P,SW3,*%
%TO.N,*%
X151750000Y-113250000D03*
X151750000Y-106250000D03*
D13*
%TO.P,SW3,2*%
%TO.N,GND*%
X154250000Y-112000000D03*
%TO.P,SW3,1*%
%TO.N,Net-(A1-Pad13)*%
X154250000Y-107500000D03*
%TD*%
D10*
%TO.P,A1,16*%
%TO.N,Net-(A1-Pad16)*%
X152060000Y-147740000D03*
%TO.P,A1,15*%
%TO.N,Net-(A1-Pad15)*%
X152060000Y-132500000D03*
%TO.P,A1,30*%
%TO.N,Net-(A1-Pad30)*%
X116500000Y-147740000D03*
%TO.P,A1,14*%
%TO.N,Net-(A1-Pad14)*%
X149520000Y-132500000D03*
%TO.P,A1,29*%
%TO.N,GND*%
X119040000Y-147740000D03*
%TO.P,A1,13*%
%TO.N,Net-(A1-Pad13)*%
X146980000Y-132500000D03*
%TO.P,A1,28*%
%TO.N,Net-(A1-Pad28)*%
X121580000Y-147740000D03*
%TO.P,A1,12*%
%TO.N,Net-(A1-Pad12)*%
X144440000Y-132500000D03*
%TO.P,A1,27*%
%TO.N,+5V*%
X124120000Y-147740000D03*
%TO.P,A1,11*%
%TO.N,Net-(A1-Pad11)*%
X141900000Y-132500000D03*
%TO.P,A1,26*%
%TO.N,Net-(A1-Pad26)*%
X126660000Y-147740000D03*
%TO.P,A1,10*%
%TO.N,Net-(A1-Pad10)*%
X139360000Y-132500000D03*
%TO.P,A1,25*%
%TO.N,Net-(A1-Pad25)*%
X129200000Y-147740000D03*
%TO.P,A1,9*%
%TO.N,Net-(A1-Pad9)*%
X136820000Y-132500000D03*
%TO.P,A1,24*%
%TO.N,Net-(A1-Pad24)*%
X131740000Y-147740000D03*
%TO.P,A1,8*%
%TO.N,Net-(A1-Pad8)*%
X134280000Y-132500000D03*
%TO.P,A1,23*%
%TO.N,Net-(A1-Pad23)*%
X134280000Y-147740000D03*
%TO.P,A1,7*%
%TO.N,Net-(A1-Pad7)*%
X131740000Y-132500000D03*
%TO.P,A1,22*%
%TO.N,Net-(A1-Pad22)*%
X136820000Y-147740000D03*
%TO.P,A1,6*%
%TO.N,Net-(A1-Pad6)*%
X129200000Y-132500000D03*
%TO.P,A1,21*%
%TO.N,Net-(A1-Pad21)*%
X139360000Y-147740000D03*
%TO.P,A1,5*%
%TO.N,Net-(A1-Pad5)*%
X126660000Y-132500000D03*
%TO.P,A1,20*%
%TO.N,Net-(A1-Pad20)*%
X141900000Y-147740000D03*
%TO.P,A1,4*%
%TO.N,GND*%
X124120000Y-132500000D03*
%TO.P,A1,19*%
%TO.N,Net-(A1-Pad19)*%
X144440000Y-147740000D03*
%TO.P,A1,3*%
%TO.N,Net-(A1-Pad3)*%
X121580000Y-132500000D03*
%TO.P,A1,18*%
%TO.N,Net-(A1-Pad18)*%
X146980000Y-147740000D03*
%TO.P,A1,2*%
%TO.N,Net-(A1-Pad2)*%
X119040000Y-132500000D03*
%TO.P,A1,17*%
%TO.N,Net-(A1-Pad17)*%
X149520000Y-147740000D03*
D14*
%TO.P,A1,1*%
%TO.N,Net-(A1-Pad1)*%
X116500000Y-132500000D03*
%TD*%
D15*
%TO.P,C35,2*%
%TO.N,+5V*%
X107350000Y-140716000D03*
%TO.P,C35,1*%
%TO.N,GND*%
X97650000Y-140716000D03*
%TD*%
D16*
%TO.P,J1,1*%
%TO.N,+5V*%
X144120000Y-45750000D03*
D17*
%TO.P,J1,2*%
%TO.N,Net-(A1-Pad11)*%
X141580000Y-45750000D03*
%TO.P,J1,3*%
%TO.N,Net-(J1-Pad3)*%
X139040000Y-45750000D03*
D18*
%TO.P,J1,4*%
%TO.N,GND*%
X136500000Y-45750000D03*
%TD*%
D19*
%TO.P,Q1,3*%
%TO.N,Net-(D35-Pad2)*%
X76250000Y-138325000D03*
%TO.P,Q1,2*%
%TO.N,Net-(Q1-Pad2)*%
X78250000Y-138325000D03*
%TO.P,Q1,1*%
%TO.N,+5V*%
X80250000Y-138325000D03*
%TD*%
D12*
%TO.P,SW2,*%
%TO.N,*%
X151750000Y-122750000D03*
X151750000Y-115750000D03*
D13*
%TO.P,SW2,2*%
%TO.N,GND*%
X154250000Y-121500000D03*
%TO.P,SW2,1*%
%TO.N,Net-(A1-Pad14)*%
X154250000Y-117000000D03*
%TD*%
D16*
%TO.P,J2,1*%
%TO.N,GND*%
X55500000Y-133050000D03*
D17*
%TO.P,J2,2*%
%TO.N,+5V*%
X55500000Y-135590000D03*
%TO.P,J2,3*%
%TO.N,Net-(A1-Pad23)*%
X55500000Y-138130000D03*
%TO.P,J2,4*%
%TO.N,Net-(A1-Pad24)*%
X55500000Y-140670000D03*
%TO.P,J2,5*%
%TO.N,Net-(J2-Pad5)*%
X55500000Y-143210000D03*
D18*
%TO.P,J2,6*%
%TO.N,Net-(J2-Pad6)*%
X55500000Y-145750000D03*
%TD*%
D10*
%TO.P,R1,2*%
%TO.N,Net-(D0-Pad2)*%
X151560000Y-128500000D03*
D11*
%TO.P,R1,1*%
%TO.N,Net-(A1-Pad9)*%
X141400000Y-128500000D03*
%TD*%
D10*
%TO.P,R2,2*%
%TO.N,+5V*%
X20760000Y-3500000D03*
D11*
%TO.P,R2,1*%
%TO.N,Net-(A1-Pad20)*%
X10600000Y-3500000D03*
%TD*%
D10*
%TO.P,R3,2*%
%TO.N,+5V*%
X144160000Y-52200000D03*
D11*
%TO.P,R3,1*%
%TO.N,Net-(A1-Pad11)*%
X134000000Y-52200000D03*
%TD*%
D13*
%TO.P,BZ1,2*%
%TO.N,GND*%
X133050000Y-98750000D03*
%TO.P,BZ1,1*%
%TO.N,Net-(A1-Pad10)*%
X127450000Y-98750000D03*
%TD*%
D20*
%TO.P,R4,2*%
%TO.N,Net-(A1-Pad20)*%
X3302000Y-3556000D03*
D21*
%TO.P,R4,1*%
%TO.N,GND*%
X5842000Y-3556000D03*
%TD*%
D12*
%TO.P,SW4,*%
%TO.N,*%
X151750000Y-97500000D03*
X151750000Y-90500000D03*
D13*
%TO.P,SW4,2*%
%TO.N,GND*%
X154250000Y-96250000D03*
%TO.P,SW4,1*%
%TO.N,Net-(A1-Pad12)*%
X154250000Y-91750000D03*
%TD*%
D17*
%TO.P,J3,4*%
%TO.N,Net-(A1-Pad7)*%
X113630000Y-45750000D03*
%TO.P,J3,3*%
%TO.N,Net-(A1-Pad8)*%
X116170000Y-45750000D03*
%TO.P,J3,2*%
%TO.N,GND*%
X118710000Y-45750000D03*
D16*
%TO.P,J3,1*%
%TO.N,+5V*%
X121250000Y-45750000D03*
%TD*%
D22*
%TO.N,GND*%
X95900000Y-31400000D03*
X124900000Y-72500000D03*
D23*
X94300000Y-144000000D03*
D22*
%TO.N,Net-(A1-Pad5)*%
X80600000Y-146200000D03*
D23*
%TO.N,+5V*%
X108900000Y-135600000D03*
X29500000Y-25100000D03*
D22*
%TO.N,Net-(D35-Pad2)*%
X76250000Y-133750000D03*
X76250000Y-119750000D03*
X76250000Y-105750000D03*
X76250000Y-91750000D03*
X76250000Y-77750000D03*
X76250000Y-63750000D03*
X76250000Y-49750000D03*
X76250000Y-35750000D03*
X76250000Y-21950000D03*
%TD*%
D24*
%TO.N,GND*%
X95900000Y-31400000D02*
X111300000Y-31400000D01*
X118710000Y-38810000D02*
X118710000Y-45750000D01*
X111300000Y-31400000D02*
X118710000Y-38810000D01*
D25*
X122420001Y-134199999D02*
X124120000Y-132500000D01*
X104166001Y-134199999D02*
X122420001Y-134199999D01*
X97650000Y-140716000D02*
X104166001Y-134199999D01*
D24*
X124900000Y-72500000D02*
X127500000Y-72500000D01*
X127500000Y-72500000D02*
X129000000Y-71000000D01*
X129000000Y-67000000D02*
X118710000Y-56710000D01*
X129000000Y-71000000D02*
X129000000Y-67000000D01*
X118710000Y-45750000D02*
X118710000Y-56710000D01*
D25*
X103039999Y-146139999D02*
X117439999Y-146139999D01*
X117439999Y-146139999D02*
X119040000Y-147740000D01*
X97650000Y-140750000D02*
X103039999Y-146139999D01*
X97650000Y-140716000D02*
X97650000Y-140750000D01*
X94300000Y-144000000D02*
X94300000Y-144000000D01*
X97584000Y-140716000D02*
X94300000Y-144000000D01*
X97650000Y-140716000D02*
X97584000Y-140716000D01*
D24*
%TO.N,Net-(A1-Pad5)*%
X96230000Y-130570000D02*
X94500000Y-132300000D01*
X80600000Y-146200000D02*
X94500000Y-132300000D01*
X124730000Y-130570000D02*
X96230000Y-130570000D01*
X124730000Y-130570000D02*
X126660000Y-132500000D01*
%TO.N,Net-(A1-Pad6)*%
X125300000Y-128600000D02*
X129200000Y-132500000D01*
X93200000Y-128600000D02*
X94000000Y-128600000D01*
X88300000Y-123700000D02*
X93200000Y-128600000D01*
X94000000Y-128600000D02*
X125300000Y-128600000D01*
%TO.N,Net-(A1-Pad7)*%
X113630000Y-114390000D02*
X113630000Y-45750000D01*
X131740000Y-132500000D02*
X113630000Y-114390000D01*
%TO.N,Net-(A1-Pad23)*%
X57250000Y-151250000D02*
X130770000Y-151250000D01*
X53815000Y-139815000D02*
X53815000Y-147815000D01*
X130770000Y-151250000D02*
X134280000Y-147740000D01*
X53815000Y-147815000D02*
X57250000Y-151250000D01*
X55500000Y-138130000D02*
X53815000Y-139815000D01*
D25*
%TO.N,Net-(A1-Pad8)*%
X134000000Y-132320000D02*
X133820000Y-132500000D01*
D24*
X116170000Y-114390000D02*
X134280000Y-132500000D01*
X116170000Y-45750000D02*
X116170000Y-114390000D01*
%TO.N,Net-(A1-Pad24)*%
X55500000Y-140670000D02*
X64330000Y-149500000D01*
X129980000Y-149500000D02*
X131740000Y-147740000D01*
X64330000Y-149500000D02*
X129980000Y-149500000D01*
%TO.N,Net-(A1-Pad10)*%
X139250000Y-132150000D02*
X138900000Y-132500000D01*
X127450000Y-120590000D02*
X139360000Y-132500000D01*
X127450000Y-98750000D02*
X127450000Y-120590000D01*
%TO.N,Net-(A1-Pad11)*%
X142850001Y-131549999D02*
X141900000Y-132500000D01*
X134000000Y-58899998D02*
X142850001Y-67749999D01*
X134000000Y-52200000D02*
X134000000Y-58899998D01*
X142850001Y-67749999D02*
X142850001Y-131549999D01*
X135130000Y-52200000D02*
X134000000Y-52200000D01*
X141580000Y-45750000D02*
X135130000Y-52200000D01*
D25*
%TO.N,+5V*%
X117096000Y-140716000D02*
X124120000Y-147740000D01*
X107350000Y-140716000D02*
X117096000Y-140716000D01*
X55500000Y-135590000D02*
X55710000Y-135590000D01*
X107350000Y-140716000D02*
X107316000Y-140716000D01*
X107350000Y-140716000D02*
X107350000Y-137150000D01*
X107350000Y-137150000D02*
X108900000Y-135600000D01*
X108900000Y-135600000D02*
X108900000Y-135600000D01*
X108900000Y-135600000D02*
X108900000Y-135600000D01*
X55500000Y-135590000D02*
X56990000Y-135590000D01*
X56990000Y-135590000D02*
X61400000Y-140000000D01*
X61400000Y-140000000D02*
X79200000Y-140000000D01*
X80250000Y-138950000D02*
X80250000Y-138325000D01*
X79200000Y-140000000D02*
X80250000Y-138950000D01*
X29500000Y-25100000D02*
X29500000Y-25100000D01*
D24*
X20760000Y-16360000D02*
X29500000Y-25100000D01*
X20760000Y-3500000D02*
X20760000Y-16360000D01*
%TO.N,Net-(A1-Pad12)*%
X144440000Y-120840000D02*
X144460000Y-120840000D01*
X144440000Y-132500000D02*
X144440000Y-120840000D01*
X144440000Y-101560000D02*
X154250000Y-91750000D01*
X144440000Y-120840000D02*
X144440000Y-101560000D01*
%TO.N,Net-(A1-Pad13)*%
X146980000Y-132500000D02*
X146980000Y-120820000D01*
X147900000Y-119900000D02*
X147900000Y-113850000D01*
X147900000Y-113850000D02*
X154250000Y-107500000D01*
X147900000Y-119900000D02*
X146980000Y-120820000D01*
%TO.N,Net-(A1-Pad14)*%
X149520000Y-121730000D02*
X154250000Y-117000000D01*
X149520000Y-132500000D02*
X149520000Y-121730000D01*
D26*
%TO.N,Net-(D35-Pad2)*%
X76250000Y-138325000D02*
X76250000Y-21950000D01*
X76250000Y-21950000D02*
X76250000Y-21950000D01*
D24*
%TO.N,Net-(Q1-Pad2)*%
X82715000Y-133860000D02*
X78250000Y-138325000D01*
X88300000Y-133860000D02*
X82715000Y-133860000D01*
%TD*%
M02*
