%TF.GenerationSoftware,KiCad,Pcbnew,(5.1.10)-1*%
%TF.CreationDate,2021-09-15T07:53:10+09:00*%
%TF.ProjectId,hanClock,68616e43-6c6f-4636-9b2e-6b696361645f,rev?*%
%TF.SameCoordinates,Original*%
%TF.FileFunction,Soldermask,Bot*%
%TF.FilePolarity,Negative*%
%FSLAX46Y46*%
G04 Gerber Fmt 4.6, Leading zero omitted, Abs format (unit mm)*
G04 Created by KiCad (PCBNEW (5.1.10)-1) date 2021-09-15 07:53:10*
%MOMM*%
%LPD*%
G01*
G04 APERTURE LIST*
%ADD10O,1.600000X1.600000*%
%ADD11C,1.600000*%
%ADD12C,1.500000*%
%ADD13C,1.200000*%
%ADD14R,1.600000X1.600000*%
%ADD15R,5.700000X2.500000*%
%ADD16R,1.700000X1.700000*%
%ADD17O,1.700000X1.700000*%
%ADD18C,1.700000*%
%ADD19C,1.000000*%
%ADD20O,1.400000X1.400000*%
%ADD21C,1.400000*%
G04 APERTURE END LIST*
D10*
%TO.C,R14*%
X88300000Y-133860000D03*
D11*
X88300000Y-123700000D03*
%TD*%
D12*
%TO.C,SW3*%
X151750000Y-113250000D03*
X151750000Y-106250000D03*
D13*
X154250000Y-112000000D03*
X154250000Y-107500000D03*
%TD*%
D10*
%TO.C,A1*%
X152060000Y-147740000D03*
X152060000Y-132500000D03*
X116500000Y-147740000D03*
X149520000Y-132500000D03*
X119040000Y-147740000D03*
X146980000Y-132500000D03*
X121580000Y-147740000D03*
X144440000Y-132500000D03*
X124120000Y-147740000D03*
X141900000Y-132500000D03*
X126660000Y-147740000D03*
X139360000Y-132500000D03*
X129200000Y-147740000D03*
X136820000Y-132500000D03*
X131740000Y-147740000D03*
X134280000Y-132500000D03*
X134280000Y-147740000D03*
X131740000Y-132500000D03*
X136820000Y-147740000D03*
X129200000Y-132500000D03*
X139360000Y-147740000D03*
X126660000Y-132500000D03*
X141900000Y-147740000D03*
X124120000Y-132500000D03*
X144440000Y-147740000D03*
X121580000Y-132500000D03*
X146980000Y-147740000D03*
X119040000Y-132500000D03*
X149520000Y-147740000D03*
D14*
X116500000Y-132500000D03*
%TD*%
D15*
%TO.C,C35*%
X107350000Y-140716000D03*
X97650000Y-140716000D03*
%TD*%
D16*
%TO.C,J1*%
X144120000Y-45750000D03*
D17*
X141580000Y-45750000D03*
X139040000Y-45750000D03*
D18*
X136500000Y-45750000D03*
%TD*%
D19*
%TO.C,Q1*%
X76250000Y-138325000D03*
X78250000Y-138325000D03*
X80250000Y-138325000D03*
%TD*%
D12*
%TO.C,SW2*%
X151750000Y-122750000D03*
X151750000Y-115750000D03*
D13*
X154250000Y-121500000D03*
X154250000Y-117000000D03*
%TD*%
D16*
%TO.C,J2*%
X55500000Y-133050000D03*
D17*
X55500000Y-135590000D03*
X55500000Y-138130000D03*
X55500000Y-140670000D03*
X55500000Y-143210000D03*
D18*
X55500000Y-145750000D03*
%TD*%
D10*
%TO.C,R1*%
X151560000Y-128500000D03*
D11*
X141400000Y-128500000D03*
%TD*%
D10*
%TO.C,R2*%
X20760000Y-3500000D03*
D11*
X10600000Y-3500000D03*
%TD*%
D10*
%TO.C,R3*%
X144160000Y-52200000D03*
D11*
X134000000Y-52200000D03*
%TD*%
D13*
%TO.C,BZ1*%
X133050000Y-98750000D03*
X127450000Y-98750000D03*
%TD*%
D20*
%TO.C,R4*%
X3302000Y-3556000D03*
D21*
X5842000Y-3556000D03*
%TD*%
D12*
%TO.C,SW4*%
X151750000Y-97500000D03*
X151750000Y-90500000D03*
D13*
X154250000Y-96250000D03*
X154250000Y-91750000D03*
%TD*%
D17*
%TO.C,J3*%
X113630000Y-45750000D03*
X116170000Y-45750000D03*
X118710000Y-45750000D03*
D16*
X121250000Y-45750000D03*
%TD*%
M02*
