%TF.GenerationSoftware,KiCad,Pcbnew,(5.1.10)-1*%
%TF.CreationDate,2021-08-20T16:32:08+09:00*%
%TF.ProjectId,hanClock,68616e43-6c6f-4636-9b2e-6b696361645f,rev?*%
%TF.SameCoordinates,Original*%
%TF.FileFunction,Legend,Bot*%
%TF.FilePolarity,Positive*%
%FSLAX46Y46*%
G04 Gerber Fmt 4.6, Leading zero omitted, Abs format (unit mm)*
G04 Created by KiCad (PCBNEW (5.1.10)-1) date 2021-08-20 16:32:08*
%MOMM*%
%LPD*%
G01*
G04 APERTURE LIST*
%ADD10C,0.500000*%
%ADD11C,0.300000*%
%ADD12C,0.100000*%
%ADD13C,0.120000*%
%ADD14C,0.150000*%
G04 APERTURE END LIST*
D10*
X135411000Y-122047142D02*
X135411000Y-119047142D01*
X134411000Y-121190000D01*
X133411000Y-119047142D01*
X133411000Y-122047142D01*
X130696714Y-122047142D02*
X130696714Y-120475714D01*
X130839571Y-120190000D01*
X131125285Y-120047142D01*
X131696714Y-120047142D01*
X131982428Y-120190000D01*
X130696714Y-121904285D02*
X130982428Y-122047142D01*
X131696714Y-122047142D01*
X131982428Y-121904285D01*
X132125285Y-121618571D01*
X132125285Y-121332857D01*
X131982428Y-121047142D01*
X131696714Y-120904285D01*
X130982428Y-120904285D01*
X130696714Y-120761428D01*
X127982428Y-122047142D02*
X127982428Y-119047142D01*
X127982428Y-121904285D02*
X128268142Y-122047142D01*
X128839571Y-122047142D01*
X129125285Y-121904285D01*
X129268142Y-121761428D01*
X129411000Y-121475714D01*
X129411000Y-120618571D01*
X129268142Y-120332857D01*
X129125285Y-120190000D01*
X128839571Y-120047142D01*
X128268142Y-120047142D01*
X127982428Y-120190000D01*
X125411000Y-121904285D02*
X125696714Y-122047142D01*
X126268142Y-122047142D01*
X126553857Y-121904285D01*
X126696714Y-121618571D01*
X126696714Y-120475714D01*
X126553857Y-120190000D01*
X126268142Y-120047142D01*
X125696714Y-120047142D01*
X125411000Y-120190000D01*
X125268142Y-120475714D01*
X125268142Y-120761428D01*
X126696714Y-121047142D01*
X121696714Y-122047142D02*
X121696714Y-119047142D01*
X121696714Y-120190000D02*
X121411000Y-120047142D01*
X120839571Y-120047142D01*
X120553857Y-120190000D01*
X120411000Y-120332857D01*
X120268142Y-120618571D01*
X120268142Y-121475714D01*
X120411000Y-121761428D01*
X120553857Y-121904285D01*
X120839571Y-122047142D01*
X121411000Y-122047142D01*
X121696714Y-121904285D01*
X119268142Y-120047142D02*
X118553857Y-122047142D01*
X117839571Y-120047142D02*
X118553857Y-122047142D01*
X118839571Y-122761428D01*
X118982428Y-122904285D01*
X119268142Y-123047142D01*
X113125285Y-120047142D02*
X113125285Y-122475714D01*
X113268142Y-122761428D01*
X113411000Y-122904285D01*
X113696714Y-123047142D01*
X114125285Y-123047142D01*
X114411000Y-122904285D01*
X113125285Y-121904285D02*
X113411000Y-122047142D01*
X113982428Y-122047142D01*
X114268142Y-121904285D01*
X114411000Y-121761428D01*
X114553857Y-121475714D01*
X114553857Y-120618571D01*
X114411000Y-120332857D01*
X114268142Y-120190000D01*
X113982428Y-120047142D01*
X113411000Y-120047142D01*
X113125285Y-120190000D01*
X111268142Y-122047142D02*
X111553857Y-121904285D01*
X111696714Y-121761428D01*
X111839571Y-121475714D01*
X111839571Y-120618571D01*
X111696714Y-120332857D01*
X111553857Y-120190000D01*
X111268142Y-120047142D01*
X110839571Y-120047142D01*
X110553857Y-120190000D01*
X110411000Y-120332857D01*
X110268142Y-120618571D01*
X110268142Y-121475714D01*
X110411000Y-121761428D01*
X110553857Y-121904285D01*
X110839571Y-122047142D01*
X111268142Y-122047142D01*
X107696714Y-120047142D02*
X107696714Y-122475714D01*
X107839571Y-122761428D01*
X107982428Y-122904285D01*
X108268142Y-123047142D01*
X108696714Y-123047142D01*
X108982428Y-122904285D01*
X107696714Y-121904285D02*
X107982428Y-122047142D01*
X108553857Y-122047142D01*
X108839571Y-121904285D01*
X108982428Y-121761428D01*
X109125285Y-121475714D01*
X109125285Y-120618571D01*
X108982428Y-120332857D01*
X108839571Y-120190000D01*
X108553857Y-120047142D01*
X107982428Y-120047142D01*
X107696714Y-120190000D01*
X105839571Y-122047142D02*
X106125285Y-121904285D01*
X106268142Y-121761428D01*
X106411000Y-121475714D01*
X106411000Y-120618571D01*
X106268142Y-120332857D01*
X106125285Y-120190000D01*
X105839571Y-120047142D01*
X105411000Y-120047142D01*
X105125285Y-120190000D01*
X104982428Y-120332857D01*
X104839571Y-120618571D01*
X104839571Y-121475714D01*
X104982428Y-121761428D01*
X105125285Y-121904285D01*
X105411000Y-122047142D01*
X105839571Y-122047142D01*
X103553857Y-122047142D02*
X103553857Y-120047142D01*
X103553857Y-120332857D02*
X103411000Y-120190000D01*
X103125285Y-120047142D01*
X102696714Y-120047142D01*
X102411000Y-120190000D01*
X102268142Y-120475714D01*
X102268142Y-122047142D01*
X102268142Y-120475714D02*
X102125285Y-120190000D01*
X101839571Y-120047142D01*
X101411000Y-120047142D01*
X101125285Y-120190000D01*
X100982428Y-120475714D01*
X100982428Y-122047142D01*
X98268142Y-122047142D02*
X98268142Y-120475714D01*
X98411000Y-120190000D01*
X98696714Y-120047142D01*
X99268142Y-120047142D01*
X99553857Y-120190000D01*
X98268142Y-121904285D02*
X98553857Y-122047142D01*
X99268142Y-122047142D01*
X99553857Y-121904285D01*
X99696714Y-121618571D01*
X99696714Y-121332857D01*
X99553857Y-121047142D01*
X99268142Y-120904285D01*
X98553857Y-120904285D01*
X98268142Y-120761428D01*
X96839571Y-122047142D02*
X96839571Y-119047142D01*
X96553857Y-120904285D02*
X95696714Y-122047142D01*
X95696714Y-120047142D02*
X96839571Y-121190000D01*
X93268142Y-121904285D02*
X93553857Y-122047142D01*
X94125285Y-122047142D01*
X94411000Y-121904285D01*
X94553857Y-121618571D01*
X94553857Y-120475714D01*
X94411000Y-120190000D01*
X94125285Y-120047142D01*
X93553857Y-120047142D01*
X93268142Y-120190000D01*
X93125285Y-120475714D01*
X93125285Y-120761428D01*
X94553857Y-121047142D01*
X91839571Y-122047142D02*
X91839571Y-120047142D01*
X91839571Y-120618571D02*
X91696714Y-120332857D01*
X91553857Y-120190000D01*
X91268142Y-120047142D01*
X90982428Y-120047142D01*
X131625285Y-127047142D02*
X131625285Y-124047142D01*
X131625285Y-125475714D02*
X129911000Y-125475714D01*
X129911000Y-127047142D02*
X129911000Y-124047142D01*
X128482428Y-125047142D02*
X128482428Y-127047142D01*
X128482428Y-125332857D02*
X128339571Y-125190000D01*
X128053857Y-125047142D01*
X127625285Y-125047142D01*
X127339571Y-125190000D01*
X127196714Y-125475714D01*
X127196714Y-127047142D01*
X124482428Y-127047142D02*
X124482428Y-125475714D01*
X124625285Y-125190000D01*
X124911000Y-125047142D01*
X125482428Y-125047142D01*
X125768142Y-125190000D01*
X124482428Y-126904285D02*
X124768142Y-127047142D01*
X125482428Y-127047142D01*
X125768142Y-126904285D01*
X125911000Y-126618571D01*
X125911000Y-126332857D01*
X125768142Y-126047142D01*
X125482428Y-125904285D01*
X124768142Y-125904285D01*
X124482428Y-125761428D01*
X121768142Y-125047142D02*
X121768142Y-127475714D01*
X121911000Y-127761428D01*
X122053857Y-127904285D01*
X122339571Y-128047142D01*
X122768142Y-128047142D01*
X123053857Y-127904285D01*
X121768142Y-126904285D02*
X122053857Y-127047142D01*
X122625285Y-127047142D01*
X122911000Y-126904285D01*
X123053857Y-126761428D01*
X123196714Y-126475714D01*
X123196714Y-125618571D01*
X123053857Y-125332857D01*
X122911000Y-125190000D01*
X122625285Y-125047142D01*
X122053857Y-125047142D01*
X121768142Y-125190000D01*
X119196714Y-126904285D02*
X119482428Y-127047142D01*
X120053857Y-127047142D01*
X120339571Y-126904285D01*
X120482428Y-126618571D01*
X120482428Y-125475714D01*
X120339571Y-125190000D01*
X120053857Y-125047142D01*
X119482428Y-125047142D01*
X119196714Y-125190000D01*
X119053857Y-125475714D01*
X119053857Y-125761428D01*
X120482428Y-126047142D01*
X116482428Y-125047142D02*
X116482428Y-127047142D01*
X117768142Y-125047142D02*
X117768142Y-126618571D01*
X117625285Y-126904285D01*
X117339571Y-127047142D01*
X116911000Y-127047142D01*
X116625285Y-126904285D01*
X116482428Y-126761428D01*
X114625285Y-127047142D02*
X114911000Y-126904285D01*
X115053857Y-126618571D01*
X115053857Y-124047142D01*
X111768142Y-126761428D02*
X111911000Y-126904285D01*
X112339571Y-127047142D01*
X112625285Y-127047142D01*
X113053857Y-126904285D01*
X113339571Y-126618571D01*
X113482428Y-126332857D01*
X113625285Y-125761428D01*
X113625285Y-125332857D01*
X113482428Y-124761428D01*
X113339571Y-124475714D01*
X113053857Y-124190000D01*
X112625285Y-124047142D01*
X112339571Y-124047142D01*
X111911000Y-124190000D01*
X111768142Y-124332857D01*
X110053857Y-127047142D02*
X110339571Y-126904285D01*
X110482428Y-126618571D01*
X110482428Y-124047142D01*
X108482428Y-127047142D02*
X108768142Y-126904285D01*
X108911000Y-126761428D01*
X109053857Y-126475714D01*
X109053857Y-125618571D01*
X108911000Y-125332857D01*
X108768142Y-125190000D01*
X108482428Y-125047142D01*
X108053857Y-125047142D01*
X107768142Y-125190000D01*
X107625285Y-125332857D01*
X107482428Y-125618571D01*
X107482428Y-126475714D01*
X107625285Y-126761428D01*
X107768142Y-126904285D01*
X108053857Y-127047142D01*
X108482428Y-127047142D01*
X104911000Y-126904285D02*
X105196714Y-127047142D01*
X105768142Y-127047142D01*
X106053857Y-126904285D01*
X106196714Y-126761428D01*
X106339571Y-126475714D01*
X106339571Y-125618571D01*
X106196714Y-125332857D01*
X106053857Y-125190000D01*
X105768142Y-125047142D01*
X105196714Y-125047142D01*
X104911000Y-125190000D01*
X103625285Y-127047142D02*
X103625285Y-124047142D01*
X103339571Y-125904285D02*
X102482428Y-127047142D01*
X102482428Y-125047142D02*
X103625285Y-126190000D01*
X99196714Y-125047142D02*
X98482428Y-127047142D01*
X97768142Y-125047142D01*
X96768142Y-124332857D02*
X96625285Y-124190000D01*
X96339571Y-124047142D01*
X95625285Y-124047142D01*
X95339571Y-124190000D01*
X95196714Y-124332857D01*
X95053857Y-124618571D01*
X95053857Y-124904285D01*
X95196714Y-125332857D01*
X96911000Y-127047142D01*
X95053857Y-127047142D01*
D11*
X101428571Y-39000000D02*
X102928571Y-39500000D01*
X101428571Y-40000000D01*
X102785714Y-41357142D02*
X102857142Y-41285714D01*
X102928571Y-41071428D01*
X102928571Y-40928571D01*
X102857142Y-40714285D01*
X102714285Y-40571428D01*
X102571428Y-40500000D01*
X102285714Y-40428571D01*
X102071428Y-40428571D01*
X101785714Y-40500000D01*
X101642857Y-40571428D01*
X101500000Y-40714285D01*
X101428571Y-40928571D01*
X101428571Y-41071428D01*
X101500000Y-41285714D01*
X101571428Y-41357142D01*
X102785714Y-42857142D02*
X102857142Y-42785714D01*
X102928571Y-42571428D01*
X102928571Y-42428571D01*
X102857142Y-42214285D01*
X102714285Y-42071428D01*
X102571428Y-42000000D01*
X102285714Y-41928571D01*
X102071428Y-41928571D01*
X101785714Y-42000000D01*
X101642857Y-42071428D01*
X101500000Y-42214285D01*
X101428571Y-42428571D01*
X101428571Y-42571428D01*
X101500000Y-42785714D01*
X101571428Y-42857142D01*
D12*
%TO.C,Q1*%
X75965755Y-145152773D02*
G75*
G03*
X80550000Y-145050000I2284245J402773D01*
G01*
X80050000Y-143730000D02*
X76450000Y-143730000D01*
D13*
%TO.C,SW2*%
X155500000Y-115000000D02*
X150500000Y-115000000D01*
X155500000Y-123500000D02*
X155500000Y-115000000D01*
X150500000Y-123500000D02*
X155500000Y-123500000D01*
X150500000Y-115000000D02*
X150500000Y-123500000D01*
%TO.C,J2*%
X56830000Y-132750000D02*
X56830000Y-131640000D01*
X56830000Y-131640000D02*
X55500000Y-131640000D01*
X45410000Y-147080000D02*
X45410000Y-131720000D01*
X45410000Y-131720000D02*
X54040000Y-131720000D01*
X54040000Y-147080000D02*
X54040000Y-131720000D01*
X45410000Y-147080000D02*
X54040000Y-147080000D01*
X45410000Y-134320000D02*
X54040000Y-134320000D01*
X45410000Y-136860000D02*
X54040000Y-136860000D01*
X45410000Y-139400000D02*
X54040000Y-139400000D01*
X45410000Y-141940000D02*
X54040000Y-141940000D01*
X45410000Y-144480000D02*
X54040000Y-144480000D01*
X54040000Y-132690000D02*
X54450000Y-132690000D01*
X54040000Y-133410000D02*
X54450000Y-133410000D01*
X54040000Y-135230000D02*
X54450000Y-135230000D01*
X54040000Y-135950000D02*
X54450000Y-135950000D01*
X54040000Y-137770000D02*
X54450000Y-137770000D01*
X54040000Y-138490000D02*
X54450000Y-138490000D01*
X54040000Y-140310000D02*
X54450000Y-140310000D01*
X54040000Y-141030000D02*
X54450000Y-141030000D01*
X54040000Y-142850000D02*
X54450000Y-142850000D01*
X54040000Y-143570000D02*
X54450000Y-143570000D01*
X54040000Y-145390000D02*
X54390000Y-145390000D01*
X54040000Y-146110000D02*
X54390000Y-146110000D01*
X45410000Y-131898100D02*
X54040000Y-131898100D01*
X45410000Y-132016195D02*
X54040000Y-132016195D01*
X45410000Y-132134290D02*
X54040000Y-132134290D01*
X45410000Y-132252385D02*
X54040000Y-132252385D01*
X45410000Y-132370480D02*
X54040000Y-132370480D01*
X45410000Y-132488575D02*
X54040000Y-132488575D01*
X45410000Y-132606670D02*
X54040000Y-132606670D01*
X45410000Y-132724765D02*
X54040000Y-132724765D01*
X45410000Y-132842860D02*
X54040000Y-132842860D01*
X45410000Y-132960955D02*
X54040000Y-132960955D01*
X45410000Y-133079050D02*
X54040000Y-133079050D01*
X45410000Y-133197145D02*
X54040000Y-133197145D01*
X45410000Y-133315240D02*
X54040000Y-133315240D01*
X45410000Y-133433335D02*
X54040000Y-133433335D01*
X45410000Y-133551430D02*
X54040000Y-133551430D01*
X45410000Y-133669525D02*
X54040000Y-133669525D01*
X45410000Y-133787620D02*
X54040000Y-133787620D01*
X45410000Y-133905715D02*
X54040000Y-133905715D01*
X45410000Y-134023810D02*
X54040000Y-134023810D01*
X45410000Y-134141905D02*
X54040000Y-134141905D01*
X45410000Y-134260000D02*
X54040000Y-134260000D01*
X44900000Y-150925000D02*
X5900000Y-150925000D01*
X44900000Y-127925000D02*
X5900000Y-127925000D01*
X5900000Y-150925000D02*
X5900000Y-127925000D01*
%TO.C,J1*%
X142990000Y-35660000D02*
X142990000Y-44290000D01*
X143108095Y-35660000D02*
X143108095Y-44290000D01*
X143226190Y-35660000D02*
X143226190Y-44290000D01*
X143344285Y-35660000D02*
X143344285Y-44290000D01*
X143462380Y-35660000D02*
X143462380Y-44290000D01*
X143580475Y-35660000D02*
X143580475Y-44290000D01*
X143698570Y-35660000D02*
X143698570Y-44290000D01*
X143816665Y-35660000D02*
X143816665Y-44290000D01*
X143934760Y-35660000D02*
X143934760Y-44290000D01*
X144052855Y-35660000D02*
X144052855Y-44290000D01*
X144170950Y-35660000D02*
X144170950Y-44290000D01*
X144289045Y-35660000D02*
X144289045Y-44290000D01*
X144407140Y-35660000D02*
X144407140Y-44290000D01*
X144525235Y-35660000D02*
X144525235Y-44290000D01*
X144643330Y-35660000D02*
X144643330Y-44290000D01*
X144761425Y-35660000D02*
X144761425Y-44290000D01*
X144879520Y-35660000D02*
X144879520Y-44290000D01*
X144997615Y-35660000D02*
X144997615Y-44290000D01*
X145115710Y-35660000D02*
X145115710Y-44290000D01*
X145233805Y-35660000D02*
X145233805Y-44290000D01*
X145351900Y-35660000D02*
X145351900Y-44290000D01*
X136140000Y-44290000D02*
X136140000Y-44640000D01*
X136860000Y-44290000D02*
X136860000Y-44640000D01*
X138680000Y-44290000D02*
X138680000Y-44700000D01*
X139400000Y-44290000D02*
X139400000Y-44700000D01*
X141220000Y-44290000D02*
X141220000Y-44700000D01*
X141940000Y-44290000D02*
X141940000Y-44700000D01*
X143760000Y-44290000D02*
X143760000Y-44700000D01*
X144480000Y-44290000D02*
X144480000Y-44700000D01*
X137770000Y-35660000D02*
X137770000Y-44290000D01*
X140310000Y-35660000D02*
X140310000Y-44290000D01*
X142850000Y-35660000D02*
X142850000Y-44290000D01*
X135170000Y-35660000D02*
X135170000Y-44290000D01*
X135170000Y-44290000D02*
X145450000Y-44290000D01*
X145450000Y-35660000D02*
X145450000Y-44290000D01*
X135170000Y-35660000D02*
X145450000Y-35660000D01*
X145410000Y-46980000D02*
X145410000Y-45650000D01*
X144300000Y-46980000D02*
X145410000Y-46980000D01*
X132350000Y-35150000D02*
X132350000Y-9150000D01*
X148350000Y-35150000D02*
X148350000Y-9150000D01*
X132350000Y-9150000D02*
X148350000Y-9150000D01*
%TO.C,R1*%
X149370000Y-128000000D02*
X148600000Y-128000000D01*
X141290000Y-128000000D02*
X142060000Y-128000000D01*
X148600000Y-129370000D02*
X142060000Y-129370000D01*
X148600000Y-126630000D02*
X148600000Y-129370000D01*
X142060000Y-126630000D02*
X148600000Y-126630000D01*
X142060000Y-129370000D02*
X142060000Y-126630000D01*
%TO.C,R2*%
X28620000Y-5000000D02*
X27850000Y-5000000D01*
X20540000Y-5000000D02*
X21310000Y-5000000D01*
X27850000Y-6370000D02*
X21310000Y-6370000D01*
X27850000Y-3630000D02*
X27850000Y-6370000D01*
X21310000Y-3630000D02*
X27850000Y-3630000D01*
X21310000Y-6370000D02*
X21310000Y-3630000D01*
%TO.C,R3*%
X137120000Y-52500000D02*
X136350000Y-52500000D01*
X129040000Y-52500000D02*
X129810000Y-52500000D01*
X136350000Y-53870000D02*
X129810000Y-53870000D01*
X136350000Y-51130000D02*
X136350000Y-53870000D01*
X129810000Y-51130000D02*
X136350000Y-51130000D01*
X129810000Y-53870000D02*
X129810000Y-51130000D01*
%TO.C,C1*%
X103004000Y-135716000D02*
X100504000Y-133216000D01*
X103004000Y-145416000D02*
X100204000Y-148216000D01*
X88004000Y-142316000D02*
X88004000Y-148216000D01*
X87504000Y-139116000D02*
X87504000Y-142316000D01*
X88004000Y-139116000D02*
X87504000Y-139116000D01*
X88004000Y-133216000D02*
X88004000Y-139116000D01*
X103004000Y-139116000D02*
X103004000Y-133216000D01*
X103504000Y-139116000D02*
X103004000Y-139116000D01*
X103504000Y-142316000D02*
X103504000Y-139116000D01*
X103004000Y-142316000D02*
X103504000Y-142316000D01*
X103004000Y-148216000D02*
X103004000Y-142316000D01*
X88004000Y-148216000D02*
X103004000Y-148216000D01*
X88004000Y-133216000D02*
X103004000Y-133216000D01*
X87504000Y-142316000D02*
X88004000Y-142316000D01*
%TO.C,A1*%
X109560000Y-149140000D02*
X109560000Y-131100000D01*
X153000000Y-149140000D02*
X109560000Y-149140000D01*
X153000000Y-131100000D02*
X153000000Y-149140000D01*
X150330000Y-133770000D02*
X150330000Y-131100000D01*
X114770000Y-133770000D02*
X150330000Y-133770000D01*
X114770000Y-133770000D02*
X114770000Y-131100000D01*
X150330000Y-146470000D02*
X150330000Y-149140000D01*
X112230000Y-146470000D02*
X150330000Y-146470000D01*
X112230000Y-146470000D02*
X112230000Y-149140000D01*
X109560000Y-131100000D02*
X112230000Y-131100000D01*
X114770000Y-131100000D02*
X153000000Y-131100000D01*
X112230000Y-133770000D02*
X112230000Y-131100000D01*
X114770000Y-133770000D02*
X112230000Y-133770000D01*
%TO.C,BZ1*%
X134750000Y-98750000D02*
G75*
G03*
X134750000Y-98750000I-4500000J0D01*
G01*
%TO.C,R4*%
X4922000Y-3556000D02*
X4302000Y-3556000D01*
X6762000Y-3556000D02*
G75*
G03*
X6762000Y-3556000I-920000J0D01*
G01*
%TO.C,SW3*%
X155500000Y-105500000D02*
X150500000Y-105500000D01*
X155500000Y-114000000D02*
X155500000Y-105500000D01*
X150500000Y-114000000D02*
X155500000Y-114000000D01*
X150500000Y-105500000D02*
X150500000Y-114000000D01*
%TO.C,SW4*%
X155500000Y-89750000D02*
X150500000Y-89750000D01*
X155500000Y-98250000D02*
X155500000Y-89750000D01*
X150500000Y-98250000D02*
X155500000Y-98250000D01*
X150500000Y-89750000D02*
X150500000Y-98250000D01*
%TO.C,J3*%
X122580000Y-45750000D02*
X122580000Y-44420000D01*
X122580000Y-44420000D02*
X121250000Y-44420000D01*
X119980000Y-44420000D02*
X112300000Y-44420000D01*
X112300000Y-47080000D02*
X112300000Y-44420000D01*
X119980000Y-47080000D02*
X112300000Y-47080000D01*
X119980000Y-47080000D02*
X119980000Y-44420000D01*
%TO.C,Q1*%
D14*
X78345238Y-148497619D02*
X78440476Y-148450000D01*
X78535714Y-148354761D01*
X78678571Y-148211904D01*
X78773809Y-148164285D01*
X78869047Y-148164285D01*
X78821428Y-148402380D02*
X78916666Y-148354761D01*
X79011904Y-148259523D01*
X79059523Y-148069047D01*
X79059523Y-147735714D01*
X79011904Y-147545238D01*
X78916666Y-147450000D01*
X78821428Y-147402380D01*
X78630952Y-147402380D01*
X78535714Y-147450000D01*
X78440476Y-147545238D01*
X78392857Y-147735714D01*
X78392857Y-148069047D01*
X78440476Y-148259523D01*
X78535714Y-148354761D01*
X78630952Y-148402380D01*
X78821428Y-148402380D01*
X77440476Y-148402380D02*
X78011904Y-148402380D01*
X77726190Y-148402380D02*
X77726190Y-147402380D01*
X77821428Y-147545238D01*
X77916666Y-147640476D01*
X78011904Y-147688095D01*
X80107142Y-142878571D02*
X79964285Y-142926190D01*
X79916666Y-142973809D01*
X79869047Y-143069047D01*
X79869047Y-143211904D01*
X79916666Y-143307142D01*
X79964285Y-143354761D01*
X80059523Y-143402380D01*
X80440476Y-143402380D01*
X80440476Y-142402380D01*
X80107142Y-142402380D01*
X80011904Y-142450000D01*
X79964285Y-142497619D01*
X79916666Y-142592857D01*
X79916666Y-142688095D01*
X79964285Y-142783333D01*
X80011904Y-142830952D01*
X80107142Y-142878571D01*
X80440476Y-142878571D01*
X78869047Y-143307142D02*
X78916666Y-143354761D01*
X79059523Y-143402380D01*
X79154761Y-143402380D01*
X79297619Y-143354761D01*
X79392857Y-143259523D01*
X79440476Y-143164285D01*
X79488095Y-142973809D01*
X79488095Y-142830952D01*
X79440476Y-142640476D01*
X79392857Y-142545238D01*
X79297619Y-142450000D01*
X79154761Y-142402380D01*
X79059523Y-142402380D01*
X78916666Y-142450000D01*
X78869047Y-142497619D01*
X77964285Y-142402380D02*
X78440476Y-142402380D01*
X78488095Y-142878571D01*
X78440476Y-142830952D01*
X78345238Y-142783333D01*
X78107142Y-142783333D01*
X78011904Y-142830952D01*
X77964285Y-142878571D01*
X77916666Y-142973809D01*
X77916666Y-143211904D01*
X77964285Y-143307142D01*
X78011904Y-143354761D01*
X78107142Y-143402380D01*
X78345238Y-143402380D01*
X78440476Y-143354761D01*
X78488095Y-143307142D01*
X77059523Y-142735714D02*
X77059523Y-143402380D01*
X77297619Y-142354761D02*
X77535714Y-143069047D01*
X76916666Y-143069047D01*
X76630952Y-142402380D02*
X75964285Y-142402380D01*
X76392857Y-143402380D01*
%TO.C,SW2*%
X151904761Y-117916666D02*
X151952380Y-118059523D01*
X151952380Y-118297619D01*
X151904761Y-118392857D01*
X151857142Y-118440476D01*
X151761904Y-118488095D01*
X151666666Y-118488095D01*
X151571428Y-118440476D01*
X151523809Y-118392857D01*
X151476190Y-118297619D01*
X151428571Y-118107142D01*
X151380952Y-118011904D01*
X151333333Y-117964285D01*
X151238095Y-117916666D01*
X151142857Y-117916666D01*
X151047619Y-117964285D01*
X151000000Y-118011904D01*
X150952380Y-118107142D01*
X150952380Y-118345238D01*
X151000000Y-118488095D01*
X150952380Y-118821428D02*
X151952380Y-119059523D01*
X151238095Y-119250000D01*
X151952380Y-119440476D01*
X150952380Y-119678571D01*
X151047619Y-120011904D02*
X151000000Y-120059523D01*
X150952380Y-120154761D01*
X150952380Y-120392857D01*
X151000000Y-120488095D01*
X151047619Y-120535714D01*
X151142857Y-120583333D01*
X151238095Y-120583333D01*
X151380952Y-120535714D01*
X151952380Y-119964285D01*
X151952380Y-120583333D01*
X149666666Y-115797619D02*
X149666666Y-116273809D01*
X149952380Y-115702380D02*
X148952380Y-116035714D01*
X149952380Y-116369047D01*
X149952380Y-117178571D02*
X149952380Y-116702380D01*
X148952380Y-116702380D01*
X149666666Y-117464285D02*
X149666666Y-117940476D01*
X149952380Y-117369047D02*
X148952380Y-117702380D01*
X149952380Y-118035714D01*
X149952380Y-118940476D02*
X149476190Y-118607142D01*
X149952380Y-118369047D02*
X148952380Y-118369047D01*
X148952380Y-118750000D01*
X149000000Y-118845238D01*
X149047619Y-118892857D01*
X149142857Y-118940476D01*
X149285714Y-118940476D01*
X149380952Y-118892857D01*
X149428571Y-118845238D01*
X149476190Y-118750000D01*
X149476190Y-118369047D01*
X149952380Y-119369047D02*
X148952380Y-119369047D01*
X149666666Y-119702380D01*
X148952380Y-120035714D01*
X149952380Y-120035714D01*
X150047619Y-120273809D02*
X150047619Y-121035714D01*
X149904761Y-121226190D02*
X149952380Y-121321428D01*
X149952380Y-121511904D01*
X149904761Y-121607142D01*
X149809523Y-121654761D01*
X149761904Y-121654761D01*
X149666666Y-121607142D01*
X149619047Y-121511904D01*
X149619047Y-121369047D01*
X149571428Y-121273809D01*
X149476190Y-121226190D01*
X149428571Y-121226190D01*
X149333333Y-121273809D01*
X149285714Y-121369047D01*
X149285714Y-121511904D01*
X149333333Y-121607142D01*
X149285714Y-121988095D02*
X149952380Y-122178571D01*
X149476190Y-122369047D01*
X149952380Y-122559523D01*
X149285714Y-122750000D01*
%TO.C,J2*%
X55833333Y-147972380D02*
X55833333Y-148686666D01*
X55880952Y-148829523D01*
X55976190Y-148924761D01*
X56119047Y-148972380D01*
X56214285Y-148972380D01*
X55404761Y-148067619D02*
X55357142Y-148020000D01*
X55261904Y-147972380D01*
X55023809Y-147972380D01*
X54928571Y-148020000D01*
X54880952Y-148067619D01*
X54833333Y-148162857D01*
X54833333Y-148258095D01*
X54880952Y-148400952D01*
X55452380Y-148972380D01*
X54833333Y-148972380D01*
X58142857Y-130732380D02*
X58142857Y-129732380D01*
X57904761Y-129732380D01*
X57761904Y-129780000D01*
X57666666Y-129875238D01*
X57619047Y-129970476D01*
X57571428Y-130160952D01*
X57571428Y-130303809D01*
X57619047Y-130494285D01*
X57666666Y-130589523D01*
X57761904Y-130684761D01*
X57904761Y-130732380D01*
X58142857Y-130732380D01*
X57190476Y-130684761D02*
X57047619Y-130732380D01*
X56809523Y-130732380D01*
X56714285Y-130684761D01*
X56666666Y-130637142D01*
X56619047Y-130541904D01*
X56619047Y-130446666D01*
X56666666Y-130351428D01*
X56714285Y-130303809D01*
X56809523Y-130256190D01*
X57000000Y-130208571D01*
X57095238Y-130160952D01*
X57142857Y-130113333D01*
X57190476Y-130018095D01*
X57190476Y-129922857D01*
X57142857Y-129827619D01*
X57095238Y-129780000D01*
X57000000Y-129732380D01*
X56761904Y-129732380D01*
X56619047Y-129780000D01*
X56285714Y-129732380D02*
X55666666Y-129732380D01*
X56000000Y-130113333D01*
X55857142Y-130113333D01*
X55761904Y-130160952D01*
X55714285Y-130208571D01*
X55666666Y-130303809D01*
X55666666Y-130541904D01*
X55714285Y-130637142D01*
X55761904Y-130684761D01*
X55857142Y-130732380D01*
X56142857Y-130732380D01*
X56238095Y-130684761D01*
X56285714Y-130637142D01*
X55285714Y-129827619D02*
X55238095Y-129780000D01*
X55142857Y-129732380D01*
X54904761Y-129732380D01*
X54809523Y-129780000D01*
X54761904Y-129827619D01*
X54714285Y-129922857D01*
X54714285Y-130018095D01*
X54761904Y-130160952D01*
X55333333Y-130732380D01*
X54714285Y-130732380D01*
X54380952Y-129732380D02*
X53761904Y-129732380D01*
X54095238Y-130113333D01*
X53952380Y-130113333D01*
X53857142Y-130160952D01*
X53809523Y-130208571D01*
X53761904Y-130303809D01*
X53761904Y-130541904D01*
X53809523Y-130637142D01*
X53857142Y-130684761D01*
X53952380Y-130732380D01*
X54238095Y-130732380D01*
X54333333Y-130684761D01*
X54380952Y-130637142D01*
X52809523Y-130732380D02*
X53380952Y-130732380D01*
X53095238Y-130732380D02*
X53095238Y-129732380D01*
X53190476Y-129875238D01*
X53285714Y-129970476D01*
X53380952Y-130018095D01*
%TO.C,J1*%
X133182380Y-45416666D02*
X133896666Y-45416666D01*
X134039523Y-45369047D01*
X134134761Y-45273809D01*
X134182380Y-45130952D01*
X134182380Y-45035714D01*
X134182380Y-46416666D02*
X134182380Y-45845238D01*
X134182380Y-46130952D02*
X133182380Y-46130952D01*
X133325238Y-46035714D01*
X133420476Y-45940476D01*
X133468095Y-45845238D01*
X142619047Y-48702380D02*
X142619047Y-47702380D01*
X142380952Y-47702380D01*
X142238095Y-47750000D01*
X142142857Y-47845238D01*
X142095238Y-47940476D01*
X142047619Y-48130952D01*
X142047619Y-48273809D01*
X142095238Y-48464285D01*
X142142857Y-48559523D01*
X142238095Y-48654761D01*
X142380952Y-48702380D01*
X142619047Y-48702380D01*
X141619047Y-48702380D02*
X141619047Y-47702380D01*
X141619047Y-48178571D02*
X141047619Y-48178571D01*
X141047619Y-48702380D02*
X141047619Y-47702380D01*
X140714285Y-47702380D02*
X140142857Y-47702380D01*
X140428571Y-48702380D02*
X140428571Y-47702380D01*
X139857142Y-47797619D02*
X139809523Y-47750000D01*
X139714285Y-47702380D01*
X139476190Y-47702380D01*
X139380952Y-47750000D01*
X139333333Y-47797619D01*
X139285714Y-47892857D01*
X139285714Y-47988095D01*
X139333333Y-48130952D01*
X139904761Y-48702380D01*
X139285714Y-48702380D01*
X138904761Y-47797619D02*
X138857142Y-47750000D01*
X138761904Y-47702380D01*
X138523809Y-47702380D01*
X138428571Y-47750000D01*
X138380952Y-47797619D01*
X138333333Y-47892857D01*
X138333333Y-47988095D01*
X138380952Y-48130952D01*
X138952380Y-48702380D01*
X138333333Y-48702380D01*
%TO.C,R1*%
X145416666Y-124452380D02*
X145750000Y-123976190D01*
X145988095Y-124452380D02*
X145988095Y-123452380D01*
X145607142Y-123452380D01*
X145511904Y-123500000D01*
X145464285Y-123547619D01*
X145416666Y-123642857D01*
X145416666Y-123785714D01*
X145464285Y-123880952D01*
X145511904Y-123928571D01*
X145607142Y-123976190D01*
X145988095Y-123976190D01*
X144464285Y-124452380D02*
X145035714Y-124452380D01*
X144750000Y-124452380D02*
X144750000Y-123452380D01*
X144845238Y-123595238D01*
X144940476Y-123690476D01*
X145035714Y-123738095D01*
X146663333Y-125415714D02*
X146663333Y-126082380D01*
X146901428Y-125034761D02*
X147139523Y-125749047D01*
X146520476Y-125749047D01*
X146234761Y-125082380D02*
X145568095Y-125082380D01*
X145996666Y-126082380D01*
X144996666Y-125082380D02*
X144901428Y-125082380D01*
X144806190Y-125130000D01*
X144758571Y-125177619D01*
X144710952Y-125272857D01*
X144663333Y-125463333D01*
X144663333Y-125701428D01*
X144710952Y-125891904D01*
X144758571Y-125987142D01*
X144806190Y-126034761D01*
X144901428Y-126082380D01*
X144996666Y-126082380D01*
X145091904Y-126034761D01*
X145139523Y-125987142D01*
X145187142Y-125891904D01*
X145234761Y-125701428D01*
X145234761Y-125463333D01*
X145187142Y-125272857D01*
X145139523Y-125177619D01*
X145091904Y-125130000D01*
X144996666Y-125082380D01*
X144282380Y-126082380D02*
X144044285Y-126082380D01*
X144044285Y-125891904D01*
X144139523Y-125844285D01*
X144234761Y-125749047D01*
X144282380Y-125606190D01*
X144282380Y-125368095D01*
X144234761Y-125225238D01*
X144139523Y-125130000D01*
X143996666Y-125082380D01*
X143806190Y-125082380D01*
X143663333Y-125130000D01*
X143568095Y-125225238D01*
X143520476Y-125368095D01*
X143520476Y-125606190D01*
X143568095Y-125749047D01*
X143663333Y-125844285D01*
X143758571Y-125891904D01*
X143758571Y-126082380D01*
X143520476Y-126082380D01*
%TO.C,R2*%
X24746666Y-7822380D02*
X25080000Y-7346190D01*
X25318095Y-7822380D02*
X25318095Y-6822380D01*
X24937142Y-6822380D01*
X24841904Y-6870000D01*
X24794285Y-6917619D01*
X24746666Y-7012857D01*
X24746666Y-7155714D01*
X24794285Y-7250952D01*
X24841904Y-7298571D01*
X24937142Y-7346190D01*
X25318095Y-7346190D01*
X24365714Y-6917619D02*
X24318095Y-6870000D01*
X24222857Y-6822380D01*
X23984761Y-6822380D01*
X23889523Y-6870000D01*
X23841904Y-6917619D01*
X23794285Y-7012857D01*
X23794285Y-7108095D01*
X23841904Y-7250952D01*
X24413333Y-7822380D01*
X23794285Y-7822380D01*
X25841904Y-3082380D02*
X26413333Y-3082380D01*
X26127619Y-3082380D02*
X26127619Y-2082380D01*
X26222857Y-2225238D01*
X26318095Y-2320476D01*
X26413333Y-2368095D01*
X25222857Y-2082380D02*
X25127619Y-2082380D01*
X25032380Y-2130000D01*
X24984761Y-2177619D01*
X24937142Y-2272857D01*
X24889523Y-2463333D01*
X24889523Y-2701428D01*
X24937142Y-2891904D01*
X24984761Y-2987142D01*
X25032380Y-3034761D01*
X25127619Y-3082380D01*
X25222857Y-3082380D01*
X25318095Y-3034761D01*
X25365714Y-2987142D01*
X25413333Y-2891904D01*
X25460952Y-2701428D01*
X25460952Y-2463333D01*
X25413333Y-2272857D01*
X25365714Y-2177619D01*
X25318095Y-2130000D01*
X25222857Y-2082380D01*
X24460952Y-3082380D02*
X24460952Y-2082380D01*
X23889523Y-3082380D02*
X24318095Y-2510952D01*
X23889523Y-2082380D02*
X24460952Y-2653809D01*
X23508571Y-3082380D02*
X23270476Y-3082380D01*
X23270476Y-2891904D01*
X23365714Y-2844285D01*
X23460952Y-2749047D01*
X23508571Y-2606190D01*
X23508571Y-2368095D01*
X23460952Y-2225238D01*
X23365714Y-2130000D01*
X23222857Y-2082380D01*
X23032380Y-2082380D01*
X22889523Y-2130000D01*
X22794285Y-2225238D01*
X22746666Y-2368095D01*
X22746666Y-2606190D01*
X22794285Y-2749047D01*
X22889523Y-2844285D01*
X22984761Y-2891904D01*
X22984761Y-3082380D01*
X22746666Y-3082380D01*
%TO.C,R3*%
X133246666Y-55322380D02*
X133580000Y-54846190D01*
X133818095Y-55322380D02*
X133818095Y-54322380D01*
X133437142Y-54322380D01*
X133341904Y-54370000D01*
X133294285Y-54417619D01*
X133246666Y-54512857D01*
X133246666Y-54655714D01*
X133294285Y-54750952D01*
X133341904Y-54798571D01*
X133437142Y-54846190D01*
X133818095Y-54846190D01*
X132913333Y-54322380D02*
X132294285Y-54322380D01*
X132627619Y-54703333D01*
X132484761Y-54703333D01*
X132389523Y-54750952D01*
X132341904Y-54798571D01*
X132294285Y-54893809D01*
X132294285Y-55131904D01*
X132341904Y-55227142D01*
X132389523Y-55274761D01*
X132484761Y-55322380D01*
X132770476Y-55322380D01*
X132865714Y-55274761D01*
X132913333Y-55227142D01*
X134246666Y-50582380D02*
X134818095Y-50582380D01*
X134532380Y-50582380D02*
X134532380Y-49582380D01*
X134627619Y-49725238D01*
X134722857Y-49820476D01*
X134818095Y-49868095D01*
X133627619Y-49582380D02*
X133532380Y-49582380D01*
X133437142Y-49630000D01*
X133389523Y-49677619D01*
X133341904Y-49772857D01*
X133294285Y-49963333D01*
X133294285Y-50201428D01*
X133341904Y-50391904D01*
X133389523Y-50487142D01*
X133437142Y-50534761D01*
X133532380Y-50582380D01*
X133627619Y-50582380D01*
X133722857Y-50534761D01*
X133770476Y-50487142D01*
X133818095Y-50391904D01*
X133865714Y-50201428D01*
X133865714Y-49963333D01*
X133818095Y-49772857D01*
X133770476Y-49677619D01*
X133722857Y-49630000D01*
X133627619Y-49582380D01*
X132865714Y-50582380D02*
X132865714Y-49582380D01*
X132770476Y-50201428D02*
X132484761Y-50582380D01*
X132484761Y-49915714D02*
X132865714Y-50296666D01*
X132103809Y-50582380D02*
X131865714Y-50582380D01*
X131865714Y-50391904D01*
X131960952Y-50344285D01*
X132056190Y-50249047D01*
X132103809Y-50106190D01*
X132103809Y-49868095D01*
X132056190Y-49725238D01*
X131960952Y-49630000D01*
X131818095Y-49582380D01*
X131627619Y-49582380D01*
X131484761Y-49630000D01*
X131389523Y-49725238D01*
X131341904Y-49868095D01*
X131341904Y-50106190D01*
X131389523Y-50249047D01*
X131484761Y-50344285D01*
X131580000Y-50391904D01*
X131580000Y-50582380D01*
X131341904Y-50582380D01*
%TO.C,C1*%
X95670666Y-136673142D02*
X95718285Y-136720761D01*
X95861142Y-136768380D01*
X95956380Y-136768380D01*
X96099238Y-136720761D01*
X96194476Y-136625523D01*
X96242095Y-136530285D01*
X96289714Y-136339809D01*
X96289714Y-136196952D01*
X96242095Y-136006476D01*
X96194476Y-135911238D01*
X96099238Y-135816000D01*
X95956380Y-135768380D01*
X95861142Y-135768380D01*
X95718285Y-135816000D01*
X95670666Y-135863619D01*
X94718285Y-136768380D02*
X95289714Y-136768380D01*
X95004000Y-136768380D02*
X95004000Y-135768380D01*
X95099238Y-135911238D01*
X95194476Y-136006476D01*
X95289714Y-136054095D01*
X97527809Y-145168380D02*
X98099238Y-145168380D01*
X97813523Y-145168380D02*
X97813523Y-144168380D01*
X97908761Y-144311238D01*
X98004000Y-144406476D01*
X98099238Y-144454095D01*
X96908761Y-144168380D02*
X96813523Y-144168380D01*
X96718285Y-144216000D01*
X96670666Y-144263619D01*
X96623047Y-144358857D01*
X96575428Y-144549333D01*
X96575428Y-144787428D01*
X96623047Y-144977904D01*
X96670666Y-145073142D01*
X96718285Y-145120761D01*
X96813523Y-145168380D01*
X96908761Y-145168380D01*
X97004000Y-145120761D01*
X97051619Y-145073142D01*
X97099238Y-144977904D01*
X97146857Y-144787428D01*
X97146857Y-144549333D01*
X97099238Y-144358857D01*
X97051619Y-144263619D01*
X97004000Y-144216000D01*
X96908761Y-144168380D01*
X95956380Y-144168380D02*
X95861142Y-144168380D01*
X95765904Y-144216000D01*
X95718285Y-144263619D01*
X95670666Y-144358857D01*
X95623047Y-144549333D01*
X95623047Y-144787428D01*
X95670666Y-144977904D01*
X95718285Y-145073142D01*
X95765904Y-145120761D01*
X95861142Y-145168380D01*
X95956380Y-145168380D01*
X96051619Y-145120761D01*
X96099238Y-145073142D01*
X96146857Y-144977904D01*
X96194476Y-144787428D01*
X96194476Y-144549333D01*
X96146857Y-144358857D01*
X96099238Y-144263619D01*
X96051619Y-144216000D01*
X95956380Y-144168380D01*
X95004000Y-144168380D02*
X94908761Y-144168380D01*
X94813523Y-144216000D01*
X94765904Y-144263619D01*
X94718285Y-144358857D01*
X94670666Y-144549333D01*
X94670666Y-144787428D01*
X94718285Y-144977904D01*
X94765904Y-145073142D01*
X94813523Y-145120761D01*
X94908761Y-145168380D01*
X95004000Y-145168380D01*
X95099238Y-145120761D01*
X95146857Y-145073142D01*
X95194476Y-144977904D01*
X95242095Y-144787428D01*
X95242095Y-144549333D01*
X95194476Y-144358857D01*
X95146857Y-144263619D01*
X95099238Y-144216000D01*
X95004000Y-144168380D01*
X93813523Y-144501714D02*
X93813523Y-145168380D01*
X94242095Y-144501714D02*
X94242095Y-145025523D01*
X94194476Y-145120761D01*
X94099238Y-145168380D01*
X93956380Y-145168380D01*
X93861142Y-145120761D01*
X93813523Y-145073142D01*
X93004000Y-144644571D02*
X93337333Y-144644571D01*
X93337333Y-145168380D02*
X93337333Y-144168380D01*
X92861142Y-144168380D01*
%TO.C,A1*%
X108586666Y-139405714D02*
X108586666Y-139881904D01*
X108872380Y-139310476D02*
X107872380Y-139643809D01*
X108872380Y-139977142D01*
X108872380Y-140834285D02*
X108872380Y-140262857D01*
X108872380Y-140548571D02*
X107872380Y-140548571D01*
X108015238Y-140453333D01*
X108110476Y-140358095D01*
X108158095Y-140262857D01*
D13*
X139288095Y-141556666D02*
X138811904Y-141556666D01*
X139383333Y-141842380D02*
X139050000Y-140842380D01*
X138716666Y-141842380D01*
X138383333Y-141842380D02*
X138383333Y-141175714D01*
X138383333Y-141366190D02*
X138335714Y-141270952D01*
X138288095Y-141223333D01*
X138192857Y-141175714D01*
X138097619Y-141175714D01*
X137335714Y-141842380D02*
X137335714Y-140842380D01*
X137335714Y-141794761D02*
X137430952Y-141842380D01*
X137621428Y-141842380D01*
X137716666Y-141794761D01*
X137764285Y-141747142D01*
X137811904Y-141651904D01*
X137811904Y-141366190D01*
X137764285Y-141270952D01*
X137716666Y-141223333D01*
X137621428Y-141175714D01*
X137430952Y-141175714D01*
X137335714Y-141223333D01*
X136430952Y-141175714D02*
X136430952Y-141842380D01*
X136859523Y-141175714D02*
X136859523Y-141699523D01*
X136811904Y-141794761D01*
X136716666Y-141842380D01*
X136573809Y-141842380D01*
X136478571Y-141794761D01*
X136430952Y-141747142D01*
X135954761Y-141842380D02*
X135954761Y-141175714D01*
X135954761Y-140842380D02*
X136002380Y-140890000D01*
X135954761Y-140937619D01*
X135907142Y-140890000D01*
X135954761Y-140842380D01*
X135954761Y-140937619D01*
X135478571Y-141175714D02*
X135478571Y-141842380D01*
X135478571Y-141270952D02*
X135430952Y-141223333D01*
X135335714Y-141175714D01*
X135192857Y-141175714D01*
X135097619Y-141223333D01*
X135050000Y-141318571D01*
X135050000Y-141842380D01*
X134430952Y-141842380D02*
X134526190Y-141794761D01*
X134573809Y-141747142D01*
X134621428Y-141651904D01*
X134621428Y-141366190D01*
X134573809Y-141270952D01*
X134526190Y-141223333D01*
X134430952Y-141175714D01*
X134288095Y-141175714D01*
X134192857Y-141223333D01*
X134145238Y-141270952D01*
X134097619Y-141366190D01*
X134097619Y-141651904D01*
X134145238Y-141747142D01*
X134192857Y-141794761D01*
X134288095Y-141842380D01*
X134430952Y-141842380D01*
X133907142Y-141937619D02*
X133145238Y-141937619D01*
X132907142Y-141842380D02*
X132907142Y-140842380D01*
X132335714Y-141842380D01*
X132335714Y-140842380D01*
X131430952Y-141842380D02*
X131430952Y-141318571D01*
X131478571Y-141223333D01*
X131573809Y-141175714D01*
X131764285Y-141175714D01*
X131859523Y-141223333D01*
X131430952Y-141794761D02*
X131526190Y-141842380D01*
X131764285Y-141842380D01*
X131859523Y-141794761D01*
X131907142Y-141699523D01*
X131907142Y-141604285D01*
X131859523Y-141509047D01*
X131764285Y-141461428D01*
X131526190Y-141461428D01*
X131430952Y-141413809D01*
X130954761Y-141175714D02*
X130954761Y-141842380D01*
X130954761Y-141270952D02*
X130907142Y-141223333D01*
X130811904Y-141175714D01*
X130669047Y-141175714D01*
X130573809Y-141223333D01*
X130526190Y-141318571D01*
X130526190Y-141842380D01*
X129907142Y-141842380D02*
X130002380Y-141794761D01*
X130050000Y-141747142D01*
X130097619Y-141651904D01*
X130097619Y-141366190D01*
X130050000Y-141270952D01*
X130002380Y-141223333D01*
X129907142Y-141175714D01*
X129764285Y-141175714D01*
X129669047Y-141223333D01*
X129621428Y-141270952D01*
X129573809Y-141366190D01*
X129573809Y-141651904D01*
X129621428Y-141747142D01*
X129669047Y-141794761D01*
X129764285Y-141842380D01*
X129907142Y-141842380D01*
X129383333Y-141937619D02*
X128621428Y-141937619D01*
X128478571Y-141175714D02*
X128240476Y-141842380D01*
X128002380Y-141175714D01*
X127716666Y-140842380D02*
X127097619Y-140842380D01*
X127430952Y-141223333D01*
X127288095Y-141223333D01*
X127192857Y-141270952D01*
X127145238Y-141318571D01*
X127097619Y-141413809D01*
X127097619Y-141651904D01*
X127145238Y-141747142D01*
X127192857Y-141794761D01*
X127288095Y-141842380D01*
X127573809Y-141842380D01*
X127669047Y-141794761D01*
X127716666Y-141747142D01*
X126669047Y-141747142D02*
X126621428Y-141794761D01*
X126669047Y-141842380D01*
X126716666Y-141794761D01*
X126669047Y-141747142D01*
X126669047Y-141842380D01*
X126288095Y-141842380D02*
X125764285Y-141175714D01*
X126288095Y-141175714D02*
X125764285Y-141842380D01*
%TO.C,BZ1*%
D14*
X131130952Y-96138571D02*
X130988095Y-96186190D01*
X130940476Y-96233809D01*
X130892857Y-96329047D01*
X130892857Y-96471904D01*
X130940476Y-96567142D01*
X130988095Y-96614761D01*
X131083333Y-96662380D01*
X131464285Y-96662380D01*
X131464285Y-95662380D01*
X131130952Y-95662380D01*
X131035714Y-95710000D01*
X130988095Y-95757619D01*
X130940476Y-95852857D01*
X130940476Y-95948095D01*
X130988095Y-96043333D01*
X131035714Y-96090952D01*
X131130952Y-96138571D01*
X131464285Y-96138571D01*
X130559523Y-95662380D02*
X129892857Y-95662380D01*
X130559523Y-96662380D01*
X129892857Y-96662380D01*
X128988095Y-96662380D02*
X129559523Y-96662380D01*
X129273809Y-96662380D02*
X129273809Y-95662380D01*
X129369047Y-95805238D01*
X129464285Y-95900476D01*
X129559523Y-95948095D01*
X135083333Y-104433666D02*
X134607142Y-104433666D01*
X135178571Y-104719380D02*
X134845238Y-103719380D01*
X134511904Y-104719380D01*
X133750000Y-104671761D02*
X133845238Y-104719380D01*
X134035714Y-104719380D01*
X134130952Y-104671761D01*
X134178571Y-104624142D01*
X134226190Y-104528904D01*
X134226190Y-104243190D01*
X134178571Y-104147952D01*
X134130952Y-104100333D01*
X134035714Y-104052714D01*
X133845238Y-104052714D01*
X133750000Y-104100333D01*
X133464285Y-104052714D02*
X133083333Y-104052714D01*
X133321428Y-103719380D02*
X133321428Y-104576523D01*
X133273809Y-104671761D01*
X133178571Y-104719380D01*
X133083333Y-104719380D01*
X132750000Y-104719380D02*
X132750000Y-104052714D01*
X132750000Y-103719380D02*
X132797619Y-103767000D01*
X132750000Y-103814619D01*
X132702380Y-103767000D01*
X132750000Y-103719380D01*
X132750000Y-103814619D01*
X132369047Y-104052714D02*
X132130952Y-104719380D01*
X131892857Y-104052714D01*
X131130952Y-104671761D02*
X131226190Y-104719380D01*
X131416666Y-104719380D01*
X131511904Y-104671761D01*
X131559523Y-104576523D01*
X131559523Y-104195571D01*
X131511904Y-104100333D01*
X131416666Y-104052714D01*
X131226190Y-104052714D01*
X131130952Y-104100333D01*
X131083333Y-104195571D01*
X131083333Y-104290809D01*
X131559523Y-104386047D01*
X130892857Y-104814619D02*
X130130952Y-104814619D01*
X129892857Y-104719380D02*
X129892857Y-103719380D01*
X129892857Y-104100333D02*
X129797619Y-104052714D01*
X129607142Y-104052714D01*
X129511904Y-104100333D01*
X129464285Y-104147952D01*
X129416666Y-104243190D01*
X129416666Y-104528904D01*
X129464285Y-104624142D01*
X129511904Y-104671761D01*
X129607142Y-104719380D01*
X129797619Y-104719380D01*
X129892857Y-104671761D01*
X128559523Y-104052714D02*
X128559523Y-104719380D01*
X128988095Y-104052714D02*
X128988095Y-104576523D01*
X128940476Y-104671761D01*
X128845238Y-104719380D01*
X128702380Y-104719380D01*
X128607142Y-104671761D01*
X128559523Y-104624142D01*
X128178571Y-104052714D02*
X127654761Y-104052714D01*
X128178571Y-104719380D01*
X127654761Y-104719380D01*
X127369047Y-104052714D02*
X126845238Y-104052714D01*
X127369047Y-104719380D01*
X126845238Y-104719380D01*
X126083333Y-104671761D02*
X126178571Y-104719380D01*
X126369047Y-104719380D01*
X126464285Y-104671761D01*
X126511904Y-104576523D01*
X126511904Y-104195571D01*
X126464285Y-104100333D01*
X126369047Y-104052714D01*
X126178571Y-104052714D01*
X126083333Y-104100333D01*
X126035714Y-104195571D01*
X126035714Y-104290809D01*
X126511904Y-104386047D01*
X125607142Y-104719380D02*
X125607142Y-104052714D01*
X125607142Y-104243190D02*
X125559523Y-104147952D01*
X125511904Y-104100333D01*
X125416666Y-104052714D01*
X125321428Y-104052714D01*
%TO.C,R4*%
X4738666Y-2088380D02*
X5072000Y-1612190D01*
X5310095Y-2088380D02*
X5310095Y-1088380D01*
X4929142Y-1088380D01*
X4833904Y-1136000D01*
X4786285Y-1183619D01*
X4738666Y-1278857D01*
X4738666Y-1421714D01*
X4786285Y-1516952D01*
X4833904Y-1564571D01*
X4929142Y-1612190D01*
X5310095Y-1612190D01*
X3881523Y-1421714D02*
X3881523Y-2088380D01*
X4119619Y-1040761D02*
X4357714Y-1755047D01*
X3738666Y-1755047D01*
X7095809Y-5928380D02*
X7429142Y-5452190D01*
X7667238Y-5928380D02*
X7667238Y-4928380D01*
X7286285Y-4928380D01*
X7191047Y-4976000D01*
X7143428Y-5023619D01*
X7095809Y-5118857D01*
X7095809Y-5261714D01*
X7143428Y-5356952D01*
X7191047Y-5404571D01*
X7286285Y-5452190D01*
X7667238Y-5452190D01*
X6905333Y-6023619D02*
X6143428Y-6023619D01*
X5905333Y-5928380D02*
X5905333Y-4928380D01*
X5524380Y-4928380D01*
X5429142Y-4976000D01*
X5381523Y-5023619D01*
X5333904Y-5118857D01*
X5333904Y-5261714D01*
X5381523Y-5356952D01*
X5429142Y-5404571D01*
X5524380Y-5452190D01*
X5905333Y-5452190D01*
X4905333Y-5928380D02*
X4905333Y-4928380D01*
X4905333Y-5404571D02*
X4333904Y-5404571D01*
X4333904Y-5928380D02*
X4333904Y-4928380D01*
X3667238Y-4928380D02*
X3476761Y-4928380D01*
X3381523Y-4976000D01*
X3286285Y-5071238D01*
X3238666Y-5261714D01*
X3238666Y-5595047D01*
X3286285Y-5785523D01*
X3381523Y-5880761D01*
X3476761Y-5928380D01*
X3667238Y-5928380D01*
X3762476Y-5880761D01*
X3857714Y-5785523D01*
X3905333Y-5595047D01*
X3905333Y-5261714D01*
X3857714Y-5071238D01*
X3762476Y-4976000D01*
X3667238Y-4928380D01*
X2952952Y-4928380D02*
X2381523Y-4928380D01*
X2667238Y-5928380D02*
X2667238Y-4928380D01*
X1857714Y-4928380D02*
X1667238Y-4928380D01*
X1571999Y-4976000D01*
X1476761Y-5071238D01*
X1429142Y-5261714D01*
X1429142Y-5595047D01*
X1476761Y-5785523D01*
X1571999Y-5880761D01*
X1667238Y-5928380D01*
X1857714Y-5928380D01*
X1952952Y-5880761D01*
X2048190Y-5785523D01*
X2095809Y-5595047D01*
X2095809Y-5261714D01*
X2048190Y-5071238D01*
X1952952Y-4976000D01*
X1857714Y-4928380D01*
%TO.C,SW3*%
X151904761Y-108416666D02*
X151952380Y-108559523D01*
X151952380Y-108797619D01*
X151904761Y-108892857D01*
X151857142Y-108940476D01*
X151761904Y-108988095D01*
X151666666Y-108988095D01*
X151571428Y-108940476D01*
X151523809Y-108892857D01*
X151476190Y-108797619D01*
X151428571Y-108607142D01*
X151380952Y-108511904D01*
X151333333Y-108464285D01*
X151238095Y-108416666D01*
X151142857Y-108416666D01*
X151047619Y-108464285D01*
X151000000Y-108511904D01*
X150952380Y-108607142D01*
X150952380Y-108845238D01*
X151000000Y-108988095D01*
X150952380Y-109321428D02*
X151952380Y-109559523D01*
X151238095Y-109750000D01*
X151952380Y-109940476D01*
X150952380Y-110178571D01*
X150952380Y-110464285D02*
X150952380Y-111083333D01*
X151333333Y-110750000D01*
X151333333Y-110892857D01*
X151380952Y-110988095D01*
X151428571Y-111035714D01*
X151523809Y-111083333D01*
X151761904Y-111083333D01*
X151857142Y-111035714D01*
X151904761Y-110988095D01*
X151952380Y-110892857D01*
X151952380Y-110607142D01*
X151904761Y-110511904D01*
X151857142Y-110464285D01*
X148952380Y-106892857D02*
X148952380Y-107464285D01*
X149952380Y-107178571D02*
X148952380Y-107178571D01*
X149952380Y-107797619D02*
X148952380Y-107797619D01*
X149952380Y-108273809D02*
X148952380Y-108273809D01*
X149666666Y-108607142D01*
X148952380Y-108940476D01*
X149952380Y-108940476D01*
X149428571Y-109416666D02*
X149428571Y-109750000D01*
X149952380Y-109892857D02*
X149952380Y-109416666D01*
X148952380Y-109416666D01*
X148952380Y-109892857D01*
X150047619Y-110083333D02*
X150047619Y-110845238D01*
X149904761Y-111035714D02*
X149952380Y-111130952D01*
X149952380Y-111321428D01*
X149904761Y-111416666D01*
X149809523Y-111464285D01*
X149761904Y-111464285D01*
X149666666Y-111416666D01*
X149619047Y-111321428D01*
X149619047Y-111178571D01*
X149571428Y-111083333D01*
X149476190Y-111035714D01*
X149428571Y-111035714D01*
X149333333Y-111083333D01*
X149285714Y-111178571D01*
X149285714Y-111321428D01*
X149333333Y-111416666D01*
X149285714Y-111797619D02*
X149952380Y-111988095D01*
X149476190Y-112178571D01*
X149952380Y-112369047D01*
X149285714Y-112559523D01*
%TO.C,SW4*%
X152044760Y-92666666D02*
X152092379Y-92809523D01*
X152092379Y-93047619D01*
X152044760Y-93142857D01*
X151997141Y-93190476D01*
X151901903Y-93238095D01*
X151806665Y-93238095D01*
X151711427Y-93190476D01*
X151663808Y-93142857D01*
X151616189Y-93047619D01*
X151568570Y-92857142D01*
X151520951Y-92761904D01*
X151473332Y-92714285D01*
X151378094Y-92666666D01*
X151282856Y-92666666D01*
X151187618Y-92714285D01*
X151139999Y-92761904D01*
X151092379Y-92857142D01*
X151092379Y-93095238D01*
X151139999Y-93238095D01*
X151092379Y-93571428D02*
X152092379Y-93809523D01*
X151378094Y-94000000D01*
X152092379Y-94190476D01*
X151092379Y-94428571D01*
X151425713Y-95238095D02*
X152092379Y-95238095D01*
X151044760Y-95000000D02*
X151759046Y-94761904D01*
X151759046Y-95380952D01*
X150092379Y-92047619D02*
X150092379Y-91571428D01*
X149092379Y-91571428D01*
X149568570Y-92380952D02*
X149568570Y-92714285D01*
X150092379Y-92857142D02*
X150092379Y-92380952D01*
X149092379Y-92380952D01*
X149092379Y-92857142D01*
X150092379Y-93285714D02*
X149092379Y-93285714D01*
X149092379Y-93523809D01*
X149139999Y-93666666D01*
X149235237Y-93761904D01*
X149330475Y-93809523D01*
X149520951Y-93857142D01*
X149663808Y-93857142D01*
X149854284Y-93809523D01*
X149949522Y-93761904D01*
X150044760Y-93666666D01*
X150092379Y-93523809D01*
X150092379Y-93285714D01*
X150187618Y-94047619D02*
X150187618Y-94809523D01*
X150044760Y-95000000D02*
X150092379Y-95095238D01*
X150092379Y-95285714D01*
X150044760Y-95380952D01*
X149949522Y-95428571D01*
X149901903Y-95428571D01*
X149806665Y-95380952D01*
X149759046Y-95285714D01*
X149759046Y-95142857D01*
X149711427Y-95047619D01*
X149616189Y-95000000D01*
X149568570Y-95000000D01*
X149473332Y-95047619D01*
X149425713Y-95142857D01*
X149425713Y-95285714D01*
X149473332Y-95380952D01*
X149425713Y-95761904D02*
X150092379Y-95952380D01*
X149616189Y-96142857D01*
X150092379Y-96333333D01*
X149425713Y-96523809D01*
%TO.C,J3*%
X123472380Y-45416666D02*
X124186666Y-45416666D01*
X124329523Y-45369047D01*
X124424761Y-45273809D01*
X124472380Y-45130952D01*
X124472380Y-45035714D01*
X123472380Y-45797619D02*
X123472380Y-46416666D01*
X123853333Y-46083333D01*
X123853333Y-46226190D01*
X123900952Y-46321428D01*
X123948571Y-46369047D01*
X124043809Y-46416666D01*
X124281904Y-46416666D01*
X124377142Y-46369047D01*
X124424761Y-46321428D01*
X124472380Y-46226190D01*
X124472380Y-45940476D01*
X124424761Y-45845238D01*
X124377142Y-45797619D01*
X110931428Y-43535714D02*
X110931428Y-42773809D01*
X111121904Y-42964285D02*
X110931428Y-42773809D01*
X110740952Y-42964285D01*
X111312380Y-44011904D02*
X110312380Y-44011904D01*
X110788571Y-44011904D02*
X110788571Y-44583333D01*
X111312380Y-44583333D02*
X110312380Y-44583333D01*
X111217142Y-45630952D02*
X111264761Y-45583333D01*
X111312380Y-45440476D01*
X111312380Y-45345238D01*
X111264761Y-45202380D01*
X111169523Y-45107142D01*
X111074285Y-45059523D01*
X110883809Y-45011904D01*
X110740952Y-45011904D01*
X110550476Y-45059523D01*
X110455238Y-45107142D01*
X110360000Y-45202380D01*
X110312380Y-45345238D01*
X110312380Y-45440476D01*
X110360000Y-45583333D01*
X110407619Y-45630952D01*
X110931428Y-46059523D02*
X110931428Y-46821428D01*
X110312380Y-47488095D02*
X110312380Y-47583333D01*
X110360000Y-47678571D01*
X110407619Y-47726190D01*
X110502857Y-47773809D01*
X110693333Y-47821428D01*
X110931428Y-47821428D01*
X111121904Y-47773809D01*
X111217142Y-47726190D01*
X111264761Y-47678571D01*
X111312380Y-47583333D01*
X111312380Y-47488095D01*
X111264761Y-47392857D01*
X111217142Y-47345238D01*
X111121904Y-47297619D01*
X110931428Y-47250000D01*
X110693333Y-47250000D01*
X110502857Y-47297619D01*
X110407619Y-47345238D01*
X110360000Y-47392857D01*
X110312380Y-47488095D01*
X110312380Y-48678571D02*
X110312380Y-48488095D01*
X110360000Y-48392857D01*
X110407619Y-48345238D01*
X110550476Y-48250000D01*
X110740952Y-48202380D01*
X111121904Y-48202380D01*
X111217142Y-48250000D01*
X111264761Y-48297619D01*
X111312380Y-48392857D01*
X111312380Y-48583333D01*
X111264761Y-48678571D01*
X111217142Y-48726190D01*
X111121904Y-48773809D01*
X110883809Y-48773809D01*
X110788571Y-48726190D01*
X110740952Y-48678571D01*
X110693333Y-48583333D01*
X110693333Y-48392857D01*
X110740952Y-48297619D01*
X110788571Y-48250000D01*
X110883809Y-48202380D01*
%TD*%
M02*
